<svg id="Layer_1" data-name="Layer 1" xmlns="http://www.w3.org/2000/svg" width="723.23" height="277.89" viewBox="0 0 723.23 277.89"><defs><style>.cls-1{fill:#fff;}</style></defs><title>appian_logo_freelogovectors.net</title><path class="cls-1" d="M429.24,324.45c-3.61,3.9-4.45,8.91-4.45,14.19V449.35h37.55V289.68Z" transform="translate(-13.38 -237.39)"/><polygon class="cls-1" points="411.13 0 411.13 58.97 448.68 19.19 448.68 0 411.13 0"/><path class="cls-1" d="M405.6,310.82h0c-.84-33.65-13.08-46.73-45.9-46.73H287.93V515.28h36.72V449.07H359.7c32.82,0,45.06-13.63,45.9-47.29h0ZM346.35,417.64c-14.74,0-21.7,0-21.7-12.8V307.76c0-12.79,7-12.79,21.7-12.79,13.91,0,21.7,0,21.7,12.79v97.08C368.05,417.64,360.26,417.36,346.35,417.64Z" transform="translate(-13.38 -237.39)"/><path class="cls-1" d="M268.46,310.82h0c-.83-33.65-13.07-46.73-45.9-46.73H150.8V515.28h36.44V449.07h35c32.82,0,45.06-13.63,45.89-47.29h0C268.46,401,268.46,311.66,268.46,310.82ZM209.21,417.64c-14.74,0-21.69,0-21.69-12.8V307.76c0-12.79,6.95-12.79,21.69-12.79,13.91,0,21.7,0,21.7,12.79v97.08C230.91,417.64,223.12,417.36,209.21,417.64Z" transform="translate(-13.38 -237.39)"/><path class="cls-1" d="M699.06,449.07V308c0-12.79-7.78-12.79-21.69-12.79-14.75,0-21.7,0-21.7,12.79v141H618.4v-185h72.32c32.82,0,45.06,13.63,45.9,47.29h0v138l-37.56-.28Z" transform="translate(-13.38 -237.39)"/><path class="cls-1" d="M599.2,311.1c-.83-33.66-13.63-47.29-46.45-47.29H504.07v31.44H539.4c13.9,0,21.69,0,21.69,12.79V326.4c-6.67,0-22.53-.28-34.21-.28-32.82,0-45.06,13.63-45.9,47.29h0v28.93h0c.84,33.66,13.08,47,45.9,47H599.2Zm-37,94c0,12.8-7,12.8-21.7,12.8-13.91,0-21.7,0-21.7-12.8V370.07c0-12.79,7.79-12.79,21.7-12.79,14.74,0,21.7,0,21.7,12.79Z" transform="translate(-13.38 -237.39)"/><path class="cls-1" d="M131.6,311.1c-.83-33.66-13.63-47.29-46.45-47.29H36.47v31.44H71.8c13.91,0,21.7,0,21.7,12.79V326.4c-6.4,0-22.26-.28-34.22-.28-32.82,0-45.06,13.36-45.9,47.29h0v28.93h0c.84,31.71,11.69,45.34,40.62,47l29.76-31.43c-3.06.28-6.68.28-11.13.28-13.91,0-21.69,0-21.69-12.8V370.07c0-12.79,7.78-12.79,21.69-12.79,14.75,0,21.7,0,21.7,12.79v79H131.6Z" transform="translate(-13.38 -237.39)"/></svg>