<svg xmlns="http://www.w3.org/2000/svg" viewBox="0 0 177.98 181.11"><defs><style>.cls-1{fill:#334c2c;}.cls-2{fill:#4e7235;}.cls-3{fill:#5d6f31;}.cls-4{fill:#8d913e;}.cls-5{fill:#d5ac92;}.cls-6{fill:#1b1a1c;}.cls-7{fill:#1a1a1a;}.cls-8{fill:#805e4d;}.cls-9{fill:#381e15;}.cls-10{fill:#9a7d7a;}.cls-11{fill:#f7fbf2;}.cls-12{fill:#231f20;}.cls-13{fill:#231516;}.cls-14{fill:#141112;}.cls-15{fill:#e3deef;}.cls-16{fill:#57392e;}.cls-17{fill:#40251d;}.cls-18{fill:#5e362a;}.cls-19{fill:#5e3829;}.cls-20{fill:#201214;}.cls-21{fill:#171212;}.cls-22{fill:#feece2;}.cls-23{fill:#5e463f;}.cls-24{fill:#411512;}.cls-25{fill:#37191a;}.cls-26{fill:#f9d6c7;}.cls-27{fill:#dfc1af;}.cls-28{fill:#a2958a;}.cls-29{fill:#7d5636;}.cls-30{fill:#825a42;}.cls-31{fill:#503022;}.cls-32{fill:#532f1f;}.cls-33{fill:#b8927a;}.cls-34{fill:#fddaca;}.cls-35{fill:#e5c6b8;}.cls-36{fill:#453930;}.cls-37{fill:#804f54;}.cls-38{fill:#fafbf0;}.cls-39{fill:#4f322f;}.cls-40{fill:#a56864;}.cls-41{fill:#b58073;}.cls-42{fill:#211113;}.cls-43{fill:#2f1615;}.cls-44{fill:#8e5e47;}.cls-45{fill:#5b3a31;}.cls-46{fill:#3c2416;}.cls-47{fill:#bb7f63;}.cls-48{fill:#2b1311;}.cls-49{fill:#7f7590;}.cls-50{fill:#4f495b;}.cls-51{fill:#302b3a;}.cls-52{fill:#a28b8f;}.cls-53{fill:#5f6764;}.cls-54{fill:#5b6361;}.cls-55{fill:#50534e;}.cls-56{fill:#738585;}.cls-57{fill:#586a60;}.cls-58{fill:#55534e;}.cls-59{fill:#eda79e;}.cls-60{fill:#d78e88;}.cls-61{fill:#a63451;}.cls-62{fill:#a83148;}.cls-63{fill:#e1d2cf;}.cls-64{fill:#b8405a;}.cls-65{fill:#66466f;}.cls-66{fill:#d63c52;}.cls-67{fill:#d5415e;}.cls-68{fill:#ad1f30;}.cls-69{fill:#67466b;}.cls-70{fill:#b72b40;}.cls-71{fill:#ed5371;}.cls-72{fill:#b81f3a;}.cls-73{fill:#de9ea4;}.cls-74{fill:#f4e6ed;}.cls-75{fill:#f1e3e6;}.cls-76{fill:#9d6f71;}.cls-77{fill:#4b5f67;}.cls-78{fill:#495554;}.cls-79{fill:#952854;}.cls-80{fill:#cfdff2;}.cls-81{fill:#8d1a49;}.cls-82{fill:#9b3d78;}.cls-83{fill:#493e6b;}.cls-84{fill:#bc3c63;}.cls-85{fill:#b73a60;}.cls-86{fill:#d9e4f4;}.cls-87{fill:none;}.cls-88{fill:#cc4673;}.cls-89{fill:#a3609e;}.cls-90{fill:#584f84;}.cls-91{fill:#c34575;}.cls-92{fill:#a43263;}.cls-93{fill:#971a31;}.cls-94{fill:#dc3e68;}.cls-95{fill:#ae1f3b;}.cls-96{fill:#b02f5a;}.cls-97{fill:#b6285f;}.cls-98{fill:#b28c75;}.cls-99{fill:#18181a;}.cls-100{fill:#171f2d;}.cls-101{fill:#151b21;}.cls-102{fill:#151b23;}.cls-103{fill:#1b1f29;}.cls-104{fill:#252728;}.cls-105{fill:#1f2228;}.cls-106{fill:#1d232c;}.cls-107{fill:#1b1f23;}.cls-108{fill:#3e3934;}.cls-109{fill:#1a1717;}.cls-110{fill:#2c2d2f;}.cls-111{fill:#1e1c1a;}.cls-112{fill:#2f2d2e;}.cls-113{fill:#1b1f28;}.cls-114{fill:#1e1e23;}.cls-115{fill:#131411;}</style></defs><g id="Layer_2" data-name="Layer 2"><g id="Layer_1-2" data-name="Layer 1"><path class="cls-1" d="M168.42,138.28a14,14,0,0,0,1.36-5.2,16,16,0,0,0-1.11-4.89c-2.45-7.48-3.4-15.91-.38-23.17,1.13-2.72,2.77-5.17,4.06-7.81,3.79-7.79,2.09-14.35,5-22,1.36-3.64.56-7.85-1.26-11.26s-4.56-6.2-7.3-8.88a19.49,19.49,0,0,1-3.61-4.28c-2-3.56-1.57-8-1.88-12.05a22.19,22.19,0,0,0-3.5-10.87,24.22,24.22,0,0,0-8.38-7.5c-6-3.43-11.48-2.94-18.06-4.28A74.24,74.24,0,0,1,119,11.73c-5.46-2.34-10.57-5.49-16.09-7.66C90.78-.71,77.39-.55,64.51.87c-9,1-18,2.61-26.24,6.47-4.63,2.18-9.08,5.19-11.92,9.57-3.16,4.9-3.9,10.84-6.11,16.16-1.88,4.51-7,6.85-6.25,12.37a6.19,6.19,0,0,1,.14,2.89,4.07,4.07,0,0,1-1.27,1.58C9.12,53.11,4.51,56,3.17,60.82,1.28,67.59,6.73,74,11.7,78.77c-.89,2.41-.18,4.52-.91,7-.82,2.77-3,5.13-4.68,7.38A33.39,33.39,0,0,0,2.55,125.2c1,2.2,2.15,4.33,2.55,6.71,1.61,9.53-6.74,17.65-4.67,27.15,1.8,8.27,5.86,17.68,15.21,19.21,6.34,1,12.6-1.68,18.64-3.85a118.83,118.83,0,0,1,80.62.42c7.18,2.66,14.43,5.12,22.29,4.14,3.15-.4,6.06-1.83,8.9-3.24a24.33,24.33,0,0,0,5.29-3.21c4.66-4.06,5.4-10.56,7.65-16C161.67,150.23,165.81,144.74,168.42,138.28Z"/><path class="cls-2" d="M23.6,19.71c.41.66,1,1.16,1.44,1.81,1.22,2,.12,4.53-1.23,6.41s-3.06,3.78-3,6.09c0,1.17.47,2.29.58,3.45.27,2.75-1.42,5.26-2.3,7.89a14.24,14.24,0,0,0,7.05,16.73c-.59-.29,3-22.61,5.83-23.89a9.26,9.26,0,0,1-1.56-8.34,5,5,0,0,1,3.44-3.49c.77-.14,1.58,0,2.34-.2,1.87-.45,2.83-2.67,2.6-4.58a14,14,0,0,0-2.33-5.23A2.53,2.53,0,0,1,36,15.08c0-1.2,1.49-1.75,2.68-1.9a12.15,12.15,0,0,1,5.47.29,5.35,5.35,0,0,1,3.64,3.81c.32,1.7-.45,3.39-.94,5s-.6,3.71.69,4.87a5.77,5.77,0,0,1,1.2,1.05c.71,1.11-.33,2.64.14,3.87.27.72,1,1.17,1.36,1.84a3.24,3.24,0,0,1-.57,3.33c-.7,1-1.65,1.73-2.28,2.74-1.18,1.89-.49,5.57,2.5,4.23,1.29-.58,2-1.91,3-3a9.77,9.77,0,0,1,6-3.26c.7,3.19-.93,6.4-2.77,9.09a11.6,11.6,0,0,0-2.33,4.6c-.3,2,3.22,7.45,5.47,7.59a2.38,2.38,0,0,0,1.27-.42,12.07,12.07,0,0,0,5.59-7.5c1.07-4.36-.38-8.89-.92-13.35s.28-9.76,4.18-12a18.67,18.67,0,0,0-9.37-7.11c-2.56-.87-5.89-1.16-7.86-3.22-2.57-2.71-.71-3.86-.88-6.67C51,5.47,49.58,4.71,45.85,4.51,40.27,4.22,18.51,11.36,23.6,19.71Z"/><path class="cls-3" d="M121.33,20.87c-.14,1.85.25,3.22,1.86,2.22a14.72,14.72,0,0,1,12.34-1.44L127.9,33.4c-.5.76-1,1.87-.3,2.5a1.91,1.91,0,0,0,1.43.33c3.14-.18,6.22-1.24,9.37-1.07s6.58,2.21,6.74,5.35c.08,1.49-.26,3.55,1.17,4a1.92,1.92,0,0,0,1,0c1.94-.49,3.2-2.38,4-4.24a25.85,25.85,0,0,1,2.05-4.85c.94-1.41,3.58-2.74,4-4.35,1.36-4.75-5.09-7.14-8.34-8.84-2.09-1.09-4.14-2.55-5-4.72-.64-1.56-.65-3.4-1.67-4.73-1.35-1.75-3.89-1.94-6.09-1.77-3.93.31-11.06,1.16-13.5,4.79A14.23,14.23,0,0,0,121.33,20.87Z"/><path class="cls-4" d="M121.48,54a4.69,4.69,0,0,0-.92,3.23c.28,1.34,1.67,2.52,1.22,3.82a7.54,7.54,0,0,0,6.66-1.9,11.08,11.08,0,0,1,2.12-1.94,1.89,1.89,0,0,1,2.54.49,2.39,2.39,0,0,1,.19,1.13c0,2.37-.07,4.75-.27,7.12,0,.85,1,1.4,1.85,1.22a4.08,4.08,0,0,0,2-1.5c1.62-1.9,3.15-4.35,2.44-6.75a14.24,14.24,0,0,1-.92-2.61c-.28-2.72,3.49-4.64,3.14-7.35-.3-2.24-10.9.8-12,1C125.67,50.45,123.85,50,121.48,54Z"/><path class="cls-3" d="M11.51,52a5.84,5.84,0,0,1,2.81-3,3.57,3.57,0,0,1,3.94.58c.41.42.68,1,1.08,1.39,1.53,1.68,4.26,1.29,6.39.5a5.53,5.53,0,0,1,1.89-.47C29,51,30,52,30.9,53A3.12,3.12,0,0,1,32,55.34a2.74,2.74,0,0,1-.66,1.26c-1.85,2.34-4.76,4.64-4.1,7.56.15.66.48,1.27.57,1.94.9,7.35-10.55.89-12.56-1.09C12,61.83,9.5,56.39,11.51,52Z"/><path class="cls-2" d="M134.16,155.45c-.92-1.33-1.49-3.18-.61-4.54s2.87-1.64,4.24-2.62c1.86-1.33,2.37-3.8,2.92-6a2.79,2.79,0,0,1,.73-1.51c.68-.6,1.72-.41,2.63-.4A6,6,0,0,0,148,139c.35-.29.75-.65,1.19-.54a1.13,1.13,0,0,1,.6.5c1.19,1.74.68,4.08.21,6.14s-.74,4.51.74,6c.88.88,2.34,1.45,2.4,2.69,0,1-.85,1.69-1.56,2.36s-1.32,1.81-.68,2.55c.26.32.68.45,1,.73,3.9,3.62-6.73,2-7.45,1.78C140.52,160.21,136.55,158.94,134.16,155.45Z"/><path class="cls-3" d="M146,108.23c-.52,1.82-.79,4,.42,5.42s3.33,1.62,4.48,3,.95,3.15.89,4.82a41.24,41.24,0,0,0,.21,5.88c.17,1.51.59,3.26,2,3.88,1.63.74,3.54-.68,4.17-2.36s.41-3.54.54-5.32a49.28,49.28,0,0,1,1.64-7.37,30.24,30.24,0,0,0,.43-11.53c-.79-.12-1.44.65-2.22.85-1.58.4-2.78-1.7-2.36-3.27s1.7-2.74,2.6-4.09,1.31-3.38.09-4.47a3.76,3.76,0,0,0-3.83.75A4.19,4.19,0,0,0,154,98.13C149.11,99.78,147.39,103.35,146,108.23Z"/><path class="cls-3" d="M8.42,147.73a18.13,18.13,0,0,0-3.68,6.48A7.92,7.92,0,0,0,6,161.31a2,2,0,0,0,.8.63c.78.3,1.64-.26,2.47-.15,1.14.15,1.75,1.51,1.66,2.66s-.65,2.21-.86,3.34a6,6,0,0,0,5.21,6.75c1.63-1.57,2.1-4,2.17-6.25s-.17-4.56.37-6.76,2.15-4.34,4.4-4.63a2.14,2.14,0,0,0,1.12-.31,1.51,1.51,0,0,0,.44-.89c.28-1.26.3-2.57.65-3.81a4.06,4.06,0,0,1,2.32-2.9,9,9,0,0,0-8.38.46,2,2,0,0,1-1.22.45c-.8-.1-1.06-1.12-1.13-1.92l-.51-6C15.37,140.49,8.63,147.47,8.42,147.73Z"/><path class="cls-4" d="M6.45,86.67c1.25-2,3-3.65,4-5.78s1.4-5.07,3.59-6.1,4.92.69,6.28,2.8,2.1,4.64,3.88,6.42a10,10,0,0,1,2.33,2.5c1.09,2.27-.91,4.79-1.13,7.29-.32,3.48,2.82,6.59,2.46,10.07a10.14,10.14,0,0,1-1.56,3.88q-2.61,4.55-5.41,9c-.65,1-1.49,2.18-2.71,2.3a3.61,3.61,0,0,1-2.24-.78A6.78,6.78,0,0,1,12.85,114a11.7,11.7,0,0,1,.37-3.89c.35-2,1.14-8.1-.56-9.7s-2.47.29-4.2-.19C3.27,98.73,3.91,90.71,6.45,86.67Z"/><path class="cls-2" d="M41.17,71.78c2.15-.81,3.06-3.29,4.55-5a2.19,2.19,0,0,1,.89-.68,2.41,2.41,0,0,1,1.47.13l4.63,1.43a2.56,2.56,0,0,1,1.8,1.23,2.43,2.43,0,0,1,0,1.46,33.5,33.5,0,0,1-2.71,7.25c-.91,1.78-2,3.61-1.89,5.61.06.83.33,1.64.34,2.48,0,2.33-4.33,8.54-6.73,9-2.67.54-6.06-3.38-7.1-5.68C33.41,82.4,34.4,74.32,41.17,71.78Z"/><path class="cls-5" d="M82,16.79c-4.22,2.17-8,5.48-9.85,9.86A23.23,23.23,0,0,0,70.67,36,36.2,36.2,0,0,0,73.16,49c1.17,2.85,2.8,5.55,3.38,8.57.73,3.71-.2,7.57-1.68,11.06s-3.49,6.72-5.08,10.15c-.81,1.75-1.53,3.69-1.12,5.57a9.48,9.48,0,0,0,1.73,3.35q4.81,7,10,13.65a3.44,3.44,0,0,0,1.25,1.15c1,.42,2.07-.13,3-.66C87.74,100.07,92.7,98,94.88,95c1.2-1.61,1.57-4.68,2.14-6.59q1.1-3.71,2-7.45a27.49,27.49,0,0,0,1.11-7c0-2.29-.6-4.63-.18-6.88a33,33,0,0,1,2.36-6.25,74.62,74.62,0,0,0,5.4-22.15,29.92,29.92,0,0,0-.07-6.95c-.74-4.92-3.41-9.29-6.13-13.37-2-2.92-3.61-6.69-7.84-5.6A55.44,55.44,0,0,0,82,16.79Z"/><path class="cls-6" d="M101.77,31.85a9.63,9.63,0,0,0-4.9.5c-.82.26-2.83,1.25-2.05,2.39,1.45-.42,2.84-1,4.31-1.38a6.83,6.83,0,0,1,4.1,0,5.19,5.19,0,0,1,1.6,1.06c.24.22.47.46.7.71a4.13,4.13,0,0,0,.64.68s0,0,.08,0c.25.05-.13-.94-.18-1a3.82,3.82,0,0,0-.67-1,6.13,6.13,0,0,0-2-1.39A8.21,8.21,0,0,0,101.77,31.85Z"/><path class="cls-7" d="M78.24,33.16a9.53,9.53,0,0,1,1.15-.62A8.71,8.71,0,0,1,83,32.27a18.48,18.48,0,0,1,5.3,1.67c1.2.53.67-1,.23-1.42a5.09,5.09,0,0,0-2.3-1.28A11.86,11.86,0,0,0,81,31a8.15,8.15,0,0,0-2.67,1.16c-.57.37-1.76,1-2,1.63C76.65,34,77.49,33.59,78.24,33.16Z"/><path class="cls-8" d="M93.9,36.75a2.62,2.62,0,0,0,.33,2.18A3.79,3.79,0,0,0,95.58,40a7,7,0,0,0,4.33,1,2.21,2.21,0,0,0,1.25-.54,5.19,5.19,0,0,0,.58-.81,2.86,2.86,0,0,1,1.37-1,2.83,2.83,0,0,0,1.25-.58,1.89,1.89,0,0,0,.27-1.37,3.85,3.85,0,0,0-.59-2.24,2.82,2.82,0,0,0-1.49-.93A8.86,8.86,0,0,0,97.2,34C95.7,34.53,94.34,35.07,93.9,36.75Z"/><path class="cls-9" d="M103,36.75a4.18,4.18,0,0,1-.42-.31,3.81,3.81,0,0,0-.73-.51,5.21,5.21,0,0,0-1.8-.58,5,5,0,0,0-3.19.69,9.27,9.27,0,0,0-1.27,1l-.7.6a.94.94,0,0,1,.31-.68,5,5,0,0,1,2.69-1.82,5.61,5.61,0,0,1,3,0,3.8,3.8,0,0,1,2.3,1.79A.54.54,0,0,0,103,36.75Z"/><path class="cls-10" d="M97.08,36.73A7.74,7.74,0,0,1,100,36.5a3.49,3.49,0,0,1,1.06.25c.48.22.92.6,1.44.57a1.66,1.66,0,0,0-1.1-1.32,2.83,2.83,0,0,0-2-.27A7.37,7.37,0,0,0,97.08,36.73Z"/><path class="cls-11" d="M99,38.26c-.43,0-.86-.09-1.29-.16L97,38a8.4,8.4,0,0,0-1-.07h-.62A3.94,3.94,0,0,1,97,37a5.79,5.79,0,0,1,2-.36,3.85,3.85,0,0,1,.48,0,3.5,3.5,0,0,1,.88.18,4.18,4.18,0,0,1,.64.31l1.38.74a8.9,8.9,0,0,0-1.54.2,9.47,9.47,0,0,1-1.59.2Z"/><path class="cls-12" d="M99,36.49v.25l.47,0a3.25,3.25,0,0,1,.85.18,3.93,3.93,0,0,1,.62.3l.86.46.14.07c-.38,0-.75.11-1.12.17a7.85,7.85,0,0,1-1.57.2H99c-.42,0-.85-.09-1.27-.15L97,37.87a8.09,8.09,0,0,0-1-.07h-.3a4.86,4.86,0,0,1,1.38-.7,5.47,5.47,0,0,1,2-.36v-.25m0,0a5.72,5.72,0,0,0-2,.38,3.23,3.23,0,0,0-1.87,1.26c0-.07.39-.08.64-.08H96a7.93,7.93,0,0,1,1,.07c.68.09,1.34.22,2,.26h.26c1.09,0,2.14-.4,3.22-.4l.46,0-1.87-1c-.21-.11-.43-.22-.65-.31a3.68,3.68,0,0,0-.92-.19l-.49,0Z"/><path class="cls-13" d="M97.22,37.54a3,3,0,0,0,.16.31c.26.36.75.31,1.15.35s.53,0,.8,0a.68.68,0,0,0,.44-.09c.16-.12.16-.32.22-.5a2.32,2.32,0,0,0,.13-.58.37.37,0,0,0,0-.18c0-.09-.18-.11-.29-.12a11.83,11.83,0,0,0-1.68-.09c-.29,0-1,0-1,.42a1,1,0,0,0,.08.34Z"/><path class="cls-14" d="M98,37.65a.88.88,0,0,0,.4.05.69.69,0,0,0,.39-.1.78.78,0,0,0,.27-.45.4.4,0,0,0,0-.24.24.24,0,0,0-.16-.18.53.53,0,0,0-.25,0,2.52,2.52,0,0,0-.67,0c-.24.05-.41.14-.38.41A.63.63,0,0,0,98,37.65Z"/><path class="cls-15" d="M98.25,37.18a.45.45,0,0,0,.16,0,.32.32,0,0,0,.21-.06.19.19,0,0,0,.07-.16.33.33,0,0,0-.43-.29A.26.26,0,0,0,98.25,37.18Z"/><path class="cls-16" d="M95.93,38.7a.47.47,0,0,0-.41.29.44.44,0,0,0,.09.33,1.4,1.4,0,0,0,.7.49c.19.06.4.09.6.16a6,6,0,0,1,.58.26,8.82,8.82,0,0,0,1.12.41,3,3,0,0,0,.88.18,2.52,2.52,0,0,0,1-.24,1.29,1.29,0,0,0,.69-.54,1.43,1.43,0,0,0,.09-.5.19.19,0,0,0,0-.13.15.15,0,0,0-.12,0,3,3,0,0,0-.84.08,4.68,4.68,0,0,1-1,.1,2.94,2.94,0,0,1-1-.25c-.28-.13-.54-.31-.82-.44A2.26,2.26,0,0,0,95.93,38.7Z"/><path class="cls-17" d="M97.75,35.52a3.27,3.27,0,0,1,1.47-.28c-.48.48-1.31.43-1.81.89a3.82,3.82,0,0,1-.45.45,3.47,3.47,0,0,1-.33.18,4.07,4.07,0,0,0-.55.37l-.47.29-.67.39s-.12,0-.15,0a.11.11,0,0,1,0-.12,4.37,4.37,0,0,1,.49-.56,2.29,2.29,0,0,0,.27-.27,1.6,1.6,0,0,1,.16-.23A4.75,4.75,0,0,1,97.75,35.52Z"/><path class="cls-8" d="M77.3,34.51a2.61,2.61,0,0,0-.57,1,1.11,1.11,0,0,0,.23,1c.39.39,1.05.32,1.52.61a5.34,5.34,0,0,1,.53.41c.64.46,1.51.4,2.21.74.28.14.53.34.81.46a3.28,3.28,0,0,0,1.39.22c1,0,2,0,2.93-.08A2.65,2.65,0,0,0,88,38.35a1.9,1.9,0,0,0,.53-.92,3.4,3.4,0,0,0-.75-3.17,5.63,5.63,0,0,0-3.23-1.46,15.42,15.42,0,0,0-4.23-.25A5.33,5.33,0,0,0,77.3,34.51Z"/><path class="cls-18" d="M82.07,34.25l.25,0a4.22,4.22,0,0,1,3.27.65,6.34,6.34,0,0,1,1,1.06c.07.08.66.89.75.81s0,0,0-.06a5.07,5.07,0,0,0-.61-1.15c-.09-.14-.17-.28-.27-.41-1-1.3-3.1-1.4-4.55-1.16a7.06,7.06,0,0,0-3.18,1.45c-.08.06-.16.16-.11.24A17.3,17.3,0,0,1,82.07,34.25Z"/><path class="cls-10" d="M79.58,35.93a.14.14,0,0,0,0,.06.1.1,0,0,0,.11.07,3.4,3.4,0,0,0,1.59-.44,5.35,5.35,0,0,1,1.42-.34c.15,0,1,.09,1.1-.11s-.57-.6-.75-.66a2.19,2.19,0,0,0-1,0A3.42,3.42,0,0,0,79.58,35.93Z"/><path class="cls-19" d="M85.87,38l-4.06,0a.74.74,0,0,0-.36.06.27.27,0,0,0-.13.32c.09.18.41.14.48.33a3.28,3.28,0,0,0-.75.24s-.07,0-.08.07.07.09.14.1A12.79,12.79,0,0,0,85.25,39a3.6,3.6,0,0,0,1.66-.68.39.39,0,0,0,.15-.21C87.12,37.8,86.07,38,85.87,38Z"/><path class="cls-11" d="M84.4,37.18A13.7,13.7,0,0,1,82.28,37a5,5,0,0,1-.77-.17,4.68,4.68,0,0,1-.45-.2,2.93,2.93,0,0,0-.4-.19c.25-.09.48-.2.72-.31a4.82,4.82,0,0,1,1.29-.45,3.68,3.68,0,0,1,.66-.06h.35a4.66,4.66,0,0,1,2.32.86l.57.42a2.55,2.55,0,0,1,.18.21v0h-.4c-.33,0-.65,0-1,.05s-.61,0-.92,0Z"/><path class="cls-12" d="M83.34,35.7h.33a4.47,4.47,0,0,1,2.25.83l.32.23.24.18h-.12c-.33,0-.67,0-1,0s-.61,0-.91,0H84.4a13.27,13.27,0,0,1-2.1-.22,4.79,4.79,0,0,1-.75-.17,2.86,2.86,0,0,1-.44-.2L81,36.4l.45-.2a4.87,4.87,0,0,1,1.26-.45,3.49,3.49,0,0,1,.65,0m0-.25a3.87,3.87,0,0,0-.69,0,12.74,12.74,0,0,0-2.11.8,3.65,3.65,0,0,1-.55.13h.16c.5,0,.85.32,1.32.48a5,5,0,0,0,.79.17,13,13,0,0,0,2.14.23h.06c.64,0,1.27-.1,1.9-.1a4.36,4.36,0,0,1,.72,0c-.06,0-.34-.42-.44-.49l-.57-.42a4.7,4.7,0,0,0-2.38-.88Z"/><path class="cls-20" d="M82.1,36.67a1.38,1.38,0,0,0,.89.51,4.11,4.11,0,0,0,1.05,0,1.23,1.23,0,0,0,.39-.07.83.83,0,0,0,.43-.47A2.29,2.29,0,0,0,85,36a.37.37,0,0,0,0-.21.38.38,0,0,0-.23-.16,4.89,4.89,0,0,0-1.41-.32,2,2,0,0,0-1.26.31A.8.8,0,0,0,82.1,36.67Z"/><path class="cls-21" d="M82.56,35.93a.44.44,0,0,0,.13.39.72.72,0,0,0,.37.21,1.23,1.23,0,0,0,.86-.11.32.32,0,0,0,.16-.14.42.42,0,0,0,0-.15.56.56,0,0,0-.07-.38.5.5,0,0,0-.29-.14C83.48,35.57,82.63,35.56,82.56,35.93Z"/><path class="cls-22" d="M83.36,35.75a.17.17,0,0,0-.19.12.2.2,0,0,0,.11.2.29.29,0,0,0,.24,0l.08,0a.17.17,0,0,0,0-.23.29.29,0,0,0-.24-.06"/><path class="cls-12" d="M101.87,37.77c.3-.05.52-.07.78-.09a1.48,1.48,0,0,0,.69-.36h0a1.38,1.38,0,0,1-.65.54.76.76,0,0,1-.84-.08Z"/><path class="cls-12" d="M100.57,36.93a.38.38,0,0,0,.13-.12,1.31,1.31,0,0,1,.12-.13c.09-.08.18-.22.28-.32h0a2.45,2.45,0,0,1-.15.43c0,.08-.06.16-.14.21s-.23,0-.28-.06Z"/><path class="cls-12" d="M101.44,37.38a1,1,0,0,1,.44-.14.79.79,0,0,0,.39-.26h0a.75.75,0,0,1-.32.43.38.38,0,0,1-.53,0Z"/><path class="cls-12" d="M100.14,36.82c0-.06,0-.09.06-.13a.36.36,0,0,1,.11-.1,1.29,1.29,0,0,0,.2-.25h0a.77.77,0,0,1-.07.36.39.39,0,0,1-.1.16c-.06,0-.18.07-.24,0Z"/><path class="cls-12" d="M101.26,37.29l0,0,0,0c.08,0,.11-.07.17-.09l.19-.06a1.1,1.1,0,0,0,.35-.24h0a.89.89,0,0,1-.27.4.54.54,0,0,1-.22.13.26.26,0,0,1-.27-.08l0,0h0l0,0Z"/><path class="cls-12" d="M80.58,36.48a.61.61,0,0,1-.65-.06.9.9,0,0,1-.43-.51h0a1,1,0,0,0,.48.34,1.14,1.14,0,0,1,.57.21Z"/><path class="cls-12" d="M81.25,36a.36.36,0,0,1-.53-.13.59.59,0,0,1-.08-.54h0a.54.54,0,0,0,.2.4,3.19,3.19,0,0,1,.38.24Z"/><path class="cls-12" d="M81.67,35.76a.37.37,0,0,1-.39-.33.89.89,0,0,1,0-.51h0a.93.93,0,0,0,.16.41.74.74,0,0,1,.22.4Z"/><path class="cls-12" d="M82.61,35.45c-.08-.14-.08-.19,0-.27a.86.86,0,0,0,0-.28h0a.5.5,0,0,1,.16.28.21.21,0,0,1-.15.3Z"/><path class="cls-23" d="M94.5,46.86l-.65.19a6.18,6.18,0,0,1-2.74,0,.67.67,0,0,1-.34-.13c.12-.05,0-.24,0-.33s-.25-.17-.23-.3a.37.37,0,0,1,.07-.14.88.88,0,0,1,1-.23,1,1,0,0,0,.53.18c.14,0,.24-.14.35-.23a1.58,1.58,0,0,1,1-.38,4.25,4.25,0,0,1,1.07,0c.31.09.73.52,1.06.37S96,45,96,44.64a2.25,2.25,0,0,0-.08-.52,4.14,4.14,0,0,0-.19-.49l-.34-.76L96,44.18a1.65,1.65,0,0,1,.2,1.41,2.71,2.71,0,0,1-1.09,1A2.81,2.81,0,0,1,94.5,46.86Z"/><path class="cls-24" d="M88.69,45.54a2.4,2.4,0,0,1,1.09.33l.14.25a.34.34,0,0,1-.2,0,9.34,9.34,0,0,1-1.28-.25,4.11,4.11,0,0,0-1-.17C87.68,45.44,88.37,45.52,88.69,45.54Z"/><path class="cls-25" d="M93.76,46l.25-.08a1.25,1.25,0,0,1,.43,0,.54.54,0,0,1,.36.23.2.2,0,0,1,0,.11c0,.2-.7.07-.85.09a2.61,2.61,0,0,0-1,.37.47.47,0,0,1-.34.1s.48-.5.55-.54A2.42,2.42,0,0,1,93.76,46Z"/><path class="cls-26" d="M92.6,38.65a6.63,6.63,0,0,1-.5,3.7c-.19.34-.44.74-.24,1.06a.84.84,0,0,0,.44.29l1,.44a.72.72,0,0,0,.43.08c.33-.07.39-.5.37-.84a43.53,43.53,0,0,0-.51-4.82c0-.28-.15-2-.68-1.83S92.57,38.29,92.6,38.65Z"/><path class="cls-27" d="M86.7,44.74a.26.26,0,0,0,0,.15A.31.31,0,0,0,87,45c.89.06,1.71-.57,2.6-.5.31,0,.68.12.88-.12s.06-.57-.1-.82a4.15,4.15,0,0,0-.3-.43.68.68,0,0,0-.2-.18.57.57,0,0,0-.26,0,3.17,3.17,0,0,0-1.74.4C87.4,43.59,86.68,44.15,86.7,44.74Z"/><path class="cls-28" d="M94.15,43.82a1.27,1.27,0,0,1-.34.27c-.12,0-.26,0-.37.06a.43.43,0,0,0-.12.64,1.07,1.07,0,0,0,.64.35,2.14,2.14,0,0,1,.7.23c.18.12.34.32.55.31a.45.45,0,0,0,.35-.23,1.13,1.13,0,0,0,.11-.83C95.51,44,94.83,43.25,94.15,43.82Z"/><path class="cls-29" d="M87,42.28a6.91,6.91,0,0,0-.78.36,7.57,7.57,0,0,0-.87.92,15.44,15.44,0,0,1-2.49,1.92,3.8,3.8,0,0,1-1.35.67,6.37,6.37,0,0,0-.63.1,1.85,1.85,0,0,0-.72.41,2,2,0,0,0-.68,1,2.53,2.53,0,0,0,.83,2.12,3.37,3.37,0,0,1,1.1,2c0,.18,0,.42.19.45s.28-.16.33-.32l.61-1.78a5.7,5.7,0,0,1,.83-1.74c.39-.47.92-.81,1.27-1.31a5.75,5.75,0,0,0,.59-1.42,9.62,9.62,0,0,1,2-3.38"/><path class="cls-30" d="M95.42,42.53a.36.36,0,0,0-.31.34.7.7,0,0,0,.1.34A5.71,5.71,0,0,1,96,46c-.07.9-.52,1.84-.14,2.66A3.33,3.33,0,0,0,97,49.86a2.14,2.14,0,0,1,1,1.3c.08.67-.42,1.37-.17,2a.89.89,0,0,0,.48-.42,7.54,7.54,0,0,1,2-2.3,3.6,3.6,0,0,0,1.67-2,2.72,2.72,0,0,0-.1-1.2,2,2,0,0,0-.36-.77,3.42,3.42,0,0,0-1.46-.86,14.08,14.08,0,0,1-3.46-2.37C96.39,43.11,95.68,42.49,95.42,42.53Z"/><path class="cls-31" d="M84.52,45.86A7.56,7.56,0,0,0,86.6,43a26.9,26.9,0,0,0-2.33,2.56c-.78.81-1.61,1.58-2.36,2.43a2.34,2.34,0,0,0-.47.69,2.16,2.16,0,0,0,0,1,8.24,8.24,0,0,0,.46,1.9,10.26,10.26,0,0,1,1.4-4.28A14.41,14.41,0,0,1,84.52,45.86Z"/><path class="cls-32" d="M98,47.34a5.44,5.44,0,0,1,.92,2.9.48.48,0,0,0,.08.38.32.32,0,0,0,.48-.14.92.92,0,0,0,0-.57,13.29,13.29,0,0,0-.89-3,5.74,5.74,0,0,0-1.13-1.7c-.17-.17-.79-.83-1.06-.77s.24.79.37,1C97.12,46.1,97.56,46.7,98,47.34Z"/><path class="cls-33" d="M87.66,46.5l0,0c.13.08.28.13.41.21.48.28.66.87,1,1.33a2.58,2.58,0,0,0,3.34.74,7,7,0,0,0,2.51-2.09,7,7,0,0,1-3.32.61A7.48,7.48,0,0,1,89.35,47c-.64-.24-1.2-1.11-1.93-.78A.53.53,0,0,0,87.66,46.5Z"/><path class="cls-34" d="M77.81,39.5A2,2,0,0,0,76.24,41a4.45,4.45,0,0,0,.19,2.31,2.4,2.4,0,0,0,.93,1.5,2.07,2.07,0,0,0,2-.21c.61-.38,1.12-.9,1.75-1.25,1.11-.6,2.54-.62,3.45-1.51a.88.88,0,0,0,.3-.93c-.15-.34-.59-.42-1-.45a25,25,0,0,1-3.46-.31C79.59,40,78.75,39.41,77.81,39.5Z"/><path class="cls-35" d="M96.57,41.07a2.51,2.51,0,0,0-1.7-.24c.31.74,1.1,1.14,1.69,1.68s1,1.31,1.7,1.82a4.84,4.84,0,0,0,2.49.83A3.3,3.3,0,0,0,102.4,45a3.67,3.67,0,0,0,1.42-1.4,4,4,0,0,0,.92-2.94.31.31,0,0,0-.09-.21.34.34,0,0,0-.28-.07,4.71,4.71,0,0,0-2.07.8,7.29,7.29,0,0,1-2,.85,4.61,4.61,0,0,1-2.09,0C97.56,41.86,97.13,41.35,96.57,41.07Z"/><path class="cls-33" d="M85.16,57c-.84-.53-1.62-1.15-2.43-1.71-.37-.26-1.51-1-1.52-.1A6.33,6.33,0,0,0,82,57.51a4.52,4.52,0,0,0,1.4,1.75A5.88,5.88,0,0,0,85,60a31.81,31.81,0,0,0,5.47,1.13,8.32,8.32,0,0,0,2.11.12,6.85,6.85,0,0,0,3.7-2,4.77,4.77,0,0,0,1.2-1.56,22.11,22.11,0,0,1,.63-2.19,13.24,13.24,0,0,1-2.49,1.86,12.48,12.48,0,0,1-5.49,1,10.92,10.92,0,0,1-1.81-.07A8,8,0,0,1,85.16,57Z"/><path class="cls-36" d="M98.11,58a2.29,2.29,0,0,1-.25,1.49,4.84,4.84,0,0,1-1,1.21,6.28,6.28,0,0,1-2.51,1.78.45.45,0,0,1,.19-.37,2.88,2.88,0,0,1,.38-.22c.63-.39.91-1.24,1.37-1.81S97.55,58.7,98.11,58Z"/><path class="cls-37" d="M94.3,50l-5.45-.21c-1,0-1.94-.1-2.91-.11a17.5,17.5,0,0,0-3-.09.38.38,0,0,0-.26.13.28.28,0,0,0,.07.32,1,1,0,0,0,.32.16,7,7,0,0,1,1.52,1.08,11.7,11.7,0,0,0,6.18,2.11,7.26,7.26,0,0,0,3.39-.55,10.63,10.63,0,0,0,2.63-2c.11-.11.23-.23.23-.37A6.07,6.07,0,0,0,94.3,50Z"/><path class="cls-38" d="M91.14,50.51a1.15,1.15,0,0,1,.46-.1,1.27,1.27,0,0,1,.63.2c.29.21.3.36.29.7l0,.76c0,.31,0,.66-.3.82a.83.83,0,0,1-.44.09h-.63c-.21,0-.45,0-.55-.21a.5.5,0,0,1,0-.27,4.91,4.91,0,0,1,.09-1.38A1,1,0,0,1,91.14,50.51Z"/><path class="cls-38" d="M94.34,50.37a.43.43,0,0,1,.23-.1.25.25,0,0,1,.21.11.34.34,0,0,1,0,.14,5.79,5.79,0,0,1-.23,1.76.5.5,0,0,1-.09.21.2.2,0,0,1-.19.08.3.3,0,0,1-.18-.21,3.66,3.66,0,0,1-.25-.7A1.36,1.36,0,0,1,94.34,50.37Z"/><path class="cls-38" d="M88.7,50.42l0,0a1,1,0,0,1,.72-.29c1.21,0,1.4,1.69,1.08,2.54a.41.41,0,0,1-.12.19.45.45,0,0,1-.28.09c-.32,0-.64,0-1,0a.8.8,0,0,1-.89-1A2.71,2.71,0,0,1,88.7,50.42Z"/><path class="cls-38" d="M93.14,50.51a.45.45,0,0,1,.54.1.51.51,0,0,1,.1.21,3,3,0,0,1,.13,1c0,.39,0,.86-.52,1a1.08,1.08,0,0,1-.31,0h-.31a.49.49,0,0,1-.44-.17.39.39,0,0,1,0-.24C92.31,51.75,92.46,50.82,93.14,50.51Z"/><path class="cls-38" d="M95.19,50.39a.62.62,0,0,0,.15.25.19.19,0,0,0,.27,0,.53.53,0,0,0,.06-.1.08.08,0,0,1,.1,0,.11.11,0,0,1,0,.07,2.08,2.08,0,0,1-.1.86,1.24,1.24,0,0,1-.52.67.44.44,0,0,1-.37.07.35.35,0,0,1-.21-.27.87.87,0,0,1,0-.36,2.48,2.48,0,0,1,.18-.66C94.83,50.8,95.2,50.42,95.19,50.39Z"/><path class="cls-38" d="M87.65,50a.49.49,0,0,1,.32.12.91.91,0,0,1,.24.36c.23.5.5,1.8-.31,2a1.48,1.48,0,0,1-.59,0,.64.64,0,0,1-.33-.13.61.61,0,0,1-.12-.37,3,3,0,0,1,.12-1.3A1,1,0,0,1,87.65,50Z"/><path class="cls-38" d="M85.2,49.71a.46.46,0,0,0-.28.25.92.92,0,0,0-.09.37,1.94,1.94,0,0,0,.17.92.49.49,0,0,0,.24.27.38.38,0,0,0,.41-.12,1.16,1.16,0,0,0,.2-.4c.09-.27.22-.64.05-.9A.86.86,0,0,0,85.2,49.71Z"/><path class="cls-38" d="M86.69,49.94a1,1,0,0,1,.19.34,2.07,2.07,0,0,1,.18.88,1,1,0,0,1-.41.76.71.71,0,0,1-.55.11.64.64,0,0,1-.43-.34,1.1,1.1,0,0,1-.06-.26,2.33,2.33,0,0,1,.1-1.31A.65.65,0,0,1,86.69,49.94Z"/><path class="cls-38" d="M84.85,50a4,4,0,0,1,.23.84.28.28,0,0,1,0,.18c-.24.54-1-.31-1-.63C84,49.83,84.6,49.28,84.85,50Z"/><path class="cls-39" d="M97.7,50.47a14.41,14.41,0,0,0-3-.84,7.1,7.1,0,0,0-1.84-.18,16.71,16.71,0,0,1-2,.11c-.4,0-.79-.08-1.19-.14a21.19,21.19,0,0,0-7.45.06l0,0s0,.06,0,.07a2.45,2.45,0,0,0,1.11.32c.43,0,.86-.14,1.3-.18a19.77,19.77,0,0,1,3,0c2,.16,4,.42,6,.42a8.86,8.86,0,0,1,1.63,0l2.9.48A3.55,3.55,0,0,0,97.7,50.47Z"/><path class="cls-40" d="M88.25,53a9.79,9.79,0,0,1-2.76-1.08A9.49,9.49,0,0,1,84.24,51a1.87,1.87,0,0,1-.48-.45c-.18-.29-.22-.78-.57-.91a5,5,0,0,0-.9-.13,7.18,7.18,0,0,0,1.6,2.91,10,10,0,0,0,2.33,1.65,6.7,6.7,0,0,0,1,.47,7.39,7.39,0,0,0,1.55.26,11.45,11.45,0,0,0,5.53-.37,9.52,9.52,0,0,0,3-2.23,1.71,1.71,0,0,0,.67-1.4.32.32,0,0,0-.19-.26.36.36,0,0,0-.15,0c-.67,0-.77.3-1.21.72a8,8,0,0,1-1.16.84c-.43.26-.92.39-1.37.61a6.7,6.7,0,0,1-1,.43,6.46,6.46,0,0,1-2.48.11A15.66,15.66,0,0,1,88.25,53Z"/><path class="cls-41" d="M86.3,53.8a12.24,12.24,0,0,0,4.38.72,10.91,10.91,0,0,0,2.79-.26A5.37,5.37,0,0,0,95.92,53a.58.58,0,0,0,.23-.42l-1.42.6c-.39.17-.79.34-1.19.47a7.69,7.69,0,0,1-1.25.25,12.53,12.53,0,0,1-4.3-.39A9.91,9.91,0,0,1,86.38,53a7.12,7.12,0,0,1-1.82-1c-.11-.09-1-1-1.07-1l0,0a1,1,0,0,0,.18.81A3.5,3.5,0,0,0,84.7,53,8.14,8.14,0,0,0,86.3,53.8Z"/><path class="cls-42" d="M96.25,50.3l0,0c.55,0,.94.07,1.49.14,0,.08-.08.12-.16.14a2.53,2.53,0,0,0-1,.4,3.5,3.5,0,0,0-.24.3,2.13,2.13,0,0,1-.74.59,3.71,3.71,0,0,0,.49-.56,1.11,1.11,0,0,0,.18-.38.53.53,0,0,0-.06-.41.34.34,0,0,1-.09-.15C96.09,50.34,96.2,50.27,96.25,50.3Z"/><path class="cls-43" d="M82.73,49.79a.68.68,0,0,1,.68.27,1.63,1.63,0,0,0,.57.51h0c.09,0,.09-.13.08-.21-.06-.33.23-.69-.15-.83A2,2,0,0,0,82.73,49.79Z"/><path class="cls-44" d="M85.66,44.91a9.64,9.64,0,0,1,1-2.28,3.81,3.81,0,0,1,0,1c0,.25-.08.5-.12.75a1.13,1.13,0,0,0,.19,1c.14.14.32.21.39.39C86.59,45.67,85.46,45.73,85.66,44.91Z"/><path class="cls-45" d="M73.57,32.18a8.71,8.71,0,0,0-1,2.92,26.91,26.91,0,0,0-.08,6.53l.18,2.47c.11,1.54.23,3.09.45,4.62l.68-3.33a13,13,0,0,0,.35-2.69,19.32,19.32,0,0,0-.48-3.2A20.46,20.46,0,0,1,73.57,32.18Z"/><path class="cls-46" d="M84.31,61.66c3.13,1.18,6.61,1.9,9.79.9a14.94,14.94,0,0,0,2.32-1A11.38,11.38,0,0,0,98.86,60c.64-.57,1.1-1.44,1.87-1.84-.2.1-.34.75-.49,1a7.83,7.83,0,0,1-.81.82,10.26,10.26,0,0,1-2,1.67A14,14,0,0,1,85.76,63a27.69,27.69,0,0,1-3.92-1.78l-1.9-1a7.54,7.54,0,0,1-2.12-1.43c-.38-.41-1.5-1.92-1.07-2.44A16.44,16.44,0,0,0,84.31,61.66Z"/><path class="cls-47" d="M74.12,45.74a6,6,0,0,0,.48,2.54,6.22,6.22,0,0,0,1.5,2,6,6,0,0,1,1,1.07c.34.54.45,1.18.74,1.74.18.34.72,1.17,1.16,1.2s.42-.69.34-1.15A23,23,0,0,0,77.89,48a7,7,0,0,0-1.76-2.48c-.54-.51-1.77-.86-2,.14C74.13,45.66,74.13,45.7,74.12,45.74Z"/><path class="cls-33" d="M85.68,64.46a4.92,4.92,0,0,0-2.22.51c-1.41.84-1.65,2.78-1.45,4.41s.67,3.32.12,4.86c-.65,1.84-2.64,3-3,5A6.37,6.37,0,0,0,80,83c.79,1.78,2,3.85,4,3.76,1.55-.07,2.63-1.51,3.76-2.57s2.7-2,3.85-3.15a16.18,16.18,0,0,0,3.13-5.93c.62-1.74,1.55-3.35,2.21-5.08.77-2,.41-4.09,1.16-6.13.37-1,.91-2.08.49-3.06-.22,0-.35.23-.43.44-.7,1.88-4.46,2.63-6.18,2.67C89.83,63.94,87.81,64.3,85.68,64.46Z"/><path class="cls-8" d="M81.18,60.62c-.81-.46-1.6-.95-2.44-1.41-.46-.25-1.59-.84-1.56-1.52a1.7,1.7,0,0,0,.11.58c.18.61.09,1.27.21,1.91,1.13,6,3.66,13.45.23,19.2-1,1.64-2.26,3.08-3.35,4.65a2.65,2.65,0,0,0-.56,1.23c-.15,1.8,1.71,1.06,2.5.49a9.1,9.1,0,0,0,2.45-3,47.23,47.23,0,0,1,2.44-4.55,6.11,6.11,0,0,1,3.48-2.63c1.55-.32,3.26.08,4.84-.28a6.87,6.87,0,0,0,3.89-2.88c.19-.28.36-.71.09-.91a.61.61,0,0,0-.33-.1c-1.72-.16-3.34,1-5.06.92a7.86,7.86,0,0,1-2-.4,3.9,3.9,0,0,1-2.35-1.36,3.85,3.85,0,0,1-.43-1.42c-.15-1-.29-2-.4-3a1,1,0,0,1,.15-.81c.26-.26.69-.15,1,0a14.12,14.12,0,0,0,3.18.39l2.09.09a5.75,5.75,0,0,0,4.7-1.28A53.61,53.61,0,0,0,98.79,61,3.62,3.62,0,0,0,100,59.5c-2.34,1.81-4.82,3.75-7.86,4a16.4,16.4,0,0,1-8-1.44A22.27,22.27,0,0,1,81.18,60.62Z"/><path class="cls-48" d="M80.7,63.37a.09.09,0,0,0,0-.06.57.57,0,0,0,0-.13c0-.31,0-.59-.39-.69a.23.23,0,0,0-.14,0c-.39.05-.33.6-.08.77a1,1,0,0,0,.46.17h.06A.1.1,0,0,0,80.7,63.37Z"/><path class="cls-49" d="M44.88,79.3a23.47,23.47,0,0,0-4.3,6.18c-2.43,5-3.19,10.62-3.92,16.14l-2.13,16.15a72.27,72.27,0,0,0-.92,13c.19,3.8,1,7.55,1.08,11.35.15,5.18-1,10.28-1.7,15.39C32.34,162,31.4,168,32.74,172.4a4.3,4.3,0,0,0,2.33,2.82c.84.34,1.88.36,2.47,1.05.38.44.49,1.09.93,1.48a2.42,2.42,0,0,0,1.59.37l6.14,0a9.25,9.25,0,0,0,3-.32,17.38,17.38,0,0,0,5.43-3.54,3,3,0,0,0,.68-.78,4.62,4.62,0,0,0,.19-2.64,15.38,15.38,0,0,1,0-1.92c.64-10.39.59-20.64.46-31.06,2.36,5.42,4.78,11.17,4,17-.7,5.42-2.94,10.23-3.11,15.8-.05,1.46,0,3.08,1,4.15,1.26,1.34,3.39,1.25,5.23,1.08,8.64-.79,17.32-.94,26-.89,2.69,0,5.36-.39,8-.35,1.53,0,7.65.35,8.27,2.05.25.69-.42,1.35-.54,2.07a1.88,1.88,0,0,0,1.32,1.91,5.35,5.35,0,0,0,2.49.1c3.53-.46,7.06-1.18,10.63-1,2.94.1,5.87.78,8.81.54,2.13-.18,4.54-1.19,5-3.28s1.69-3.52,2-5.53c.4-2.59.73-5.21,1.3-7.83,4.14-19.14,2.9-39,1.64-58.51-.43-6.53-.86-13.11-2.65-19.39-1-3.69-2.68-7.42-5.77-9.68a21.29,21.29,0,0,0-7.22-3c-2.15-.59-4.43-1.17-6.56-.56-6.35,1.8-9.59,10.37-13.57,15a69.27,69.27,0,0,1-16.81,14.13,3.71,3.71,0,0,1-2,.72,3.81,3.81,0,0,1-2.36-1.46A112.27,112.27,0,0,1,68.84,85.61c-3-4.42-7.49-9.23-12.53-11.28C52.42,72.75,47.55,76.59,44.88,79.3Z"/><path class="cls-50" d="M39.82,89.14c0,.32-.08.63-.15,1-.49,2.45-1.43,4.68-.49,7.17.72,1.93,2.42,3.56,2.4,5.62,0,1.28-.71,2.44-1,3.68a11,11,0,0,0,.42,6.12c1.71,5.61,5.2,10.48,7.69,15.79,3,6.45,4.56,13.49,6.83,20.24a37.83,37.83,0,0,1,.1-9.39,17.44,17.44,0,0,0,.26-3,14.09,14.09,0,0,0-1-4.07,59.83,59.83,0,0,1-3.52-14.07,20,20,0,0,0-.91-5.57c-.81-2-1.08-2.64-.52-4.61a26.6,26.6,0,0,0,.69-7c0-5-.57-9.91.05-14.84.24-2,.67-3.88,1-5.82a1,1,0,0,0-.08-.83c-.22-.27-.64-.24-1-.17-3.75.77-8.13,3.21-10,6.69A8.29,8.29,0,0,0,39.82,89.14Z"/><path class="cls-51" d="M55.8,136.08a14.65,14.65,0,0,0,1.28,2.53l2.11,3.57c.16.28.4.59.72.54-1-3.31-3.35-5.92-4.64-9.08-1.36-3.33-1.42-7.07-3-10.34a73.46,73.46,0,0,0,2.12,9.8,23.71,23.71,0,0,1,.7,9.93A14.33,14.33,0,0,1,52,137.14c-.63-2.15-1-4.36-1.73-6.49-.79-2.43-2-4.72-2.88-7.11a34.48,34.48,0,0,1-1.28-4,12.44,12.44,0,0,0-.68-2.75c-.45,1.13-.18,2.85-.07,4a24.46,24.46,0,0,0,2.2,7.52c1.37,3.09,3,6.07,4.12,9.27.33,1,.61,2,.88,3L55.16,150c.93-4.71,1.86-9.6.67-14.25-.32-1.26-.79-2.47-1.15-3.72-.06-.19-.11-.38-.16-.58"/><path class="cls-50" d="M69.71,150.61a12,12,0,0,1-.18-2.16c0-1.15.28-2.3.21-3.46a3.23,3.23,0,0,0-1.65-2.85c-2,1.48-2.25,4.31-2.34,6.78-.1,2.69,0,5.46-.15,8.13s-1.08,5-.94,7.74c.12,2.35.41,5.7,1.48,7.82a3.47,3.47,0,0,0,.74,1c1,.89,2.62.67,3.74,1.41a3.66,3.66,0,0,0,.81.51.67.67,0,0,0,.84-.25,1,1,0,0,0,0-.39,82.27,82.27,0,0,0-1.06-10.72c-.61-4.33-.82-8.71-1.47-13C69.76,151,69.74,150.79,69.71,150.61Z"/><path class="cls-50" d="M41.56,142.34a3.58,3.58,0,0,0-.38,2.43c.31,2,1.61,3.59,2.75,5.21a52.14,52.14,0,0,1,8,19.2c.37,1.71.89,3.7,2.51,4.33a63.13,63.13,0,0,0,1.65-10.77,11.9,11.9,0,0,0-.11-3.32,14.54,14.54,0,0,0-2.65-5,91.82,91.82,0,0,1-6-9.83C46.41,142.81,43.52,139.23,41.56,142.34Z"/><path class="cls-50" d="M111.62,89.74a32.4,32.4,0,0,0,0,9,65,65,0,0,1,1,7c.12,3.84-1.11,7.74-.19,11.47.56,2.27,1.86,4.28,2.7,6.46,2.54,6.61.53,14.08-2.38,20.54s-6.74,12.64-8,19.61a29.31,29.31,0,0,0,.86,13.67,46,46,0,0,1,.87-7.32,45.92,45.92,0,0,1,3.11-8.46,164.11,164.11,0,0,1,7.85-16.11c1.16-2,2.41-4,3.41-6.06a56.08,56.08,0,0,0,2.37-6.17l5.69-16.66c-1.45.24-2.47,1.53-3.28,2.76a47.85,47.85,0,0,0-4.68,9.08c-.51,1.32-1.29,2.9-2.7,2.9l4.3-14.85c2.34-8.08,4.69-16.23,5.37-24.62a10.52,10.52,0,0,0-7.69-11.06C115,79.44,112.13,85.68,111.62,89.74Z"/><path class="cls-50" d="M63.87,100.49a52.4,52.4,0,0,0-2,9.09,22.31,22.31,0,0,0,0,7.11,10.4,10.4,0,0,0,3.4,6.1c1.51,1.23,2.71,1.1,4.42.62s3.37.17,5-.29a3.5,3.5,0,0,0,1.18-.68,16.88,16.88,0,0,0,3.68-4,4,4,0,0,0,.87-2.84,9.16,9.16,0,0,0-.89-1.94,9.88,9.88,0,0,1-.58-3.63c-.22-4.11-.88-13.75-5.55-15.4S65.16,96.5,63.87,100.49Z"/><path class="cls-51" d="M115.34,116.81c-.08,3.11-.09,6.22-.1,9.33l0,13.35,0,9.45c2-3.4.23-7.72.68-11.63.15-1.25.52-2.46.73-3.7a27.84,27.84,0,0,0,.26-4.65q0-6,0-12.08c0-3.89.44-8.16-.14-12C115.44,108.58,115.44,112.93,115.34,116.81Z"/><path class="cls-50" d="M83.33,106.56c-1.31,1.46-2.59,3.19-2.51,5.15.08,2.31,2,4.19,2.34,6.48a18.28,18.28,0,0,0,.22,2.09,5,5,0,0,0,3.32,3,27.2,27.2,0,0,1,4.38,1.59c2.19,1.27,3.82,3.88,6.36,3.89a6.31,6.31,0,0,0,2.2-.52,13.52,13.52,0,0,0,5.36-3.34,6.35,6.35,0,0,0,1.59-5.9,11.73,11.73,0,0,1-.52-1.69c0-.45,0-.89,0-1.34-.12-2.57-2.81-4.18-3.91-6.5-.61-1.28-.73-2.8-1.59-3.92a6.74,6.74,0,0,0-2.88-1.93,30.1,30.1,0,0,1-3.75-1.81c-1.1-.69-2-2-3.32-1.77C88.2,100.54,84.89,104.81,83.33,106.56Z"/><path class="cls-52" d="M35.05,115.94a8.14,8.14,0,0,0,.25,2.41c.54,1.78,2.14,3,3.45,4.33,7.08,7.21,6.64,19.61,14,26.58-1.8-13.82-10.41-26.1-12-40-.26-2.33-.62-8.1-3.69-5.4C34.69,106,35.05,113.13,35.05,115.94Z"/><path class="cls-52" d="M66.53,137.23a45,45,0,0,0,1.87,8.91,134.77,134.77,0,0,1,3.68,19c1.69-2,1.68-4.82,1.57-7.41q-.5-10.68-1.53-21.31c-.19-1.88.08-6.84-3-6.4C66.36,130.39,66.42,135.25,66.53,137.23Z"/><path class="cls-52" d="M119.34,75.77a3.44,3.44,0,0,0,1.39,3c.88.74,1.94,1.23,2.88,1.9,4,2.91,4.83,8.51,5.28,13.47.35,3.95.69,8.06-.78,11.75-1.39,3.51-4.4,6.89-3.36,10.52a1.82,1.82,0,0,0,2.36-.23,5.14,5.14,0,0,0,1.21-2.28,138.58,138.58,0,0,0,4.93-20.29,102.38,102.38,0,0,1,1.19,14.11,5.68,5.68,0,0,0,.47,2.72,1.91,1.91,0,0,0,2.34,1,2.71,2.71,0,0,0,1.15-2.06,45.2,45.2,0,0,0-.68-20.43,24.1,24.1,0,0,0-5.31-10.43C130.76,76.74,120.13,70.74,119.34,75.77Z"/><path class="cls-53" d="M38.57,138a2.23,2.23,0,0,1,.56-1.71l.23,2.26a5.45,5.45,0,0,0,1.3-2.13,1.4,1.4,0,0,1,.27-.58.44.44,0,0,1,.58-.08c.18.17.1.48,0,.7A29.44,29.44,0,0,1,40,139.62c1.4,0,2.48-1.4,3.88-1.49a.4.4,0,0,1,.32.08c.21.21-.1.51-.37.63-1.16.51-2.34,1-3.53,1.45a1.87,1.87,0,0,0-.73.41,2,2,0,0,0-.35.88c-.19,1-.34,2-.59,2.93-.56-.27-.16-2.34-.14-2.89Z"/><path class="cls-54" d="M39.2,148c0-.06,0-.13,0-.16s.13,0,.16.09c.22.36,1.81,2.47,1.11,2.61S39.32,148.44,39.2,148Z"/><path class="cls-55" d="M36.54,145.61a.55.55,0,0,1-.63-.27,1.92,1.92,0,0,0-.14-.29c-.17-.22-.57-.1-.71.15a1,1,0,0,0,0,.8,2.79,2.79,0,0,0,.44.69,1.35,1.35,0,0,0,.41.38.53.53,0,0,0,.53,0c.27-.16.27-.53.24-.83l0-.42c0-.14-.07-.32-.21-.32"/><path class="cls-56" d="M35,154.65a5.25,5.25,0,0,0-.84,2c0,.08,0,.19.07.2s.06,0,.09,0a1.64,1.64,0,0,0,.44-.63,1.76,1.76,0,0,1,.88-1,2.2,2.2,0,0,0,.44-.12.46.46,0,0,0,0-.84C35.72,154,35.26,154.33,35,154.65Z"/><path class="cls-54" d="M43,161a9.86,9.86,0,0,0,0-3,8,8,0,0,0-1.48-3.07,2.8,2.8,0,0,1-.3-.49,2.17,2.17,0,0,1,0-1.26.36.36,0,0,1,0-.09c.08-.08.21,0,.29.08a2.73,2.73,0,0,1,.64.87,7.49,7.49,0,0,1,.18.79,6.33,6.33,0,0,0,.61,1.29,12.11,12.11,0,0,1,1,3,11.47,11.47,0,0,1,1.83-1.58,3.79,3.79,0,0,1,2.27-.66c-.87.62-1.82,1.13-2.66,1.79a4.94,4.94,0,0,0-1.87,2.55,7.11,7.11,0,0,0-.09,2.21c0,.39.25,1.76-.29,1.89C42.5,165.45,43,161.52,43,161Z"/><path class="cls-57" d="M41.45,174.5c.14.07.3-.13.26-.29a1.08,1.08,0,0,0-.28-.4,1,1,0,0,1-.23-.66l.38.11a5.71,5.71,0,0,0,0-1.49,1.35,1.35,0,0,1,.59-1.28,19,19,0,0,0,.45,2.59.59.59,0,0,0,.42-.26.72.72,0,0,1,.29.63,2,2,0,0,1-.17.71l.65-.23a.22.22,0,0,1,.16,0c.06,0,.08.09.09.14.17.62-.12,2-.9,2.12S41.57,175.12,41.45,174.5Z"/><path class="cls-58" d="M41.63,129.52a18.6,18.6,0,0,1-1.21-3.1c.32-.08.59.24.76.52a23,23,0,0,1,1.88,3.94c.07.21.18.45.4.48s.38-.16.53-.31A4.75,4.75,0,0,1,46.5,130a2.13,2.13,0,0,1,1.41,0c-.31-.16-1.95.79-2.28.95a24.7,24.7,0,0,0-2.26,1.23c-.66.41-.93.55-1.11-.3A12.38,12.38,0,0,0,41.63,129.52Z"/><path class="cls-59" d="M35.58,127.11a1.22,1.22,0,0,0-.28,1,3.12,3.12,0,0,1,.18.42c0,.17,0,.35.06.51a.53.53,0,0,0,.22.2,1.72,1.72,0,0,0,1.84-.09c.52-.39.77-.93,1.51-.68a1.26,1.26,0,0,0,.84.13c.35-.13.45-.58.52-1,.19-1,1.17-1.24,1.8-1.88a1.38,1.38,0,0,0,.23-.39,2.5,2.5,0,0,0-.62-2.67.61.61,0,0,0-.41-.21.68.68,0,0,0-.44.23c-.89.82-1.52,2-2.67,2.55A5.36,5.36,0,0,0,35.58,127.11Z"/><path class="cls-60" d="M37.62,131.92c-.14.13-.36.05-.54,0a1.61,1.61,0,0,0-1.62.11,1.67,1.67,0,0,0-.48,1.31,2.74,2.74,0,0,0,.54,1.78,1.63,1.63,0,0,0,1.69.57c.33-.1.81-.29.94,0a.75.75,0,0,1,0,.3,1,1,0,0,0,1.82.49,3,3,0,0,1,.28-.49c.32-.32.85-.13,1.28,0a2.29,2.29,0,0,0,2.13-.23,1.82,1.82,0,0,0,.19-2.44,2.65,2.65,0,0,0-2.43-.91c-.3,0-.59.11-.88.12C39.31,132.57,38.73,130.88,37.62,131.92Z"/><path class="cls-61" d="M39.62,123.48c0,.44-.09,1.28-.58,1.45s-.66-.14-.93-.32a1.49,1.49,0,0,1-.38-.41s-.2-.47-.2-.47l.54.07a3.25,3.25,0,0,1-.15-1.42l.93.87c.37-.1-.12-.9.26-1A1.59,1.59,0,0,1,39.62,123.48Z"/><path class="cls-62" d="M39.24,129.4a12,12,0,0,1,.45,1.44c.28-.19.29-.6.29-.94a7.67,7.67,0,0,1,.19-1.58,3.91,3.91,0,0,1,.42,2.4,1.33,1.33,0,0,0,.7-.82c.15,0,.15.27.12.43l-.32,1.51a.94.94,0,0,1-.34.65,1.34,1.34,0,0,1-1.69-.54,2.24,2.24,0,0,1,0-1.06C39.11,130.39,39.18,129.9,39.24,129.4Z"/><path class="cls-63" d="M44.67,127.57a2.14,2.14,0,0,0-.6-.73.84.84,0,0,0-.9-.09,1,1,0,0,0-.32,1.18c.11.43.36.81.43,1.25a1.55,1.55,0,0,1-.14,1,1.46,1.46,0,0,0-.16.39,1,1,0,0,0,.1.56.71.71,0,0,0,.16.28c.21.18.55,0,.81.14a1,1,0,0,1,.45.5l.47.89a2.4,2.4,0,0,0,.34.53.76.76,0,0,0,.56.24.74.74,0,0,0,.55-.39,1.79,1.79,0,0,0,.17-.68,12.16,12.16,0,0,0-.05-1.81,1.07,1.07,0,0,0-.23-.7,1.19,1.19,0,0,0-.31-.23C45.3,129.4,45.08,128.27,44.67,127.57Z"/><path class="cls-64" d="M46.32,129.7c-.39.23-1-.19-1.18-.57a1.35,1.35,0,0,1,0-.77l.14-.55a1.35,1.35,0,0,0,.47.42.25.25,0,0,0,.11,0c.08,0,.14-.07.19-.12a.68.68,0,0,1,.32-.18,5.51,5.51,0,0,0-.22.89c0,.16.12.23.2.35S46.52,129.59,46.32,129.7Z"/><path class="cls-65" d="M36.6,145.51a.65.65,0,0,1,.18-.59,1,1,0,0,1,.42-.16,1.6,1.6,0,0,0,.86-.65c.13-.2.26-.46.49-.46s.39.5.66.7.76,0,1-.3c0,0,.08-.07.12-.06a.14.14,0,0,1,.11.07.76.76,0,0,1,.08.73c.07.13.28,0,.4.11s0,.31,0,.47a.52.52,0,0,0,.64.63,2.83,2.83,0,0,1-.28.85.94.94,0,0,1-.72.47c-.17,0-.36-.06-.5,0s-.08.62-.26.88a.45.45,0,0,1-.55.11.83.83,0,0,1-.38-.44c-.09-.22-.15-.49-.37-.56s-.47.16-.71.21a.53.53,0,0,1-.53-.23c-.09-.15,0-.28,0-.42a.72.72,0,0,0-.18-.4A2,2,0,0,1,36.6,145.51Z"/><path class="cls-66" d="M38,145c.14,0,.27.11.41.09a.4.4,0,0,0,.2-.11,1.17,1.17,0,0,1,.51-.19.45.45,0,0,1,.59.34,2.87,2.87,0,0,1,.13.71,1.13,1.13,0,0,0,0,.18.8.8,0,0,0,.08.16.55.55,0,0,1-.1.56,1,1,0,0,1-.52.28.41.41,0,0,0-.22.07s-.08.09-.13.13-.41,0-.56-.11a2.23,2.23,0,0,0-.45-.42c-.52-.26-.12-.47-.12-.87C37.89,145.63,37.51,145,38,145Z"/><path class="cls-67" d="M41.16,147.14c0-.15.12-.33.28-.34s.32.29.53.32.31-.12.47-.1.25.27.25.46a.76.76,0,0,0,.09.54l.08.09a.25.25,0,0,1-.14.33,1.33,1.33,0,0,0-.35.2c-.15.16-.13.44-.3.57a.39.39,0,0,1-.43,0,1.18,1.18,0,0,1-.31-.32.29.29,0,0,1-.43,0,.41.41,0,0,1,0-.46.35.35,0,0,0,.07-.15c0-.13-.15-.21-.22-.33-.16-.28.14-.27.24-.39S41.12,147.46,41.16,147.14Z"/><path class="cls-68" d="M37.82,152.11c.4-.33,1,.19,1.5,0a1.12,1.12,0,0,0,.65-.78,1.75,1.75,0,0,1,.49-.92.39.39,0,0,1,.2-.08c.16,0,.24.18.29.33a7.28,7.28,0,0,1,.33,3.14,5.53,5.53,0,0,0-.09,1.21,4.15,4.15,0,0,1,.07.7,2.1,2.1,0,0,1-.55,1.09l-.72.92a.26.26,0,0,1-.2.14c-.11,0-.18-.12-.22-.23a3.8,3.8,0,0,1,.15-2.81,1.6,1.6,0,0,1-1,.5c-.38,0-.74-.48-1.11-.35a1,1,0,0,1,.36-.83c.11-.1.71-.23.7-.37S37.81,152.12,37.82,152.11Z"/><path class="cls-69" d="M41.63,162.85a.49.49,0,0,1,.56.25,1,1,0,0,0,.09.18.36.36,0,0,0,.3.11.92.92,0,0,1,.33,0c.1,0,.19.15.15.25s-.1.11-.11.17.07.19.16.23a.84.84,0,0,1,.27.13c.13.15,0,.39-.15.51s-.34.27-.33.47,0,.13,0,.19-.24.32-.43.29a1.14,1.14,0,0,1-.49-.3.42.42,0,0,0-.26-.12c-.12,0-.2.12-.31.16a.36.36,0,0,1-.4-.19.94.94,0,0,1-.09-.47.26.26,0,0,0,0-.15s-.09-.05-.13-.07a.59.59,0,0,1-.25-.67.66.66,0,0,1,.17-.38c.18-.21.38,0,.54-.13S41.35,162.93,41.63,162.85Z"/><path class="cls-70" d="M41.56,164.19a.48.48,0,0,1,0-.48.4.4,0,0,1,.43-.19c.17,0,.31.2.49.22h.12c.13,0,.15.22.1.35a1.7,1.7,0,0,0-.19.35,1,1,0,0,1-.05.18c-.09.16-.32.13-.5.07a.56.56,0,0,1-.32-.17.23.23,0,0,1,0-.33"/><path class="cls-71" d="M35.15,161.11a2,2,0,0,1,1.05-.32,1.65,1.65,0,0,1,1.42,1.34,6,6,0,0,1-.29,2.79,13.65,13.65,0,0,0-.51,3.11c0,.32,0,.65,0,1a12.2,12.2,0,0,1-.44,3.18.58.58,0,0,1-.27.43.61.61,0,0,1-.54-.13,1.81,1.81,0,0,1-1.23-2.09,19.26,19.26,0,0,0,0-2,1.33,1.33,0,0,0-.2-.76,2.46,2.46,0,0,0-.48-.43,1.92,1.92,0,0,1-.57-1.37,6,6,0,0,1,.21-1.5C33.57,163,33.9,161.83,35.15,161.11Z"/><path class="cls-72" d="M33.39,161.4a2.43,2.43,0,0,1,.13-.89,1.69,1.69,0,0,1,.67-.73,2.39,2.39,0,0,1,1.21-.4,1.53,1.53,0,0,1,1.15.48,2.61,2.61,0,0,1,.49,1.5.53.53,0,0,1,0,.37c-.1.16-.33.18-.53.18a5.48,5.48,0,0,0-1.46,0,1.3,1.3,0,0,0-1,.93c-.06.32,0,.95-.4,1.13-.23.09-.16.12-.23-.15a3.32,3.32,0,0,1,0-.89C33.38,162.43,33.38,161.92,33.39,161.4Z"/><path class="cls-72" d="M33.57,167.36a.59.59,0,0,0,.07.51c.08.15.19.29.27.46.25.57-.1,1.2-.21,1.82a2.51,2.51,0,0,0,1.77,2.8c.18,0,.43,0,.48-.15a.28.28,0,0,0,0-.2c-.19-.43-.74-.54-1.08-.86a2.37,2.37,0,0,1-.42-2c0-.47,0-.95,0-1.42a1.69,1.69,0,0,0-.21-.94C34.09,167.19,33.73,167,33.57,167.36Z"/><path class="cls-73" d="M38.19,167.84a3.9,3.9,0,0,1,1.59-.92,4,4,0,0,1,1.42-.35,1.34,1.34,0,0,1,1.22.7c.14.31.1.68.21,1s.48.63.77.45a.71.71,0,0,0,.25-.61,4.47,4.47,0,0,0-.17-1.41.28.28,0,0,1,0-.18.19.19,0,0,1,.11-.09,1,1,0,0,1,.89.15,3.12,3.12,0,0,1,1.39,3.2,1,1,0,0,1-.17.42c-.19.24-.58.37-.6.67s.13.33.18.5a1,1,0,0,1-.26.86,8.36,8.36,0,0,1-.74.95c-.16.19-.4.39-.64.3a.67.67,0,0,1-.3-.32l-.35-.63c0-.09-.1-.18-.2-.2a.3.3,0,0,0-.2,0,3.38,3.38,0,0,0-1.49,1.67,5.38,5.38,0,0,1-1.3,1.87,2.41,2.41,0,0,1-1.62.46.85.85,0,0,1-.38-.12.74.74,0,0,1-.25-.39,3.33,3.33,0,0,1,0-1.26l.15-1.55a5.28,5.28,0,0,0,0-1.19,1.87,1.87,0,0,1,0-1c.12-.28.38-.31.34-.63s-.23-.5-.27-.78A2,2,0,0,1,38.19,167.84Z"/><path class="cls-74" d="M37.69,167.19a1.2,1.2,0,0,1,.75-.47c.16,0,.33,0,.49,0a2.64,2.64,0,0,0,.93-.53,2.87,2.87,0,0,1,3.41.22c.11.09.26.2.39.12s.07-.3.15-.43.36-.14.55-.07a3.81,3.81,0,0,1,2.42,3.12,7.57,7.57,0,0,1,0,1.26,4.75,4.75,0,0,1-.36,1.84,10.72,10.72,0,0,1-1.83,2,.57.57,0,0,1-.14.13.31.31,0,0,1-.39-.2.7.7,0,0,1,0-.49c.32-.86,1.13-1.52,1.29-2.42a9.5,9.5,0,0,1,.11-.95c.14-.5.57-.94.52-1.45a1.7,1.7,0,0,0-.41-.77,3.33,3.33,0,0,0-1.48-1.26c-.18-.06-.42-.07-.52.09s0,.37,0,.55a1.89,1.89,0,0,1,.11.91.54.54,0,0,1-.15.37.47.47,0,0,1-.62-.06,1.66,1.66,0,0,1-.32-.6,2.23,2.23,0,0,0-.87-1.22,1.63,1.63,0,0,0-1.28-.12,3.5,3.5,0,0,0-1.15.63,2.7,2.7,0,0,0-1.28,2,5.25,5.25,0,0,1,.08,1.18c-.11.48-.57.88-.49,1.36,0,.15.11.29.13.44a1.08,1.08,0,0,1,0,.4,17.37,17.37,0,0,0-.11,2.79c0,.33.08.72.39.84a.87.87,0,0,0,.67-.14,5.45,5.45,0,0,0,2.07-2.19c.1-.19.21-.4.41-.44s.51.28.63.57.23.71,0,1a1.08,1.08,0,0,1-.29.18,12.06,12.06,0,0,0-1.34.9,3,3,0,0,1-1.48.62,1.37,1.37,0,0,1-1.34-.71,6.14,6.14,0,0,1-.15-1.13,2.35,2.35,0,0,1-.1-1.15c.1-.42.27-.81.34-1.23a12,12,0,0,0-.39-2.88A4,4,0,0,1,37.69,167.19Z"/><path class="cls-75" d="M38.4,169.12a.2.2,0,0,0,.18.2.6.6,0,0,0,0,.32.25.25,0,0,0,.22.22.86.86,0,0,0,.17,0c.06,0,.13,0,.14.07.21-.11.21-.41.19-.65,0,.07.15,0,.18-.07s0-.17.1-.21a1,1,0,0,1,.16-.05.33.33,0,0,0,.22-.18.46.46,0,0,0,.26,0,.14.14,0,0,0,.09.11.29.29,0,0,0,.29-.14.31.31,0,0,0,.33.08.29.29,0,0,0,.19-.27.49.49,0,0,0,0-.12,1.05,1.05,0,0,0-.16-.46.35.35,0,0,0-.43-.1.17.17,0,0,0-.21-.11l-.09.05a.38.38,0,0,1-.21,0,.28.28,0,0,0-.2,0c-.07,0-.1.13,0,.17a.31.31,0,0,0-.45.21c0-.09-.13-.13-.19-.07a.34.34,0,0,0,0,.26.23.23,0,0,0-.31.32A4,4,0,0,0,38.4,169.12Z"/><path class="cls-76" d="M40.28,170c-.23,0-.49.17-.69,0a.53.53,0,0,1-.16-.27l-.14-.42a1.9,1.9,0,0,0,.53.45c-.06-.25-.12-.5-.19-.75l.48.68a1.83,1.83,0,0,0-.13-.89l.37.67a3.82,3.82,0,0,0,.12-.69.59.59,0,0,1,.25.32.49.49,0,0,1-.09.33l-.32.59"/><path class="cls-77" d="M114.42,172.16l2.47,2.88c-.32-3.47,1.65-6.69,3.34-9.73,2.15-3.85,4-8.35,2.69-12.55a6.54,6.54,0,0,1,1.23,4.72c1.9-3.82.79-8.39,1.33-12.62a31.93,31.93,0,0,1,1.43-5.66,28.89,28.89,0,0,1,1.84-4.79,14.59,14.59,0,0,0,1.77-3.8,14.63,14.63,0,0,1,.47-2.9c.54-1.29,2-2.23,1.92-3.62,0-1.17-1.17-2.38-.5-3.35l.7,1.84.4-5.72a17.34,17.34,0,0,1,.21,5.33l2.1-1.67c.19,1.18-1.26,1.88-2,2.85a5.39,5.39,0,0,0-.55,1.1l-3,7.54,1.39-.34a37.3,37.3,0,0,0-4.39,8.74,26.58,26.58,0,0,0-1.31,9.7c.11,2.24.47,4.61-.53,6.6a3.9,3.9,0,0,1,4.53-.49,8.66,8.66,0,0,0-4.4,1.66,8.3,8.3,0,0,0-1.63,2.29,97.63,97.63,0,0,0-6.44,14.44l3.17-2.56a7.2,7.2,0,0,1,1.49-1,3.8,3.8,0,0,0,2.53-4.31,1.39,1.39,0,0,0,1.88,0,1.19,1.19,0,0,1,.41-.26c.16,0,.37.06.37.22a7.36,7.36,0,0,1-1.16,2.2,17,17,0,0,0-1.63,1.66,6.5,6.5,0,0,1-.67,1,3.8,3.8,0,0,1-1.17.64,12.68,12.68,0,0,0-3,2,6.11,6.11,0,0,0-1.92,2.72c-.14.42-.36,4,.1,4.13-1.37-.29-1.29-2.59-1.56-3.69C115.94,175.89,115.47,173.38,114.42,172.16Z"/><path class="cls-78" d="M111.26,159.26a7.8,7.8,0,0,1,3.44.84c1.08.64,2.64,3.27.43,2.55a7.56,7.56,0,0,1-2.08-1.53C112.72,160.82,111.59,159.28,111.26,159.26Z"/><path class="cls-79" d="M132.67,117.43a1.88,1.88,0,0,0-.19-1.28c-.12-.2-.31-.41-.27-.65a.55.55,0,0,0,.8-.17,1.55,1.55,0,0,0,.19-.9,1,1,0,0,0,.53,0,1.28,1.28,0,0,1,.5-.73,12.63,12.63,0,0,0-.16,1.67,11.4,11.4,0,0,1-.4,1.38A5.92,5.92,0,0,1,132.5,119C132.16,118.77,132.62,117.82,132.67,117.43Z"/><path class="cls-80" d="M129.51,127.09a3.58,3.58,0,0,0-.4,1.09.49.49,0,0,0,0,.24.73.73,0,0,0,.16.23,1.89,1.89,0,0,0,1,.66,2.6,2.6,0,0,1,.39.05c.12,0,.23.14.35.18a1.05,1.05,0,0,0,.75-.11,2,2,0,0,0,.73-.44,2,2,0,0,0,.38-.85,1.65,1.65,0,0,0,.06-.93.89.89,0,0,0-.7-.61c-.48-.07-1.08,0-1.56-.06S129.82,126.52,129.51,127.09Z"/><path class="cls-81" d="M130.09,135.78a.35.35,0,0,1,.34-.21c.35.06.29.7.63.77.15,0,.29-.05.43-.05s.47.3.45.57a1.57,1.57,0,0,1-.36.73.64.64,0,0,1,.59.8.83.83,0,0,1-.91.55.28.28,0,0,0-.2,0c-.11.07-.06.24,0,.37a.52.52,0,0,1-.83.48s-.08-.08-.14-.08a.35.35,0,0,0-.17,0,.51.51,0,0,1-.59-.38,1.25,1.25,0,0,1,.1-.76.6.6,0,0,0,.07-.37c-.09-.4-.88-.35-.87-.77a.48.48,0,0,1,.22-.34c.27-.2.84-.21,1-.4S129.92,136.12,130.09,135.78Z"/><path class="cls-82" d="M130.78,124.38A7.32,7.32,0,0,0,131,126l.42-2.13.13,1.65a4.15,4.15,0,0,0,.6-1c0,.56-.09,2.29-1,2.17S130.78,124.9,130.78,124.38Z"/><path class="cls-83" d="M126.66,136.19a.93.93,0,0,1,1.24.82.76.76,0,0,0,0,.34.55.55,0,0,0,.28.24,1.31,1.31,0,0,1,.63,1.36.94.94,0,0,1-1.23.66,1.16,1.16,0,0,1,.08,1.32,1.6,1.6,0,0,1-1.5.6,1.26,1.26,0,0,0-.64,0c-.09,0-.16.08-.25.12a.87.87,0,0,1-1.06-.41,1.74,1.74,0,0,1-.13-1.21,1.68,1.68,0,0,0-.55,0c-.84,0-.27-1,.1-1.24.53-.38.63,0,.67-.8,0-.49-.17-1.14.43-1.39.35-.15.7.16,1.06.09S126.36,136.32,126.66,136.19Z"/><path class="cls-84" d="M127,138.05a1.4,1.4,0,0,1,.2,1.16,1.19,1.19,0,0,1-.3.55,1.34,1.34,0,0,1-1,.27,1.12,1.12,0,0,1-.94-.42,1.08,1.08,0,0,1-.06-.93,2.16,2.16,0,0,1,.31-.67A1.11,1.11,0,0,1,127,138.05Z"/><path class="cls-85" d="M128.07,141.94c.24-.32.19-.89.57-1a.44.44,0,0,1,.3,0,.76.76,0,0,1,.54.9.52.52,0,0,1,.39,0,.37.37,0,0,1,.1.42,1.09,1.09,0,0,1-.28.36.86.86,0,0,1,.23.81.42.42,0,0,1-.69.18c-.17.15-.09.48-.27.61a.47.47,0,0,1-.2.06c-.21,0-1.07-.26-1.14-.48-.16-.5.14-1.37-.47-1.77a.68.68,0,0,1,.73-.15"/><path class="cls-86" d="M137.12,145.53c0,.13.09.27.22.29a.3.3,0,0,0,.26-.11c.48-.42.76-1.07,1.32-1.36a1.72,1.72,0,0,0,.48-.26.79.79,0,0,0,.2-.31c.17-.43.15-.93.35-1.34a1.73,1.73,0,0,0,.2-.41,1.07,1.07,0,0,0-.05-.47L140,141a1.33,1.33,0,0,0-.28-.63c-.65-.7-1.12.19-1.35.67a2,2,0,0,1-1,1C136,142.84,136.75,144.23,137.12,145.53Z"/><path class="cls-87" d="M143.51,145.17l.07,1.16.33-.49"/><path class="cls-88" d="M124.07,151.5a1.39,1.39,0,0,1-1.73.18,2.85,2.85,0,0,0,.86-1.11,1.61,1.61,0,0,0,.27-1.2c-.12-.39-.51-.62-.84-.86s-.64-.64-.51-1l1.21.52c.1.05.24.09.32,0s.08-.21,0-.32a21.64,21.64,0,0,0-.56-2.1c.77,0,1,1.3,1.82,1.26a1,1,0,0,0,.73-.54,4.13,4.13,0,0,1,.5-.8.68.68,0,0,1,.44.57,1.84,1.84,0,0,1-.1.73,9.3,9.3,0,0,1-1,2.73A10.46,10.46,0,0,1,124.07,151.5Z"/><path class="cls-89" d="M137.45,141.8a.77.77,0,0,1-.54-.44,1.93,1.93,0,0,1-.16-.71,1.79,1.79,0,0,0,.77.56l-.22-1.5c.16.07.22.25.3.4s.23.32.39.27l0-.86a3.1,3.1,0,0,1,.44.94,1,1,0,0,1-.25,1,.73.73,0,0,1-.56.19"/><path class="cls-90" d="M126.37,151.84c.36-.11.77.33,1.08.12a1.24,1.24,0,0,1,.18-.14c.19-.08.36.14.45.32a1.43,1.43,0,0,1,.23.93.43.43,0,0,0,0,.25c0,.07.12.1.17.16s0,.38-.1.53-.28.3-.27.5,0,.17.06.26a.35.35,0,0,1-.41.33.49.49,0,0,1-.37-.43c0-.14-.06-.34-.18-.29a.14.14,0,0,0-.08.07l-.3.46c-.24.13-.49-.19-.51-.46s0-.58-.16-.78c0,0-.12-.1-.17-.16A4.94,4.94,0,0,1,126.37,151.84Z"/><path class="cls-84" d="M127.61,153.15c-.12-.37-.24-.61-.65-.61a.3.3,0,0,0-.16,0,.31.31,0,0,0-.13.2,1,1,0,0,0,0,.79.8.8,0,0,0,.4.37.45.45,0,0,0,.5-.14A.75.75,0,0,0,127.61,153.15Z"/><path class="cls-15" d="M117.88,163l-1.4.29a1.93,1.93,0,0,0-1,.41,2,2,0,0,0-.45.88l-.2.69a.72.72,0,0,0,0,.43.42.42,0,0,0,.36.32.45.45,0,0,0,.43-.23l0,.6a.33.33,0,0,0,0,.14.26.26,0,0,0,.15,0,1.88,1.88,0,0,0,.92-.55c.28-.22.71-.38,1-.15a1.94,1.94,0,0,1,.3.57,1,1,0,0,0,1.37.39,2,2,0,0,1,.49-.32,1.51,1.51,0,0,1,.8.15c.27.08.62.06.74-.19a1.22,1.22,0,0,0,0-.43.37.37,0,0,1,.18-.36h.15a1.12,1.12,0,0,0,1-1.35c0-.17-.13-.32-.17-.49a3.57,3.57,0,0,1,0-1,1,1,0,0,0-.32-.89,1.19,1.19,0,0,0-1.1,0l-1.18.43c-.08,0-1.25.71-1.11.83A1.07,1.07,0,0,0,117.88,163Z"/><path class="cls-91" d="M124.53,163.05l.71.79a.59.59,0,0,0,.31.23.45.45,0,0,0,.37-.1c.44-.3.52-.9.79-1.36a.2.2,0,0,1,.09-.09c.11,0,.18.12.19.23.08.63.14,1.25.19,1.88a.32.32,0,0,0,.09.23.31.31,0,0,0,.19,0l1.93-.32a1.41,1.41,0,0,1-.47,1,3.36,3.36,0,0,1-.94.58,22.84,22.84,0,0,1-2.92,1,1.7,1.7,0,0,1-.86.11,1.73,1.73,0,0,1-.66-.34,2.59,2.59,0,0,1-1-1c.5,0,2.27.26,2.2-.49,0-.38-.31-.72-.37-1.1a2.43,2.43,0,0,1,0-.66C124.38,163.56,124.54,163.07,124.53,163.05Z"/><path class="cls-92" d="M118.06,159.5c.15,0,.23.18.25.33l.41,2.23a2.15,2.15,0,0,0,.2-1.42,2.66,2.66,0,0,1,.12-1.43l.4,2.71a3.12,3.12,0,0,0,.43-1.73l0-.66a3.4,3.4,0,0,1,.3,2.23,1.42,1.42,0,0,1-.13.5,1.23,1.23,0,0,1-.24.31c-.55.59-1.48.69-1.8-.2A6.32,6.32,0,0,1,118.06,159.5Z"/><path class="cls-93" d="M120.2,170.67a.25.25,0,0,0,.06-.15c0-.08-.08-.14-.14-.2a.69.69,0,0,1,0-.94,3.08,3.08,0,0,1,.23-1.31,2.84,2.84,0,0,1,.86-.93c.28.51.89.75,1.3,1.16a.79.79,0,0,0,.24.21,1.16,1.16,0,0,0,.31.07,1,1,0,0,1,.65.46c.1.16.15.35.24.52s.28.39.41.59a3.75,3.75,0,0,1,.45,1.58,3.24,3.24,0,0,1,0,1.12c0,.23-.15.44-.21.66s-.12.74-.22,1.1c-.21.68-.77,1.26-.81,2,0,.34,0,.79-.28.93a1.38,1.38,0,0,0-.88-.63.67.67,0,0,1-.42-.17c-.1-.13-.06-.32-.09-.47a.64.64,0,0,0-.5-.44,1.78,1.78,0,0,0-.69,0v-1a.36.36,0,0,0,0-.15c-.07-.12-.25-.1-.34-.19s0-.77-.07-1a5.33,5.33,0,0,0-.32-.74A2.6,2.6,0,0,1,120.2,170.67Z"/><path class="cls-94" d="M108.44,168.49a7.28,7.28,0,0,0-.72,1.73,2.26,2.26,0,0,0-.09.78,6.55,6.55,0,0,0,.94,2.05,1.28,1.28,0,0,1,.14.43c.08.6-.51,1.06-.71,1.63a2.11,2.11,0,0,0,.71,2.11,2,2,0,0,0,.7.49,2.73,2.73,0,0,0,1.24,0c.55-.08,1.09-.19,1.63-.32a1.3,1.3,0,0,0,.51-.22,1.17,1.17,0,0,0,.34-.59,6,6,0,0,0,.25-2.34,1.35,1.35,0,0,1,.19-1.09,1.07,1.07,0,0,1,.86-.19,5.59,5.59,0,0,1,1.27.3,1.45,1.45,0,0,0,1.12.15c.37-.16.49-.61.57-1q.23-1.19.36-2.37a3.57,3.57,0,0,0,0-1,3,3,0,0,0-1.29-1.66,2.58,2.58,0,0,0-2.35-.63,5.56,5.56,0,0,0-.79.45,1.16,1.16,0,0,1-.88.16,2.16,2.16,0,0,1-.39-.22,2.61,2.61,0,0,0-3.39.85Z"/><path class="cls-95" d="M108,168c-.15.33-.21.68-.38,1s-.25.36-.36.55a1.85,1.85,0,0,0-.24,1,5.51,5.51,0,0,1,.06.57c0,.68-.55,1.33-.33,2a1.72,1.72,0,0,0,.23.42l.74,1a.37.37,0,0,0,.2.17.31.31,0,0,0,.19,0c.53-.22.81-.95,1.39-1-.36-.34-.72-.68-1.06-1.05a2.07,2.07,0,0,1-.44-.58,2.26,2.26,0,0,1-.12-1c0-.5,0-1,.08-1.5a.41.41,0,0,1,.07-.27c.07-.09.19-.11.29-.16.38-.22.31-.77.42-1.19a1.27,1.27,0,0,1,.65-.8,2.45,2.45,0,0,1,1.29-.12,8.43,8.43,0,0,1,2.24.4,1.16,1.16,0,0,0,.44.12.71.71,0,0,0,.62-.77,1.65,1.65,0,0,0-.47-1,5.13,5.13,0,0,1-.69-.85.85.85,0,0,0-.19-.3.72.72,0,0,0-.52-.11,5.37,5.37,0,0,0-1.68.41.77.77,0,0,0-.31.19,1,1,0,0,0-.19.48C109.63,166.81,108.43,167.05,108,168Z"/><path class="cls-96" d="M114.09,167a2.93,2.93,0,0,1,2,.23c.51.35.78,1,1.35,1.26a.39.39,0,0,1,.17.11.31.31,0,0,1,0,.19,5.51,5.51,0,0,1-.27,1.5,1.86,1.86,0,0,0-.16.83c0,.28.21.52.27.8a.93.93,0,0,1-.12.65.68.68,0,0,1-.5.34,1.77,1.77,0,0,1-.32,0,1.62,1.62,0,0,0-.62,0,.19.19,0,0,0-.14.09.22.22,0,0,0,0,.08,1.1,1.1,0,0,0,.94.85,1.79,1.79,0,0,0,1.27-.38,1.42,1.42,0,0,0,.65-1.41,2.3,2.3,0,0,0-.27-.57,1.91,1.91,0,0,1-.26-1.37c.06-.22.18-.42.22-.64a1.73,1.73,0,0,0-.33-1.23,4.48,4.48,0,0,1-.62-1.16.48.48,0,0,0-.07-.2.43.43,0,0,0-.19-.16,4,4,0,0,0-1.39-.48,1.89,1.89,0,0,0-1.08.1C114.48,166.49,114.14,167,114.09,167Z"/><path class="cls-97" d="M108.44,178.16a2.2,2.2,0,0,0,1.62.17,3.75,3.75,0,0,1,1.66-.1,1.2,1.2,0,0,0,.56.09,1.08,1.08,0,0,0,.3-.16l.94-.67a1,1,0,0,0,.22-.2,1,1,0,0,0,.08-.28,3,3,0,0,0,0-1c-.07-.44-.34-.84-.39-1.29a8.69,8.69,0,0,0,0-1.35,1.58,1.58,0,0,0-.59,1.37,9,9,0,0,1,0,1.56,1.2,1.2,0,0,1-1,1.08,2.91,2.91,0,0,0-.59,0c-.14,0-.26.14-.4.19a2.28,2.28,0,0,1-.64,0,6.54,6.54,0,0,1-.75.07c-.47,0-.71-.4-1-.72s-.87-.83-.74-1.13A2.3,2.3,0,0,0,108.44,178.16Z"/><path class="cls-35" d="M93.9,22.8c2.45,2.6,6.39,3,9.47,4.82A3.55,3.55,0,0,0,102.12,25c-.89-1-1.79-2-2.71-2.94a7,7,0,0,0-2.25-1.94C95.67,19.58,92.2,21,93.9,22.8Z"/><path class="cls-98" d="M86.53,25.74a3.55,3.55,0,0,0,.86-1.9L88,20.91c.07-.34.11-.78-.18-1a1,1,0,0,0-.5-.11,10.29,10.29,0,0,0-7.64,2.83c-1.32,1.38-3,2.31-4.24,3.83a12,12,0,0,0-2.72,7.58c1.35-.92,2-2.57,3-3.88A9.72,9.72,0,0,1,80.45,27a17.14,17.14,0,0,1,2.92-.66c1.35-.19,3.29,0,4.31-1.13A2.93,2.93,0,0,0,88.3,24a4,4,0,0,1,.28-.84,3.27,3.27,0,0,1,1.11-1c.52-.34,1-.71,1.52-1.09a.6.6,0,0,0,.19-.2c.09-.23-.16-.45-.39-.53a3.27,3.27,0,0,0-1.36-.05,17.76,17.76,0,0,0-3.51.84"/><path class="cls-99" d="M124.59,109a17.19,17.19,0,0,1-3.22-15.11c.87-3.21,2.67-6.67,1.15-9.63-1.39-2.69-5.16-3.86-5.77-6.83a15.81,15.81,0,0,1-.1-2.49,17.3,17.3,0,0,0-.93-4c-3.38-11.56-.07-24.05-1.88-36a42.54,42.54,0,0,0-13-24.57c-1.68-1.56-4-3.06-6.11-2.19-1,.41-1.37,1.36-2.27.74-4.35-3-10.61-1.76-14.77,1.53s-6.71,8.16-9.14,12.88c-3.39,6.58-6.81,13.25-8.38,20.48-1.07,4.9-1.27,10-2.85,14.77A27.89,27.89,0,0,1,49.1,70.71C47.63,72,46,73.11,44.66,74.48c-3.61,3.6-5.43,8.56-7.14,13.35a22.52,22.52,0,0,0-1.23,4.31c-.15,1.06-.15,2.14-.39,3.18-.71,3.17-3.47,5.69-3.73,8.93s2.1,6.12,2.84,9.3c-.93-5.52-1.45-11.59,2-15.9a68.17,68.17,0,0,1-.78,20.16c.43-1,.87-2,1.31-3a4.47,4.47,0,0,0,2.07,3.11c-.88-.53-.3-5.69-.21-6.63A27.25,27.25,0,0,1,41,104.51c1.4-3.74,3.31-7.26,5-10.85,1.59-3.29,1.56-6.61,3.88-9.67,1.54-2,3.36-3.93,4.36-6.29-.09.21.78,2.25.83,2.69a24.72,24.72,0,0,1,.05,3.22c-.06,2.22-1,4.32-1.62,6.46a16.62,16.62,0,0,0-1,4.45,26.31,26.31,0,0,1,0,4c-.55,3.13-3.89,5.47-3.65,8.64.15,2,2.36,4.12,2,6.16a4.21,4.21,0,0,1-.4,1.13c-.75,1.49-2.11,2.63-1.75,4.74a4.19,4.19,0,0,0,2.7,3.19A2.28,2.28,0,0,1,50.9,120c.13,1.51,1.9,2.35,2.39,3.78a13.39,13.39,0,0,1,.28,1.43,4,4,0,0,0,1.34,2.22,6.38,6.38,0,0,0,2.3-6.3,5.83,5.83,0,0,0,3.5,4.23,24.88,24.88,0,0,0-1.9-3.33A4.94,4.94,0,0,0,61,123.25a5.85,5.85,0,0,0,3.53.19,2.61,2.61,0,0,0,1.88-2.71,4.76,4.76,0,0,0,1.12,1.69,1.63,1.63,0,0,0,1.88.23,2.82,2.82,0,0,0-.32-2.8,9.07,9.07,0,0,1-1.37-2.61c-.47-2.23,1.68-4.78.36-6.64A16.36,16.36,0,0,1,71.76,114a5.63,5.63,0,0,1,1.07,4.71c-.47,1.62-1.88,2.83-2.42,4.43,2,.24,3.44-1.91,4.24-3.78a11.79,11.79,0,0,0,1.24-5.14A4.66,4.66,0,0,0,73.15,110c-.56-.2-1.25-.31-1.52-.84a1.84,1.84,0,0,1-.12-1c.08-1.13.57-2.64,1.69-2.5a1.94,1.94,0,0,1,1,.62,9.4,9.4,0,0,1,2.66,7.9,4.84,4.84,0,0,0,.92-3A17.75,17.75,0,0,0,76,101.48a13.62,13.62,0,0,1-1.17-2.62c-.94-3.68,2.48-8,.27-11.09-.56-.78-1.48-1.53-1.28-2.47a2.61,2.61,0,0,1,.89-1.25c3.13-3,4.5-7.5,4.62-11.84s-.89-8.64-1.88-12.87a22.44,22.44,0,0,0-1.07-3.59c-.54-1.26-1.31-2.42-1.9-3.66-1.53-3.25-1.76-6.94-2-10.52-.22-3.88-.39-8,1.39-11.44a16.88,16.88,0,0,1,5.53-5.84,16.13,16.13,0,0,1,6-2.51c2.12-.46,4.43-.47,6.4-1.47a5.13,5.13,0,0,0,.84-.52c2-1.56,2.27-4.68,2.28-7,0,.63.2,1.3.19,2a7.18,7.18,0,0,0,.06,2.22,5.16,5.16,0,0,0,1.61,1.81c1.27,1.13,2.79,2.05,4,3.28a27.68,27.68,0,0,1,4.59,6,20.83,20.83,0,0,1,1,15.77,12.37,12.37,0,0,0-.58,1.75,11.43,11.43,0,0,0-.07,2.11c0,6.44-5.37,9.56-7.62,15-.59,1.42-.39,3.15-.78,4.68a27.13,27.13,0,0,1-1.84,4.78c-1.54,3.22-3.42,6.31-4.41,9.76a11.5,11.5,0,0,0-.44,4.87c.37,2.41,3,3.88,2.52,6.29a26.44,26.44,0,0,1-7.55,14.1c-1.34,1.31-2.89,2.57-3.45,4.36s.54,4.21,2.41,4.15a6.86,6.86,0,0,1,6.09-7.31c.51,1.21-.2,2.56-.89,3.68q-2.53,4.16-5.08,8.29l4-4.73.09,2.11,1.84.14a3.75,3.75,0,0,0,2.22,6.76,11.59,11.59,0,0,1,7-10.7,11.26,11.26,0,0,1-3.49,8.72,4.89,4.89,0,0,0,5.38-3.55,13.08,13.08,0,0,1-.75,5.07,7,7,0,0,1,3.36,2.52c1.94-2.18.06-6.19,2-8.06s7,2.49,8.8,3.52a8.28,8.28,0,0,1-1.59-5.87,3.74,3.74,0,0,0,2.42,2.57,6.3,6.3,0,0,1-1.12-4.79l2.69,4.68a12.76,12.76,0,0,1-.52-8.07,5.33,5.33,0,0,0,5.62,3,16.23,16.23,0,0,1-3.92-4.39,5.45,5.45,0,0,1,.06-5.61A5.46,5.46,0,0,0,124.59,109Z"/><path class="cls-100" d="M111.09,58c-.42-1.69-.9-3.21-1.21-4.92a3.15,3.15,0,0,0,.05,2.18c.48,2.29-.23,4.6-.47,6.86a18.68,18.68,0,0,1-2,7,20.73,20.73,0,0,0-1.09,2.09c2.18-.9,3.3-3.28,4.16-5.48a12.93,12.93,0,0,0,1.07-4.21A13.29,13.29,0,0,0,111.09,58Z"/><path class="cls-101" d="M106.71,61.72a22.45,22.45,0,0,1-.76,3.14,9.07,9.07,0,0,1-.6,1.63c-.68,1.3-2,2.27-2.34,3.69a6.05,6.05,0,0,0,2.14-1.1,6.19,6.19,0,0,0,1.5-3.78c.29-1.9.94-4.34.53-6.24A7.6,7.6,0,0,0,106.71,61.72Z"/><path class="cls-102" d="M102.88,80.58a13.48,13.48,0,0,1-2.92,2,13.79,13.79,0,0,0-2.26,1.26A7.36,7.36,0,0,0,95.44,88a33.11,33.11,0,0,1-1.15,4.64,1.68,1.68,0,0,1-.61.88,37.47,37.47,0,0,1,5.42-6.67A16.36,16.36,0,0,0,102,84c.51-.8.82-1.72,1.29-2.55.62-1.11,1.67-2.28,1.48-3.64A6.52,6.52,0,0,1,102.88,80.58Z"/><path class="cls-103" d="M92.61,109a11.93,11.93,0,0,0,0,1.89c.06,3.28-1.87,6.25-2.54,9.46a32.83,32.83,0,0,1,2.72-4.93,18,18,0,0,0,1.75-2.58,6,6,0,0,0,.27-4.5C94.25,106.62,92.79,107.65,92.61,109Z"/><path class="cls-104" d="M98.83,92.22a13.38,13.38,0,0,1-2.32,6.54,1.34,1.34,0,0,0,.58-.42,9.56,9.56,0,0,0,2.85-5.86c0-.81.09-3.65-.73-4A12.93,12.93,0,0,0,98.83,92.22Z"/><path class="cls-105" d="M104.66,101.76c.23,2.66,2.42,4.86,2.58,7.52a5.15,5.15,0,0,1-1,3.31c-.65.89-1.56,1.55-2.27,2.38a13.48,13.48,0,0,0-1.9,3.37l4-4.76a14.47,14.47,0,0,0,2-2.89,4.83,4.83,0,0,0,.42-3.43,11.82,11.82,0,0,0-1.09-2.16,9,9,0,0,1-1-4.4,8.45,8.45,0,0,1,.32-2.18A13,13,0,0,1,109.28,93a5.38,5.38,0,0,0-1.68,1.22,5.75,5.75,0,0,0-.55.89C106,97.19,104.44,99.29,104.66,101.76Z"/><path class="cls-106" d="M100.18,99.89l0,0c-.74,1.63.09,4.06.16,5.77A11.61,11.61,0,0,1,98,113.1a72.06,72.06,0,0,0,4.74-7.24,8.11,8.11,0,0,0,1.2-2.69,7.44,7.44,0,0,0-.21-2.93,24.53,24.53,0,0,1-.11-4.54C102.5,96.9,100.86,98.42,100.18,99.89Z"/><path class="cls-107" d="M109.45,83.75a1.77,1.77,0,0,0,1.21-.77c.69,1.6.35,3.43.22,5.17a12.2,12.2,0,0,0,.46,4.7c.62,1.85,1.86,3.54,1.89,5.48,0,1-.33,2.13,0,3.11l.44-2.79c.42-2.65.83-5.45-.17-8-.25-.61-.57-1.19-.81-1.81a12.83,12.83,0,0,1-.59-3.27,31.66,31.66,0,0,1,.06-9.12c0-.16,0-.28-.14-.3-.08,1.12-.95,2.46-1.34,3.54C110.24,81.06,109.82,82.4,109.45,83.75Z"/><path class="cls-104" d="M73.45,17.34a21,21,0,0,0-6.33,10c-.71,2.84-.63,5.82-1.06,8.72a50.8,50.8,0,0,1-2,7.53c3.11-5.36,2.76-12.15,5.67-17.63C73.65,18.71,82,16.15,86.89,9.91,82,10,76.83,14.21,73.45,17.34Z"/><path class="cls-108" d="M59.05,62.13a22.18,22.18,0,0,1,.44,2.67c.09,1.92-.76,3.77-1,5.68A11.45,11.45,0,0,0,60,76.94a32.46,32.46,0,0,0,3.89,5.46,25.26,25.26,0,0,1-2.75-17.71c.58-2.65,1.59-5.32,1.18-8-.13-.81-.39-1.6-.49-2.42a6.68,6.68,0,0,1,.63-3.68A14.69,14.69,0,0,0,59.05,62.13Z"/><path class="cls-109" d="M66.93,72.23c2.27-2.88,3.13-6.62,3.51-10.26a54.86,54.86,0,0,0,.13-10.41c-.22,1.76-1.82,3.2-1.8,5,0,3,.23,6.31-.59,9.27-.3,1.1-.67,2.19-.92,3.3C67.13,69.72,67.24,71.84,66.93,72.23Z"/><path class="cls-110" d="M41.83,83.46a8.18,8.18,0,0,1,.11,1.64,7.94,7.94,0,0,1-1.68,3.7c1.56-.6,2.28-2.43,2.4-4.1s-.21-3.37.09-5c.47-2.51,2.12-3.51,3.84-5.05a4.65,4.65,0,0,0-3.36,1.26C41.25,77.78,41.53,81,41.83,83.46Z"/><path class="cls-111" d="M54.12,100.28a4,4,0,0,0-.45,1.15,1.12,1.12,0,0,0,.4,1.11,3.07,3.07,0,0,0,.68-1.68,10.46,10.46,0,0,1,.85-2.45,11.35,11.35,0,0,0,.76-1.62c.47-1.43-.08-2.39-.63-3.65-.36-.85-.22-1.73-.52-2.52-.86.56-1.12,2.34-1.16,3.31C53.93,96.32,55.31,97.81,54.12,100.28Z"/><path class="cls-112" d="M61.23,93.75a5,5,0,0,0-1.14-2.19c-.29-.3-.84-.5-1.07-.15a.78.78,0,0,0,0,.6,20.83,20.83,0,0,0,1.42,4.52,5.68,5.68,0,0,1,.4,1.48,9.92,9.92,0,0,1,0,1.09,5,5,0,0,0,1.47,3.31,16.29,16.29,0,0,0-.68-6.76,8.62,8.62,0,0,1-.29-1C61.3,94.36,61.28,94.05,61.23,93.75Z"/><path class="cls-113" d="M66.9,88.16a15.32,15.32,0,0,0-1.14,3.49c-.19,2.27,1.41,4.24,2.92,5.95a23,23,0,0,1-1.13-6,13.25,13.25,0,0,1,0-4.17c.32-1.49,1.18-2.84,1.37-4.36.06-.51,0-3-.79-2.66-.53.24-.52,2.5-.55,3A18,18,0,0,1,66.9,88.16Z"/><path class="cls-114" d="M70.75,111.43a8.18,8.18,0,0,1,.8.25,2.89,2.89,0,0,1,.9.77,22.3,22.3,0,0,1,2.06,2.86,3.87,3.87,0,0,0-.3-2.52,11.89,11.89,0,0,0-1.4-2.18,7.3,7.3,0,0,0-1.69-1.77,22,22,0,0,0-3.3-2.14C67.27,108.35,69.3,110.89,70.75,111.43Z"/><path class="cls-87" d="M55.51,104.87c.42.82,1.13,1.45,1.6,2.25a4.5,4.5,0,0,1,.39,3.72c-.19.55-.48,1-.69,1.59a5.87,5.87,0,0,0,1.65,6.49,5.61,5.61,0,0,1-1.12-3.24,7.72,7.72,0,0,1,0-3c.26-.94.86-1.76,1.11-2.7a6.26,6.26,0,0,0-.68-4.09c-.47-1-1.13-2.67-2.09-3.3C55,103.07,55.16,104.18,55.51,104.87Z"/><path class="cls-115" d="M52.52,117.15a6.06,6.06,0,0,0,2.61,3l-.67-2.37a6.61,6.61,0,0,1-.31-1.7,6.77,6.77,0,0,1,.21-1.47c.47-2.17,1.27-5,0-7-.29,1.08,0,2.34-.25,3.47C53.65,113.15,52,115,52.52,117.15Z"/></g></g></svg>