<svg xmlns="http://www.w3.org/2000/svg" viewBox="0 0 111.85 173.89"><defs><style>.cls-1{fill:#d5ac92;}.cls-2{fill:#1b1a1c;}.cls-3{fill:#1a1a1a;}.cls-4{fill:#a0785b;}.cls-5{fill:#381e15;}.cls-6{fill:#b8927a;}.cls-7{fill:#f7fbf2;}.cls-8{fill:#231f20;}.cls-9{fill:#231516;}.cls-10{fill:#141112;}.cls-11{fill:#e3deef;}.cls-12{fill:#57392e;}.cls-13{fill:#40251d;}.cls-14{fill:#73482d;}.cls-15{fill:#201214;}.cls-16{fill:#171212;}.cls-17{fill:#feece2;}.cls-18{fill:#5e463f;}.cls-19{fill:#411512;}.cls-20{fill:#37191a;}.cls-21{fill:#f9d6c7;}.cls-22{fill:#dfc1af;}.cls-23{fill:#503022;}.cls-24{fill:#532f1f;}.cls-25{fill:#b28c75;}.cls-26{fill:#804f54;}.cls-27{fill:#fafbf0;}.cls-28{fill:#4f322f;}.cls-29{fill:#a56864;}.cls-30{fill:#b58073;}.cls-31{fill:#211113;}.cls-32{fill:#2f1615;}.cls-33{fill:#8e5e47;}.cls-34{fill:#3c2416;}.cls-35{fill:#7f7590;}.cls-36{fill:#4f495b;}.cls-37{fill:#302b3a;}.cls-38{fill:#a28b8f;}.cls-39{fill:#5f6764;}.cls-40{fill:#5b6361;}.cls-41{fill:#50534e;}.cls-42{fill:#738585;}.cls-43{fill:#586a60;}.cls-44{fill:#55534e;}.cls-45{fill:#eda79e;}.cls-46{fill:#d78e88;}.cls-47{fill:#a63451;}.cls-48{fill:#a83148;}.cls-49{fill:#e1d2cf;}.cls-50{fill:#b8405a;}.cls-51{fill:#66466f;}.cls-52{fill:#d63c52;}.cls-53{fill:#d5415e;}.cls-54{fill:#ad1f30;}.cls-55{fill:#67466b;}.cls-56{fill:#b72b40;}.cls-57{fill:#ed5371;}.cls-58{fill:#b81f3a;}.cls-59{fill:#de9ea4;}.cls-60{fill:#f4e6ed;}.cls-61{fill:#f1e3e6;}.cls-62{fill:#9d6f71;}.cls-63{fill:#4b5f67;}.cls-64{fill:#495554;}.cls-65{fill:#952854;}.cls-66{fill:#cfdff2;}.cls-67{fill:#8d1a49;}.cls-68{fill:#9b3d78;}.cls-69{fill:#493e6b;}.cls-70{fill:#bc3c63;}.cls-71{fill:#b73a60;}.cls-72{fill:#d9e4f4;}.cls-73{fill:none;}.cls-74{fill:#cc4673;}.cls-75{fill:#a3609e;}.cls-76{fill:#584f84;}.cls-77{fill:#c34575;}.cls-78{fill:#a43263;}.cls-79{fill:#971a31;}.cls-80{fill:#dc3e68;}.cls-81{fill:#ae1f3b;}.cls-82{fill:#b02f5a;}.cls-83{fill:#b6285f;}.cls-84{fill:#2b1311;}.cls-85{fill:#18181a;}.cls-86{fill:#171f2d;}.cls-87{fill:#151b21;}.cls-88{fill:#151b23;}.cls-89{fill:#1b1f29;}.cls-90{fill:#252728;}.cls-91{fill:#1f2228;}.cls-92{fill:#1d232c;}.cls-93{fill:#1b1f23;}.cls-94{fill:#3e3934;}.cls-95{fill:#1a1717;}.cls-96{fill:#2c2d2f;}.cls-97{fill:#1e1c1a;}.cls-98{fill:#2f2d2e;}.cls-99{fill:#1b1f28;}.cls-100{fill:#1e1e23;}.cls-101{fill:#131411;}</style></defs><g id="Layer_2" data-name="Layer 2"><g id="Layer_1-2" data-name="Layer 1"><path class="cls-1" d="M49.89,9.57c-4.22,2.17-8,5.48-9.85,9.86a23.18,23.18,0,0,0-1.43,9.32A36.12,36.12,0,0,0,41.1,41.81c1.17,2.85,2.8,5.55,3.38,8.58.73,3.71-.2,7.57-1.68,11.06s-3.49,6.71-5.08,10.15c-.81,1.75-1.53,3.68-1.12,5.57a9.56,9.56,0,0,0,1.73,3.35q4.81,6.95,10,13.65a3.44,3.44,0,0,0,1.25,1.15c1,.42,2.07-.13,3-.66,3.12-1.81,8.09-3.91,10.27-6.86C64,86.19,64.39,83.12,65,81.2c.73-2.46,1.41-5,2.05-7.44a27.49,27.49,0,0,0,1.11-7c0-2.29-.6-4.63-.18-6.89a32.67,32.67,0,0,1,2.36-6.24,74.62,74.62,0,0,0,5.4-22.15,29.92,29.92,0,0,0-.06-6.95c-.75-4.92-3.42-9.3-6.14-13.37-2-2.92-3.61-6.7-7.84-5.6A55.44,55.44,0,0,0,49.89,9.57Z"/><path class="cls-2" d="M69.71,24.63a9.59,9.59,0,0,0-4.89.49c-.83.27-2.84,1.26-2.06,2.4,1.45-.42,2.84-1,4.31-1.38a6.76,6.76,0,0,1,4.1-.05,5,5,0,0,1,1.6,1.06c.24.22.47.46.7.71a4.19,4.19,0,0,0,.65.68.15.15,0,0,0,.07,0c.25.05-.13-.94-.18-1.05a3.82,3.82,0,0,0-.67-1,6.13,6.13,0,0,0-2-1.39A6.91,6.91,0,0,0,69.71,24.63Z"/><path class="cls-3" d="M46.18,25.94a8.27,8.27,0,0,1,1.15-.62A8.71,8.71,0,0,1,50.92,25a18.82,18.82,0,0,1,5.3,1.68c1.2.53.67-1,.23-1.42A5.09,5.09,0,0,0,54.15,24a11.86,11.86,0,0,0-5.23-.24,8,8,0,0,0-2.67,1.16c-.57.37-1.76,1-2,1.63C44.59,26.82,45.43,26.37,46.18,25.94Z"/><path class="cls-4" d="M61.84,29.53a2.62,2.62,0,0,0,.33,2.18,3.73,3.73,0,0,0,1.36,1.09,7,7,0,0,0,4.32,1,2.25,2.25,0,0,0,1.25-.54,6,6,0,0,0,.59-.81,2.84,2.84,0,0,1,1.36-1,2.83,2.83,0,0,0,1.25-.58,1.89,1.89,0,0,0,.27-1.37A3.9,3.9,0,0,0,72,27.23a2.86,2.86,0,0,0-1.49-.92,8.86,8.86,0,0,0-5.35.49C63.64,27.31,62.28,27.84,61.84,29.53Z"/><path class="cls-5" d="M70.92,29.53c-.14-.11-.33-.22-.42-.31a3.09,3.09,0,0,0-.73-.51,4.82,4.82,0,0,0-1.8-.58,5,5,0,0,0-3.19.69,8.53,8.53,0,0,0-1.27,1l-.7.59a.92.92,0,0,1,.31-.67,5,5,0,0,1,2.69-1.82,5.61,5.61,0,0,1,3,0,3.85,3.85,0,0,1,2.31,1.79A.6.6,0,0,0,70.92,29.53Z"/><path class="cls-6" d="M65,29.5a7.94,7.94,0,0,1,2.91-.22,3.42,3.42,0,0,1,1.06.25c.48.22.92.6,1.44.56a1.66,1.66,0,0,0-1.1-1.31,2.78,2.78,0,0,0-2-.27A7.35,7.35,0,0,0,65,29.5Z"/><path class="cls-7" d="M67,31c-.43,0-.86-.1-1.29-.16l-.72-.1a8.26,8.26,0,0,0-1-.08h-.62A3.82,3.82,0,0,1,65,29.76a5.7,5.7,0,0,1,2-.36,3.77,3.77,0,0,1,.47,0,3.32,3.32,0,0,1,.88.18c.22.08.42.19.63.29l1.4.76a8.88,8.88,0,0,0-1.55.2,9.46,9.46,0,0,1-1.59.19Z"/><path class="cls-8" d="M67,29.52l.46,0a3.25,3.25,0,0,1,.85.18,3.87,3.87,0,0,1,.62.29l.94.5.06,0c-.38,0-.75.11-1.12.17a8.65,8.65,0,0,1-1.57.2H67c-.43,0-.86-.09-1.28-.15L65,30.65a8.35,8.35,0,0,0-1-.07h-.29a4.45,4.45,0,0,1,1.37-.7,5.49,5.49,0,0,1,2-.36m0-.25a5.73,5.73,0,0,0-2,.38,3.14,3.14,0,0,0-1.86,1.26c0-.07.38-.08.63-.08H64a7.93,7.93,0,0,1,1,.07c.68.08,1.34.22,2,.26h.26c1.09,0,2.14-.4,3.22-.4a3.55,3.55,0,0,1,.46,0l-1.87-1a5.51,5.51,0,0,0-.65-.31,3.68,3.68,0,0,0-.92-.19l-.48,0Z"/><path class="cls-9" d="M65.16,30.31a3.18,3.18,0,0,0,.16.32c.26.36.75.31,1.15.35l.8,0a.73.73,0,0,0,.44-.09c.16-.12.16-.33.22-.5a2.4,2.4,0,0,0,.13-.59.33.33,0,0,0,0-.17.36.36,0,0,0-.29-.13,13.5,13.5,0,0,0-1.68-.08c-.29,0-1,0-1,.42a1.05,1.05,0,0,0,.08.34Z"/><path class="cls-10" d="M66,30.42a.77.77,0,0,0,.4.06.67.67,0,0,0,.39-.1.77.77,0,0,0,.27-.46.45.45,0,0,0,0-.23.28.28,0,0,0-.17-.18.53.53,0,0,0-.25-.05,2.52,2.52,0,0,0-.67,0c-.24.05-.41.14-.38.41A.6.6,0,0,0,66,30.42Z"/><path class="cls-11" d="M66.19,30a.44.44,0,0,0,.16,0,.31.31,0,0,0,.21-.05.2.2,0,0,0,.07-.16.33.33,0,0,0-.43-.29A.26.26,0,0,0,66.19,30Z"/><path class="cls-12" d="M63.87,31.47c-.18,0-.37.12-.41.3a.42.42,0,0,0,.1.33,1.33,1.33,0,0,0,.69.49c.19.06.4.09.6.16a4.29,4.29,0,0,1,.58.26,8.82,8.82,0,0,0,1.12.41,3,3,0,0,0,.88.18,2.52,2.52,0,0,0,1-.24,1.25,1.25,0,0,0,.69-.54,1.43,1.43,0,0,0,.09-.5.18.18,0,0,0,0-.13.15.15,0,0,0-.12,0,2.89,2.89,0,0,0-.83.08,5.55,5.55,0,0,1-1,.09,2.57,2.57,0,0,1-1-.25c-.28-.13-.54-.3-.82-.44A2.4,2.4,0,0,0,63.87,31.47Z"/><path class="cls-4" d="M45.24,27.29a2.42,2.42,0,0,0-.56.95,1.09,1.09,0,0,0,.22,1.05c.39.39,1.05.32,1.52.6.2.12.35.29.53.42.64.45,1.51.4,2.21.74.28.14.53.34.81.46a3.62,3.62,0,0,0,1.39.22c1,0,2,0,2.93-.08A2.65,2.65,0,0,0,56,31.13a1.94,1.94,0,0,0,.53-.92A3.39,3.39,0,0,0,55.75,27a5.57,5.57,0,0,0-3.23-1.46,15.42,15.42,0,0,0-4.23-.25A5.33,5.33,0,0,0,45.24,27.29Z"/><path class="cls-13" d="M50,27l.25-.05a4.22,4.22,0,0,1,3.27.65,6.34,6.34,0,0,1,1,1.06c.07.08.66.89.75.81s0,0,0-.07a5.23,5.23,0,0,0-.61-1.14c-.09-.14-.17-.28-.27-.41-1-1.3-3.1-1.41-4.55-1.16a7.06,7.06,0,0,0-3.18,1.45c-.08.06-.16.16-.11.24A17.3,17.3,0,0,1,50,27Z"/><path class="cls-6" d="M47.52,28.71a.14.14,0,0,0,0,.06c0,.05.06.06.11.07a3.41,3.41,0,0,0,1.59-.45,5.43,5.43,0,0,1,1.42-.33c.15,0,1,.09,1.1-.11s-.57-.61-.75-.66a2.15,2.15,0,0,0-1,0A3.42,3.42,0,0,0,47.52,28.71Z"/><path class="cls-14" d="M53.81,30.76l-4.05,0a.76.76,0,0,0-.37.06.26.26,0,0,0-.13.32c.09.18.41.14.48.33a3.28,3.28,0,0,0-.75.24s-.07,0-.07.07.06.09.13.1a12.86,12.86,0,0,0,4.15-.13,3.47,3.47,0,0,0,1.65-.69.37.37,0,0,0,.15-.2C55.06,30.58,54,30.76,53.81,30.76Z"/><path class="cls-7" d="M52.34,30a13.64,13.64,0,0,1-2.12-.22,5.31,5.31,0,0,1-.77-.17,3.1,3.1,0,0,1-.45-.21c-.13-.06-.26-.13-.4-.18a7.8,7.8,0,0,0,.72-.31,5.22,5.22,0,0,1,1.29-.46,4.91,4.91,0,0,1,.67,0h.34a4.66,4.66,0,0,1,2.32.86l.57.42a2.55,2.55,0,0,1,.18.21v0l-.4,0c-.33,0-.65,0-1,0s-.61.05-.92.05Z"/><path class="cls-8" d="M51.28,28.47l.33,0a4.54,4.54,0,0,1,2.26.83l.31.23.24.18H54.3c-.33,0-.67,0-1,.05s-.61,0-.91,0h-.06a13.27,13.27,0,0,1-2.1-.22,6.27,6.27,0,0,1-.75-.17,2.86,2.86,0,0,1-.44-.2l-.13-.06.45-.2a4.53,4.53,0,0,1,1.26-.45,3.49,3.49,0,0,1,.65-.06m0-.25a3.85,3.85,0,0,0-.69.06,13.09,13.09,0,0,0-2.11.8,3.65,3.65,0,0,1-.55.13h.16c.5,0,.85.32,1.32.48a5,5,0,0,0,.79.17,13,13,0,0,0,2.14.23h.06c.64,0,1.27-.1,1.9-.1A4.36,4.36,0,0,1,55,30c-.06,0-.34-.42-.43-.49L54,29.12a4.7,4.7,0,0,0-2.38-.88l-.35,0Z"/><path class="cls-15" d="M50,29.45a1.42,1.42,0,0,0,.89.51,3.7,3.7,0,0,0,1,0,1,1,0,0,0,.39-.06.83.83,0,0,0,.43-.47,2.29,2.29,0,0,0,.14-.64.41.41,0,0,0,0-.22.41.41,0,0,0-.23-.15,4.82,4.82,0,0,0-1.41-.32,1.92,1.92,0,0,0-1.26.31A.8.8,0,0,0,50,29.45Z"/><path class="cls-16" d="M50.5,28.71a.44.44,0,0,0,.13.39.64.64,0,0,0,.37.2,1.17,1.17,0,0,0,.86-.1.35.35,0,0,0,.17-.15.58.58,0,0,0,0-.14.5.5,0,0,0-.07-.38.44.44,0,0,0-.29-.14C51.42,28.35,50.57,28.34,50.5,28.71Z"/><path class="cls-17" d="M51.3,28.53a.16.16,0,0,0-.19.12.21.21,0,0,0,.11.2.29.29,0,0,0,.24,0,.24.24,0,0,0,.08-.06.16.16,0,0,0,0-.22.26.26,0,0,0-.24-.06"/><path class="cls-8" d="M69.82,30.54c.29-.05.51-.06.77-.09a1.47,1.47,0,0,0,.69-.35h0a1.33,1.33,0,0,1-.65.54.76.76,0,0,1-.84-.08Z"/><path class="cls-8" d="M68.51,29.71a.39.39,0,0,0,.13-.13s.07-.09.12-.12.18-.22.28-.32h0a2.45,2.45,0,0,1-.15.43.38.38,0,0,1-.14.21c-.09,0-.23,0-.28-.06Z"/><path class="cls-8" d="M69.38,30.16a1.13,1.13,0,0,1,.45-.15.73.73,0,0,0,.38-.25h0a.7.7,0,0,1-.32.42.37.37,0,0,1-.53,0Z"/><path class="cls-8" d="M68.08,29.6c0-.06,0-.09.06-.14a.35.35,0,0,1,.11-.09,1.29,1.29,0,0,0,.2-.25h0a.71.71,0,0,1-.07.35.37.37,0,0,1-.1.17c-.06,0-.18.07-.24,0Z"/><path class="cls-8" d="M69.2,30.07l0,0,0,0c.08,0,.11-.07.17-.09l.19-.06a1,1,0,0,0,.35-.25l0,0a.89.89,0,0,1-.27.4.54.54,0,0,1-.22.13.26.26,0,0,1-.27-.08l0,0h0l0,0Z"/><path class="cls-8" d="M48.52,29.25a.61.61,0,0,1-.65-.05.93.93,0,0,1-.43-.51h0A.88.88,0,0,0,48,29a1.26,1.26,0,0,1,.58.22Z"/><path class="cls-8" d="M49.19,28.75a.35.35,0,0,1-.53-.13.59.59,0,0,1-.08-.54h0a.55.55,0,0,0,.2.4,2.27,2.27,0,0,1,.38.24Z"/><path class="cls-8" d="M49.61,28.54a.38.38,0,0,1-.39-.33.89.89,0,0,1,0-.51h0a1,1,0,0,0,.16.42.74.74,0,0,1,.22.4Z"/><path class="cls-8" d="M50.55,28.23c-.08-.14-.08-.19,0-.28a.78.78,0,0,0,0-.27l0,0a.56.56,0,0,1,.16.29.2.2,0,0,1-.15.29Z"/><path class="cls-18" d="M62.44,39.64c-.21.07-.43.12-.64.18a6.08,6.08,0,0,1-2.75,0,.67.67,0,0,1-.34-.13c.12-.06,0-.24-.05-.33s-.25-.17-.23-.3a.37.37,0,0,1,.07-.14.87.87,0,0,1,1-.23,1,1,0,0,0,.53.18c.14,0,.24-.14.35-.23a1.59,1.59,0,0,1,1-.38,3.78,3.78,0,0,1,1.06,0c.31.09.73.52,1.06.37s.44-.91.42-1.27a2.25,2.25,0,0,0-.08-.52,5.1,5.1,0,0,0-.19-.5l-.34-.75L63.92,37a1.65,1.65,0,0,1,.2,1.41,2.68,2.68,0,0,1-1.09,1A2.83,2.83,0,0,1,62.44,39.64Z"/><path class="cls-19" d="M56.63,38.32a2.48,2.48,0,0,1,1.1.33l.13.25a.25.25,0,0,1-.19,0,8.78,8.78,0,0,1-1.28-.24,3.81,3.81,0,0,0-1-.17C55.62,38.22,56.31,38.3,56.63,38.32Z"/><path class="cls-20" d="M61.7,38.74l.25-.08a1.25,1.25,0,0,1,.43,0,.54.54,0,0,1,.36.23.19.19,0,0,1,0,.1c0,.2-.7.07-.85.1a2.61,2.61,0,0,0-1,.37.47.47,0,0,1-.34.1s.48-.5.55-.54A2.42,2.42,0,0,1,61.7,38.74Z"/><path class="cls-21" d="M60.54,31.42a6.65,6.65,0,0,1-.5,3.71c-.31.53-.48,1.41.32,1.64a5.19,5.19,0,0,1,2.35.93.56.56,0,0,0,.29.14c.26,0,.47-.28.43-.54-.11-.84-1.23-1.63-1.47-2.59s-.23-2.25-.41-3.37c0-.29-.15-2-.68-1.83S60.51,31.07,60.54,31.42Z"/><path class="cls-22" d="M54.64,37.52a.22.22,0,0,0,.27.24c.89.07,1.71-.56,2.6-.49.31,0,.68.11.88-.13s.06-.56-.1-.81a4.15,4.15,0,0,0-.3-.43.68.68,0,0,0-.2-.18.57.57,0,0,0-.26,0,3.11,3.11,0,0,0-1.74.4C55.35,36.37,54.62,36.93,54.64,37.52Z"/><path class="cls-4" d="M54.93,35.06a4.93,4.93,0,0,0-.77.36,7,7,0,0,0-.88.92,15.44,15.44,0,0,1-2.49,1.92,3.77,3.77,0,0,1-1.35.66c-.21,0-.43,0-.63.1a2,2,0,0,0-.72.42,2,2,0,0,0-.68,1,2.5,2.5,0,0,0,.83,2.11,3.42,3.42,0,0,1,1.1,2c0,.18,0,.41.19.45s.28-.16.33-.32l.61-1.78a5.7,5.7,0,0,1,.83-1.74c.39-.47.92-.81,1.27-1.31a5.75,5.75,0,0,0,.59-1.42,9.76,9.76,0,0,1,2-3.39"/><path class="cls-4" d="M63.36,35.31a.35.35,0,0,0-.31.34.7.7,0,0,0,.1.34,5.7,5.7,0,0,1,.75,2.82c-.07.91-.52,1.85-.14,2.67a3.33,3.33,0,0,0,1.17,1.16,2.14,2.14,0,0,1,1,1.3c.08.67-.42,1.37-.17,2a.86.86,0,0,0,.48-.42,7.69,7.69,0,0,1,2-2.31,3.55,3.55,0,0,0,1.67-2,2.72,2.72,0,0,0-.1-1.2,2,2,0,0,0-.36-.77A3.36,3.36,0,0,0,68,38.42a14.36,14.36,0,0,1-3.46-2.37C64.33,35.88,63.62,35.27,63.36,35.31Z"/><path class="cls-23" d="M52.46,38.64a7.53,7.53,0,0,0,2.08-2.85,28.05,28.05,0,0,0-2.33,2.55c-.78.82-1.61,1.58-2.36,2.44A2.46,2.46,0,0,0,49.34,43a7.49,7.49,0,0,0,.28.92A4.45,4.45,0,0,1,49.81,45a2.74,2.74,0,0,0,.55-2,5.84,5.84,0,0,1,.08-1.67,4.42,4.42,0,0,1,.76-1.26A13.15,13.15,0,0,1,52.46,38.64Z"/><path class="cls-24" d="M65.89,40.11A5.5,5.5,0,0,1,66.81,43a.48.48,0,0,0,.08.38.32.32,0,0,0,.48-.14.92.92,0,0,0,0-.57,13.29,13.29,0,0,0-.89-3A5.74,5.74,0,0,0,65.35,38c-.17-.17-.79-.83-1.06-.78s.24.8.37,1C65.06,38.88,65.51,39.48,65.89,40.11Z"/><path class="cls-6" d="M55.61,39.28l0,0c.13.08.28.13.41.21.48.28.66.87,1,1.33a2.58,2.58,0,0,0,3.34.74,7,7,0,0,0,2.51-2.09,6.87,6.87,0,0,1-3.32.6,7.17,7.17,0,0,1-2.26-.36c-.64-.24-1.19-1.11-1.93-.78A.51.51,0,0,0,55.61,39.28Z"/><path class="cls-6" d="M53.39,45.92c-.32-.07-.53-.05-.58.14a.9.9,0,0,0,.18.64,9.43,9.43,0,0,0,2,2.4,3.49,3.49,0,0,0,.87.56c1.56.65,4.75,1.17,6-.28.47-.58.76-1.29,1.17-1.91a5,5,0,0,0,1-1.76c-.92.35-1.74,1-2.65,1.35a10.61,10.61,0,0,1-3.08.24,9.93,9.93,0,0,1-1.81-.06C56.06,47.18,54.31,46.13,53.39,45.92Z"/><path class="cls-25" d="M65.6,50c.52-.68,1-1.39,1.46-2.08-.24,3.68-3.44,6.41-6.86,7.22-1.15.27-3.56.83-4.7.54-1.78-.47-1.82-2.79.12-3,2.32-.26,4.41,1.21,6.87.31C63.78,52.51,64.79,51.07,65.6,50Z"/><path class="cls-26" d="M62.24,42.77l-5.45-.2c-1,0-1.94-.1-2.91-.11a16.5,16.5,0,0,0-3-.09.38.38,0,0,0-.26.13.27.27,0,0,0,.08.32A.8.8,0,0,0,51,43a6.85,6.85,0,0,1,1.51,1.08,11.7,11.7,0,0,0,6.18,2.11,7.26,7.26,0,0,0,3.39-.55,10.43,10.43,0,0,0,2.63-2,.55.55,0,0,0,.23-.37A6.35,6.35,0,0,0,62.24,42.77Z"/><path class="cls-27" d="M59.08,43.29a1.15,1.15,0,0,1,.46-.1,1.1,1.1,0,0,1,.63.2c.3.21.3.36.29.69l0,.77c0,.31,0,.66-.3.82a1.08,1.08,0,0,1-.44.09h-.63c-.21,0-.45,0-.55-.21a.62.62,0,0,1,0-.27,5.32,5.32,0,0,1,.09-1.38A1,1,0,0,1,59.08,43.29Z"/><path class="cls-27" d="M62.28,43.14a.41.41,0,0,1,.23-.09.21.21,0,0,1,.21.11.32.32,0,0,1,0,.14,5.79,5.79,0,0,1-.23,1.76.6.6,0,0,1-.08.2.24.24,0,0,1-.2.09c-.09,0-.14-.12-.18-.21a3.66,3.66,0,0,1-.25-.7A1.37,1.37,0,0,1,62.28,43.14Z"/><path class="cls-27" d="M56.64,43.2l0,0a1,1,0,0,1,.72-.29c1.21,0,1.4,1.68,1.08,2.54a.47.47,0,0,1-.12.19.38.38,0,0,1-.27.08,6.31,6.31,0,0,1-1,0,.94.94,0,0,1-.66-.19,1,1,0,0,1-.22-.81A2.63,2.63,0,0,1,56.64,43.2Z"/><path class="cls-27" d="M61.08,43.29a.45.45,0,0,1,.54.1.51.51,0,0,1,.1.21,2.76,2.76,0,0,1,.13,1c0,.39-.05.86-.52,1a1.08,1.08,0,0,1-.31,0h-.31c-.16,0-.36,0-.43-.17a.4.4,0,0,1,0-.24C60.25,44.53,60.4,43.59,61.08,43.29Z"/><path class="cls-27" d="M63.13,43.17a.6.6,0,0,0,.16.25.18.18,0,0,0,.26,0,.53.53,0,0,0,.06-.1.08.08,0,0,1,.1,0,.11.11,0,0,1,0,.07,2.26,2.26,0,0,1-.09.86,1.34,1.34,0,0,1-.53.67.48.48,0,0,1-.37.07.35.35,0,0,1-.21-.27.87.87,0,0,1,0-.36,2.48,2.48,0,0,1,.18-.66C62.77,43.58,63.14,43.2,63.13,43.17Z"/><path class="cls-27" d="M55.59,42.76a.45.45,0,0,1,.32.12.91.91,0,0,1,.24.36c.23.5.5,1.8-.31,2a1.69,1.69,0,0,1-.59,0,.64.64,0,0,1-.33-.13.62.62,0,0,1-.12-.38,3,3,0,0,1,.12-1.29C55,43.13,55.29,42.78,55.59,42.76Z"/><path class="cls-27" d="M53.14,42.49a.46.46,0,0,0-.28.25.92.92,0,0,0-.09.37,1.9,1.9,0,0,0,.17.91.56.56,0,0,0,.24.28.38.38,0,0,0,.41-.12,1.16,1.16,0,0,0,.2-.4,1.12,1.12,0,0,0,.05-.91A.85.85,0,0,0,53.14,42.49Z"/><path class="cls-27" d="M54.63,42.72a1.17,1.17,0,0,1,.2.34,2.06,2.06,0,0,1,.17.88,1,1,0,0,1-.41.76.71.71,0,0,1-.55.11.63.63,0,0,1-.43-.35,1,1,0,0,1-.06-.25,2.33,2.33,0,0,1,.1-1.31A.65.65,0,0,1,54.63,42.72Z"/><path class="cls-27" d="M52.79,42.73a4.1,4.1,0,0,1,.23.83.31.31,0,0,1,0,.19c-.24.54-1-.31-1-.64C51.93,42.61,52.54,42.06,52.79,42.73Z"/><path class="cls-28" d="M65.64,43.25a14.41,14.41,0,0,0-3-.84,6.69,6.69,0,0,0-1.84-.18,19,19,0,0,1-2,.11c-.4,0-.79-.08-1.19-.14a21,21,0,0,0-7.45.06l0,0s0,0,0,.07a2.45,2.45,0,0,0,1.11.32c.43-.05.86-.15,1.3-.18a18.53,18.53,0,0,1,3,0c2,.15,4,.42,6,.42a8.9,8.9,0,0,1,1.63,0l2.89.47Z"/><path class="cls-29" d="M56.19,45.73a9.79,9.79,0,0,1-2.76-1.08,9.49,9.49,0,0,1-1.25-.85,2.06,2.06,0,0,1-.48-.45c-.18-.29-.22-.78-.57-.91a4.23,4.23,0,0,0-.9-.13,7.08,7.08,0,0,0,1.6,2.9,9.65,9.65,0,0,0,2.34,1.66,5.41,5.41,0,0,0,1,.46,6.81,6.81,0,0,0,1.55.27,11.45,11.45,0,0,0,5.53-.37,9.52,9.52,0,0,0,3-2.23A1.72,1.72,0,0,0,66,43.6a.35.35,0,0,0-.19-.26.44.44,0,0,0-.16,0c-.66,0-.77.29-1.21.72a8,8,0,0,1-1.16.84,12.9,12.9,0,0,1-1.37.6,6.75,6.75,0,0,1-1,.44,6.66,6.66,0,0,1-2.48.11A15.66,15.66,0,0,1,56.19,45.73Z"/><path class="cls-30" d="M54.24,46.58a12.28,12.28,0,0,0,4.38.72A10.92,10.92,0,0,0,61.41,47a5.35,5.35,0,0,0,2.45-1.3.6.6,0,0,0,.23-.42l-1.42.6a10.81,10.81,0,0,1-1.19.46,6.78,6.78,0,0,1-1.25.26,13,13,0,0,1-4.3-.39,12.89,12.89,0,0,1-1.61-.47,7.12,7.12,0,0,1-1.82-1c-.11-.09-1-1.05-1.07-1a.05.05,0,0,0,0,0,.92.92,0,0,0,.17.81,3.5,3.5,0,0,0,1.06,1.17A8.14,8.14,0,0,0,54.24,46.58Z"/><path class="cls-31" d="M64.19,43.08l0,0c.55,0,.94.07,1.49.15,0,.07-.08.12-.16.14a2.53,2.53,0,0,0-1,.4,3.5,3.5,0,0,0-.24.3,2.25,2.25,0,0,1-.74.59,3.71,3.71,0,0,0,.49-.56,1.15,1.15,0,0,0,.18-.39.47.47,0,0,0-.06-.4s-.08-.09-.09-.15S64.15,43.05,64.19,43.08Z"/><path class="cls-32" d="M50.67,42.57a.68.68,0,0,1,.68.26,1.77,1.77,0,0,0,.57.52H52c.08,0,.08-.13.07-.21,0-.33.23-.69-.15-.83A2,2,0,0,0,50.67,42.57Z"/><path class="cls-33" d="M53.6,37.69a9.64,9.64,0,0,1,1-2.28,3.8,3.8,0,0,1,0,1c0,.25-.08.5-.12.75a1.13,1.13,0,0,0,.19,1c.14.13.32.21.39.38C54.53,38.45,53.4,38.51,53.6,37.69Z"/><path class="cls-34" d="M52.25,54.44c3.13,1.18,6.61,1.9,9.79.89a14,14,0,0,0,2.32-1,12.11,12.11,0,0,0,2.45-1.59c.63-.57,1.09-1.44,1.86-1.85-.2.11-.34.76-.49,1a8.83,8.83,0,0,1-.8.82,10.62,10.62,0,0,1-2,1.67A14,14,0,0,1,53.7,55.75,28.21,28.21,0,0,1,49.78,54l-1.9-1a7.54,7.54,0,0,1-2.12-1.43c-.38-.41-1.5-1.93-1.07-2.44A16.59,16.59,0,0,0,52.25,54.44Z"/><path class="cls-25" d="M44.93,40.29l-.11.08a.47.47,0,0,0,0,.29c.5,3.33,1.05,6.08,2.84,9a22.16,22.16,0,0,0,4.18,4.58c.11.1.23.2.37.17s.25-.37.19-.6c-.45-1.73-1.77-3.07-3-4.38-1-1.11-2.26-2.5-2.47-4.07-.11-.87-.44-5.54-1.94-5.06Z"/><path class="cls-6" d="M53.74,57.22a4.91,4.91,0,0,0-2.21.51c-1.41.84-1.65,2.78-1.45,4.41s.67,3.32.12,4.86c-.65,1.81-2,3.34-2.49,5.21a3.82,3.82,0,0,0,.26,3c.69,1.16,1.23,2.36,1.82,3.58a1.35,1.35,0,0,0,2.2.76,5.56,5.56,0,0,0,3-2.33c.17-.36.26-.75.41-1.12a5.8,5.8,0,0,1,1.68-2.22c1.7-1.48,4.26-2.18,5.46-4.14S64.12,65,65,62.74c.77-2,.41-4.09,1.16-6.13.37-1,.91-2.08.48-3.06-.22,0-.34.23-.42.44-.7,1.88-4.47,2.63-6.18,2.67C57.9,56.7,55.88,57.06,53.74,57.22Z"/><path class="cls-35" d="M12.82,72.08a23.47,23.47,0,0,0-4.3,6.18c-2.43,5-3.19,10.62-3.91,16.13L2.47,110.55a73.2,73.2,0,0,0-.92,13c.19,3.8,1,7.55,1.08,11.34.15,5.19-1,10.29-1.7,15.39-.65,4.49-1.59,10.52-.24,14.94A4.31,4.31,0,0,0,3,168c.84.34,1.88.36,2.47,1,.38.45.49,1.1.93,1.48A2.43,2.43,0,0,0,8,170.9l6.14,0a9.54,9.54,0,0,0,3-.32A17.38,17.38,0,0,0,22.54,167a3.16,3.16,0,0,0,.68-.78,4.64,4.64,0,0,0,.19-2.65,15.26,15.26,0,0,1,0-1.91c.64-10.39.59-20.64.46-31.06,2.36,5.41,4.78,11.17,4,17-.7,5.42-2.94,10.23-3.11,15.79-.05,1.47,0,3.09,1.05,4.15,1.26,1.35,3.39,1.25,5.23,1.08,8.64-.79,17.32-.93,26-.88,2.69,0,5.36-.39,8-.35,1.53,0,7.65.35,8.27,2.05.25.68-.42,1.35-.54,2.07a1.88,1.88,0,0,0,1.32,1.91,5.22,5.22,0,0,0,2.49.09c3.53-.45,7.06-1.17,10.63-1.05,2.94.11,5.87.79,8.81.54,2.13-.17,4.54-1.18,5-3.27s1.69-3.52,2-5.53c.4-2.59.73-5.21,1.3-7.83,4.15-19.14,2.9-39,1.64-58.51-.43-6.53-.86-13.11-2.64-19.4-1-3.68-2.69-7.41-5.78-9.67a21.51,21.51,0,0,0-7.22-3c-2.15-.58-4.42-1.17-6.56-.56-6.35,1.81-9.59,10.38-13.56,15A69.13,69.13,0,0,1,53.47,94.42a3.79,3.79,0,0,1-2,.72,3.81,3.81,0,0,1-2.36-1.46A112.88,112.88,0,0,1,36.78,78.39c-3-4.42-7.49-9.23-12.53-11.28C20.36,65.52,15.49,69.36,12.82,72.08Z"/><path class="cls-36" d="M7.76,81.92c0,.32-.08.63-.15,1-.49,2.45-1.43,4.67-.49,7.17.72,1.93,2.42,3.56,2.4,5.62,0,1.28-.71,2.44-1,3.68a11.15,11.15,0,0,0,.42,6.12c1.71,5.61,5.2,10.48,7.69,15.79,3,6.45,4.56,13.48,6.84,20.24a37.83,37.83,0,0,1,.09-9.39,17.53,17.53,0,0,0,.26-3,14.09,14.09,0,0,0-1-4.07A60,60,0,0,1,19.26,111a20,20,0,0,0-.91-5.57c-.81-2-1.08-2.64-.52-4.61a26.6,26.6,0,0,0,.69-7c0-5-.57-9.91.05-14.84.24-2,.67-3.89,1-5.82a1,1,0,0,0-.08-.83c-.22-.27-.64-.24-1-.17-3.75.77-8.13,3.21-10,6.69A8.29,8.29,0,0,0,7.76,81.92Z"/><path class="cls-37" d="M23.74,128.85A14,14,0,0,0,25,131.38L27.13,135c.16.27.4.59.72.53-1-3.3-3.35-5.92-4.64-9.07-1.36-3.33-1.42-7.08-3-10.34a73.46,73.46,0,0,0,2.12,9.8,23.71,23.71,0,0,1,.7,9.93A14.39,14.39,0,0,1,20,129.92c-.63-2.15-1-4.36-1.73-6.49-.79-2.43-2-4.72-2.88-7.11a37.22,37.22,0,0,1-1.28-4,12.17,12.17,0,0,0-.68-2.75,9.93,9.93,0,0,0-.07,4,25.11,25.11,0,0,0,2.2,7.52c1.37,3.09,3,6.06,4.12,9.27.33,1,.61,2,.88,3l2.59,9.39c.93-4.71,1.86-9.6.67-14.25-.32-1.26-.79-2.48-1.15-3.72-.06-.19-.11-.39-.16-.58"/><path class="cls-36" d="M37.65,143.39a13.12,13.12,0,0,1-.18-2.16c0-1.16.28-2.3.21-3.46A3.22,3.22,0,0,0,36,134.92c-2,1.48-2.26,4.3-2.35,6.78-.1,2.69,0,5.46-.15,8.12s-1.08,5.06-.94,7.75c.12,2.35.41,5.7,1.48,7.82a3.47,3.47,0,0,0,.74,1c1,.88,2.62.67,3.74,1.41a3.51,3.51,0,0,0,.82.51.65.65,0,0,0,.83-.26,1,1,0,0,0,0-.38A82.42,82.42,0,0,0,39.2,157c-.61-4.32-.82-8.71-1.47-13C37.7,143.75,37.68,143.57,37.65,143.39Z"/><path class="cls-36" d="M9.51,135.12a3.5,3.5,0,0,0-.39,2.42c.31,2,1.61,3.6,2.75,5.22a52.14,52.14,0,0,1,8,19.2c.37,1.7.89,3.7,2.51,4.33A63.28,63.28,0,0,0,24,155.52a11.89,11.89,0,0,0-.11-3.32,14.37,14.37,0,0,0-2.65-5,91.82,91.82,0,0,1-6-9.83C14.35,135.59,11.47,132,9.51,135.12Z"/><path class="cls-36" d="M79.56,82.52a32.4,32.4,0,0,0,0,9,65,65,0,0,1,1,7c.12,3.84-1.11,7.74-.19,11.47.56,2.27,1.87,4.27,2.7,6.45,2.54,6.62.53,14.09-2.38,20.55s-6.74,12.64-8,19.61a29.4,29.4,0,0,0,.86,13.66,46,46,0,0,1,.87-7.31,46.28,46.28,0,0,1,3.11-8.47,163.94,163.94,0,0,1,7.85-16.1c1.16-2,2.41-4,3.41-6.06a58.22,58.22,0,0,0,2.38-6.17l5.68-16.66c-1.45.24-2.47,1.53-3.28,2.76a47.56,47.56,0,0,0-4.68,9.08c-.51,1.31-1.29,2.9-2.7,2.9l4.3-14.85c2.34-8.09,4.69-16.23,5.38-24.62a10.54,10.54,0,0,0-7.7-11.06C83,72.21,80.07,78.45,79.56,82.52Z"/><path class="cls-36" d="M31.81,93.27a52.4,52.4,0,0,0-2,9.09,22.25,22.25,0,0,0,0,7.1,10.4,10.4,0,0,0,3.4,6.11c1.51,1.23,2.71,1.1,4.42.62s3.37.17,5-.29a3.67,3.67,0,0,0,1.18-.68,16.88,16.88,0,0,0,3.68-4,4,4,0,0,0,.87-2.84,9.16,9.16,0,0,0-.89-1.94,10.11,10.11,0,0,1-.58-3.64c-.22-4.1-.88-13.74-5.55-15.39S33.1,89.28,31.81,93.27Z"/><path class="cls-37" d="M83.28,109.59c-.08,3.11-.09,6.22-.1,9.33l0,13.35,0,9.45c2-3.41.22-7.72.68-11.64.14-1.24.51-2.45.72-3.69a27.84,27.84,0,0,0,.26-4.65q0-6,0-12.08c0-3.89.44-8.17-.14-12C83.38,101.36,83.38,105.71,83.28,109.59Z"/><path class="cls-36" d="M51.27,99.34c-1.31,1.46-2.59,3.19-2.51,5.15.08,2.31,2,4.19,2.34,6.48a18.28,18.28,0,0,0,.22,2.09,5,5,0,0,0,3.32,3,27.24,27.24,0,0,1,4.38,1.6c2.19,1.27,3.82,3.88,6.36,3.89a6.26,6.26,0,0,0,2.2-.52,13.36,13.36,0,0,0,5.36-3.35,6.36,6.36,0,0,0,1.6-5.89,10.44,10.44,0,0,1-.53-1.7c-.05-.44,0-.89,0-1.33-.12-2.57-2.81-4.19-3.91-6.51-.61-1.28-.73-2.79-1.59-3.92a6.92,6.92,0,0,0-2.88-1.93,28.7,28.7,0,0,1-3.75-1.8c-1.1-.69-2-2-3.32-1.78C56.14,93.32,52.83,97.59,51.27,99.34Z"/><path class="cls-38" d="M3,108.72a8.38,8.38,0,0,0,.25,2.4c.54,1.79,2.14,3,3.45,4.34,7.08,7.21,6.64,19.61,14,26.58-1.8-13.82-10.4-26.1-12-40C8.43,99.75,8.07,94,5,96.68,2.63,98.76,3,105.91,3,108.72Z"/><path class="cls-38" d="M34.47,130a44.76,44.76,0,0,0,1.87,8.9,134.9,134.9,0,0,1,3.68,19c1.69-2,1.68-4.82,1.57-7.41q-.5-10.68-1.53-21.31c-.19-1.88.08-6.84-3-6.4C34.3,123.17,34.36,128,34.47,130Z"/><path class="cls-38" d="M87.28,68.55a3.44,3.44,0,0,0,1.39,3c.88.74,1.94,1.23,2.88,1.9,4,2.91,4.83,8.5,5.28,13.47.35,3.94.69,8.06-.78,11.75-1.39,3.5-4.4,6.89-3.36,10.52a1.85,1.85,0,0,0,2.37-.23,5.22,5.22,0,0,0,1.2-2.28,138.71,138.71,0,0,0,4.93-20.3,102.65,102.65,0,0,1,1.19,14.11,5.7,5.7,0,0,0,.47,2.73,1.91,1.91,0,0,0,2.34,1,2.71,2.71,0,0,0,1.15-2.06,45.2,45.2,0,0,0-.68-20.43,23.93,23.93,0,0,0-5.31-10.43C98.7,69.52,88.07,63.52,87.28,68.55Z"/><path class="cls-39" d="M6.51,130.81a2.25,2.25,0,0,1,.56-1.71l.23,2.26a5.45,5.45,0,0,0,1.3-2.13,1.63,1.63,0,0,1,.27-.58.44.44,0,0,1,.58-.08c.19.17.1.47,0,.7a30.41,30.41,0,0,1-1.56,3.13c1.4,0,2.48-1.4,3.88-1.49a.43.43,0,0,1,.33.08c.2.21-.11.51-.37.63-1.17.51-2.35,1-3.54,1.45a1.82,1.82,0,0,0-.73.41,2,2,0,0,0-.35.88c-.19,1-.34,2-.59,2.92C6,137,6.37,135,6.39,134.4Z"/><path class="cls-40" d="M7.14,140.75c0-.06,0-.14,0-.16s.13,0,.16.09c.22.36,1.81,2.47,1.11,2.61S7.26,141.21,7.14,140.75Z"/><path class="cls-41" d="M4.48,138.39a.55.55,0,0,1-.63-.27c-.05-.09-.07-.2-.13-.29s-.58-.1-.72.15a1,1,0,0,0,0,.79,2.67,2.67,0,0,0,.44.7,1.49,1.49,0,0,0,.41.38.56.56,0,0,0,.53,0c.27-.16.27-.53.24-.84l0-.42c0-.14-.07-.32-.21-.31"/><path class="cls-42" d="M3,147.43a5.25,5.25,0,0,0-.84,2c0,.08,0,.19.07.2a.18.18,0,0,0,.09,0,1.61,1.61,0,0,0,.45-.63,1.66,1.66,0,0,1,.87-1,2.2,2.2,0,0,0,.44-.12.47.47,0,0,0,0-.85C3.66,146.79,3.2,147.11,3,147.43Z"/><path class="cls-40" d="M11,153.76a9.86,9.86,0,0,0,0-3,8.14,8.14,0,0,0-1.48-3.08,1.86,1.86,0,0,1-.29-.49,2.06,2.06,0,0,1,0-1.25.36.36,0,0,1,0-.09c.08-.09.21,0,.29.08a2.58,2.58,0,0,1,.64.87,7,7,0,0,1,.18.79,6.33,6.33,0,0,0,.61,1.29,12.11,12.11,0,0,1,1,3,11.47,11.47,0,0,1,1.83-1.58,3.8,3.8,0,0,1,2.28-.66c-.88.62-1.83,1.13-2.67,1.79A5,5,0,0,0,11.54,154a7.19,7.19,0,0,0-.09,2.22c0,.39.25,1.76-.29,1.89C10.44,158.23,10.91,154.3,11,153.76Z"/><path class="cls-43" d="M9.39,167.27c.14.08.3-.12.26-.28a1.08,1.08,0,0,0-.28-.4,1,1,0,0,1-.23-.66l.38.11a5.71,5.71,0,0,0,0-1.49,1.34,1.34,0,0,1,.59-1.28,18.56,18.56,0,0,0,.45,2.58.55.55,0,0,0,.42-.25.72.72,0,0,1,.29.63,2,2,0,0,1-.17.71l.65-.23c.06,0,.11,0,.16,0s.08.08.09.14c.17.62-.12,2-.9,2.12S9.51,167.89,9.39,167.27Z"/><path class="cls-44" d="M9.57,122.3a18.56,18.56,0,0,1-1.2-3.1c.31-.08.58.24.75.52A23,23,0,0,1,11,123.66c.07.21.18.45.4.48s.38-.16.54-.31a4.81,4.81,0,0,1,2.5-1.06,2.13,2.13,0,0,1,1.41,0c-.31-.17-1.95.79-2.28,1A24.7,24.7,0,0,0,11.31,125c-.66.41-.93.55-1.1-.3A13.17,13.17,0,0,0,9.57,122.3Z"/><path class="cls-45" d="M3.52,119.89a1.2,1.2,0,0,0-.28,1,3.93,3.93,0,0,1,.18.43c0,.17,0,.35.06.51a.53.53,0,0,0,.22.2,1.7,1.7,0,0,0,1.84-.1c.52-.38.77-.93,1.51-.67a1.26,1.26,0,0,0,.84.13c.35-.14.46-.58.52-1,.19-1,1.17-1.24,1.8-1.88a1,1,0,0,0,.23-.4,2.51,2.51,0,0,0-.62-2.67.64.64,0,0,0-.4-.2.7.7,0,0,0-.45.23c-.89.82-1.51,2-2.67,2.55A5.36,5.36,0,0,0,3.52,119.89Z"/><path class="cls-46" d="M5.56,124.7c-.14.13-.36,0-.54,0a1.61,1.61,0,0,0-1.62.11,1.67,1.67,0,0,0-.48,1.31,2.7,2.7,0,0,0,.54,1.77,1.64,1.64,0,0,0,1.69.58c.33-.11.81-.29.95,0a.81.81,0,0,1,0,.31,1,1,0,0,0,1.82.49,2.6,2.6,0,0,1,.28-.49c.32-.32.85-.14,1.28,0a2.29,2.29,0,0,0,2.13-.23,1.84,1.84,0,0,0,.19-2.45,2.63,2.63,0,0,0-2.43-.9,8.81,8.81,0,0,1-.88.11C7.25,125.35,6.67,123.66,5.56,124.7Z"/><path class="cls-47" d="M7.56,116.26c0,.44-.09,1.28-.58,1.45s-.66-.14-.92-.32a1.52,1.52,0,0,1-.39-.41s-.2-.47-.2-.47l.54.07a3.25,3.25,0,0,1-.15-1.42l.93.87c.37-.1-.11-.9.26-1A1.59,1.59,0,0,1,7.56,116.26Z"/><path class="cls-48" d="M7.18,122.18a12,12,0,0,1,.45,1.44c.28-.19.29-.6.29-.94a7.67,7.67,0,0,1,.19-1.58,3.91,3.91,0,0,1,.42,2.4,1.35,1.35,0,0,0,.7-.82c.15,0,.15.27.12.43L9,124.62a1,1,0,0,1-.33.65,1.35,1.35,0,0,1-1.7-.54,2.24,2.24,0,0,1,0-1.06C7.05,123.17,7.12,122.67,7.18,122.18Z"/><path class="cls-49" d="M12.62,120.35a2.44,2.44,0,0,0-.61-.74.87.87,0,0,0-.9-.09,1,1,0,0,0-.32,1.19,13.2,13.2,0,0,1,.44,1.25,1.63,1.63,0,0,1-.15,1,1.46,1.46,0,0,0-.16.39,1,1,0,0,0,.1.56.71.71,0,0,0,.16.28c.21.18.55,0,.82.14a.94.94,0,0,1,.44.5l.47.89a1.9,1.9,0,0,0,.35.52.64.64,0,0,0,1.1-.14,1.79,1.79,0,0,0,.17-.68,11,11,0,0,0,0-1.81,1.17,1.17,0,0,0-.22-.71,1.81,1.81,0,0,0-.32-.22C13.24,122.18,13,121.05,12.62,120.35Z"/><path class="cls-50" d="M14.26,122.48c-.39.23-1-.19-1.18-.58a1.44,1.44,0,0,1,0-.77l.14-.54a1.45,1.45,0,0,0,.47.42.25.25,0,0,0,.11,0c.08,0,.14-.07.19-.12a.68.68,0,0,1,.32-.18,5.51,5.51,0,0,0-.22.89c0,.16.12.23.2.35S14.46,122.37,14.26,122.48Z"/><path class="cls-51" d="M4.54,138.28a.64.64,0,0,1,.18-.58,1.2,1.2,0,0,1,.42-.17,1.53,1.53,0,0,0,.86-.64c.13-.2.26-.47.5-.46s.39.49.65.69.76,0,1-.29c0,0,.08-.07.12-.07a.15.15,0,0,1,.11.08.76.76,0,0,1,.08.73c.07.13.28,0,.4.11s0,.3-.05.47a.53.53,0,0,0,.64.63,2.68,2.68,0,0,1-.28.84.89.89,0,0,1-.72.47c-.17,0-.36-.05-.5,0s-.08.62-.26.87a.46.46,0,0,1-.55.12.81.81,0,0,1-.38-.45c-.09-.21-.15-.48-.37-.55s-.47.16-.71.21a.53.53,0,0,1-.53-.23c-.09-.16,0-.28,0-.42a.72.72,0,0,0-.18-.4A2,2,0,0,1,4.54,138.28Z"/><path class="cls-52" d="M6,137.8c.15,0,.28.11.42.09a.41.41,0,0,0,.19-.11,1.17,1.17,0,0,1,.51-.19.45.45,0,0,1,.59.34,2.4,2.4,0,0,1,.13.7,1.08,1.08,0,0,0,0,.19c0,.06.06.11.08.16a.55.55,0,0,1-.1.56.94.94,0,0,1-.52.27.53.53,0,0,0-.22.08S7,140,7,140s-.41,0-.56-.1-.26-.33-.45-.42c-.52-.26-.12-.47-.12-.87C5.83,138.41,5.45,137.79,6,137.8Z"/><path class="cls-53" d="M9.1,139.92c0-.16.12-.34.28-.34s.32.28.53.31.31-.12.47-.09.25.27.25.46a.82.82,0,0,0,.09.54l.09.09a.27.27,0,0,1-.15.33,1.33,1.33,0,0,0-.35.2c-.15.16-.13.43-.3.56a.38.38,0,0,1-.43,0,1.18,1.18,0,0,1-.31-.32.29.29,0,0,1-.43,0,.41.41,0,0,1,0-.46.3.3,0,0,0,.07-.15c0-.13-.15-.21-.22-.33-.16-.28.14-.27.24-.39S9.07,140.24,9.1,139.92Z"/><path class="cls-54" d="M5.76,144.89c.4-.33,1,.18,1.5.05s.53-.45.65-.78a1.75,1.75,0,0,1,.49-.92.39.39,0,0,1,.2-.08c.16,0,.24.18.29.33a7.27,7.27,0,0,1,.33,3.14,5.48,5.48,0,0,0-.09,1.21,4.05,4.05,0,0,1,.07.7,2.1,2.1,0,0,1-.55,1.09l-.72.92c0,.06-.11.14-.2.14s-.18-.12-.22-.23a3.8,3.8,0,0,1,.15-2.81c-.1.23-.76.49-1,.5s-.74-.48-1.11-.35a1,1,0,0,1,.36-.83c.11-.11.71-.24.7-.37S5.75,144.89,5.76,144.89Z"/><path class="cls-55" d="M9.57,155.63a.47.47,0,0,1,.56.25,1,1,0,0,0,.09.18.33.33,0,0,0,.3.1.93.93,0,0,1,.33,0,.21.21,0,0,1,.15.25c0,.06-.09.11-.11.17s.07.19.16.23.2,0,.27.13,0,.38-.15.51-.34.27-.33.47,0,.13,0,.19-.23.32-.43.29a1.25,1.25,0,0,1-.49-.3.35.35,0,0,0-.26-.12c-.12,0-.2.12-.3.15A.35.35,0,0,1,9,158a.94.94,0,0,1-.09-.47.2.2,0,0,0,0-.15.27.27,0,0,0-.13-.07.59.59,0,0,1-.25-.67.66.66,0,0,1,.17-.38c.18-.21.38,0,.55-.13S9.3,155.71,9.57,155.63Z"/><path class="cls-56" d="M9.51,157a.46.46,0,0,1,0-.48.4.4,0,0,1,.43-.19c.18,0,.31.2.49.22h.12c.13,0,.15.22.1.35a1.7,1.7,0,0,0-.19.35,1,1,0,0,1,0,.18c-.09.16-.32.13-.5.07a.67.67,0,0,1-.32-.17.23.23,0,0,1,0-.33"/><path class="cls-57" d="M3.09,153.89a2.09,2.09,0,0,1,1-.33,1.68,1.68,0,0,1,1.42,1.35,6.16,6.16,0,0,1-.28,2.79,13.58,13.58,0,0,0-.52,3.1c0,.33,0,.66,0,1A12.26,12.26,0,0,1,4.31,165a.58.58,0,0,1-.27.43.61.61,0,0,1-.54-.13,2.45,2.45,0,0,1-1.16-1.11,2.52,2.52,0,0,1-.07-1,16.89,16.89,0,0,0,0-2,1.3,1.3,0,0,0-.2-.75,2.46,2.46,0,0,0-.48-.43A1.92,1.92,0,0,1,1,158.61a5.84,5.84,0,0,1,.21-1.5C1.51,155.81,1.84,154.61,3.09,153.89Z"/><path class="cls-58" d="M1.33,154.18a2.43,2.43,0,0,1,.13-.89,1.69,1.69,0,0,1,.67-.73,2.39,2.39,0,0,1,1.21-.4,1.53,1.53,0,0,1,1.15.48,2.59,2.59,0,0,1,.49,1.5.53.53,0,0,1,0,.37c-.1.16-.33.18-.53.17a5.94,5.94,0,0,0-1.46,0,1.3,1.3,0,0,0-1,.93c-.06.32,0,1-.4,1.12-.23.1-.16.13-.23-.14a3.41,3.41,0,0,1,0-.9C1.33,155.21,1.33,154.69,1.33,154.18Z"/><path class="cls-58" d="M1.51,160.14a.59.59,0,0,0,.07.51c.08.15.2.29.27.45.25.58-.1,1.21-.21,1.83a2.5,2.5,0,0,0,1.77,2.79c.18.05.43,0,.48-.14a.38.38,0,0,0,0-.21c-.2-.42-.75-.53-1.09-.85a2.37,2.37,0,0,1-.42-2c0-.47,0-.95,0-1.42a1.69,1.69,0,0,0-.21-.94C2,160,1.67,159.76,1.51,160.14Z"/><path class="cls-59" d="M6.13,160.62a3.9,3.9,0,0,1,1.59-.92,3.76,3.76,0,0,1,1.43-.35,1.33,1.33,0,0,1,1.21.69c.14.32.1.69.21,1s.48.64.77.46a.71.71,0,0,0,.25-.61,4.44,4.44,0,0,0-.17-1.41.31.31,0,0,1,0-.19.24.24,0,0,1,.11-.09,1,1,0,0,1,.89.16,3.12,3.12,0,0,1,1.39,3.2.91.91,0,0,1-.17.42c-.19.24-.58.36-.6.67s.13.33.18.5A1,1,0,0,1,13,165a9.58,9.58,0,0,1-.73.95c-.17.19-.41.39-.65.3a.65.65,0,0,1-.3-.33l-.35-.62c-.05-.09-.1-.18-.2-.2a.32.32,0,0,0-.19,0A3.38,3.38,0,0,0,9,166.83a5.38,5.38,0,0,1-1.3,1.87,2.41,2.41,0,0,1-1.62.46.85.85,0,0,1-.38-.12.74.74,0,0,1-.25-.39,3.34,3.34,0,0,1,0-1.26l.14-1.55a5.28,5.28,0,0,0,0-1.19,1.87,1.87,0,0,1,0-1c.12-.28.38-.32.34-.63s-.23-.51-.27-.78A2,2,0,0,1,6.13,160.62Z"/><path class="cls-60" d="M5.63,160a1.16,1.16,0,0,1,.75-.47c.16,0,.33,0,.49,0a2.64,2.64,0,0,0,.93-.53,2.86,2.86,0,0,1,3.41.22c.11.09.26.2.39.12s.07-.3.15-.43.36-.15.55-.07a3.81,3.81,0,0,1,2.42,3.12,7.57,7.57,0,0,1,0,1.26,4.79,4.79,0,0,1-.36,1.84,10.72,10.72,0,0,1-1.83,2,.44.44,0,0,1-.14.13A.31.31,0,0,1,12,167a.7.7,0,0,1,0-.49c.33-.86,1.13-1.52,1.29-2.43.05-.31,0-.64.11-1,.14-.5.58-.93.52-1.45a1.67,1.67,0,0,0-.41-.76,3.36,3.36,0,0,0-1.48-1.27.48.48,0,0,0-.52.09c-.12.16,0,.38,0,.56a1.89,1.89,0,0,1,.11.91.54.54,0,0,1-.15.37.49.49,0,0,1-.62-.06,1.66,1.66,0,0,1-.32-.6,2.29,2.29,0,0,0-.87-1.23,1.67,1.67,0,0,0-1.28-.11,3.67,3.67,0,0,0-1.15.62,2.72,2.72,0,0,0-1.28,2,5.21,5.21,0,0,1,.08,1.18c-.11.48-.57.88-.49,1.36,0,.15.11.29.13.43a1.13,1.13,0,0,1,0,.41,17.37,17.37,0,0,0-.11,2.79c0,.32.08.72.39.84a.83.83,0,0,0,.67-.15,5.33,5.33,0,0,0,2.07-2.19c.1-.18.21-.39.41-.43s.51.28.63.56.23.72,0,1a.91.91,0,0,1-.29.19,12.06,12.06,0,0,0-1.34.9,2.93,2.93,0,0,1-1.48.61A1.34,1.34,0,0,1,5.36,169a5.36,5.36,0,0,1-.14-1.12,2.28,2.28,0,0,1-.11-1.16c.1-.41.27-.81.34-1.23a11.87,11.87,0,0,0-.39-2.87A4,4,0,0,1,5.63,160Z"/><path class="cls-61" d="M6.34,161.9a.2.2,0,0,0,.18.2.59.59,0,0,0,0,.32.28.28,0,0,0,.23.22l.16,0c.06,0,.13,0,.14.07.21-.11.22-.41.19-.65,0,.06.15,0,.18-.07s0-.17.11-.22a.37.37,0,0,1,.15,0,.31.31,0,0,0,.22-.18.57.57,0,0,0,.26,0,.16.16,0,0,0,.09.11.29.29,0,0,0,.29-.14.31.31,0,0,0,.33.08A.29.29,0,0,0,9,161.3a.25.25,0,0,0,0-.12,1.05,1.05,0,0,0-.16-.46.36.36,0,0,0-.43-.11.17.17,0,0,0-.21-.1l-.09.05a.38.38,0,0,1-.21,0,.28.28,0,0,0-.2,0c-.06,0-.09.13,0,.16a.31.31,0,0,0-.45.21c0-.08-.13-.12-.19-.06a.34.34,0,0,0,0,.26.23.23,0,0,0-.31.32A4,4,0,0,0,6.34,161.9Z"/><path class="cls-62" d="M8.22,162.8c-.23,0-.49.17-.68,0a.55.55,0,0,1-.17-.27l-.13-.42a1.73,1.73,0,0,0,.52.45c-.06-.25-.12-.5-.19-.75l.48.68a1.72,1.72,0,0,0-.13-.89l.37.67a4.16,4.16,0,0,0,.12-.69.56.56,0,0,1,.25.32.48.48,0,0,1-.09.32l-.32.6"/><path class="cls-63" d="M82.36,164.94l2.47,2.88c-.32-3.48,1.65-6.69,3.35-9.73,2.14-3.85,4-8.35,2.68-12.55a6.54,6.54,0,0,1,1.23,4.72c1.9-3.82.79-8.39,1.33-12.62A31.5,31.5,0,0,1,94.85,132a29,29,0,0,1,1.84-4.8,14.53,14.53,0,0,0,1.77-3.79,16.36,16.36,0,0,1,.47-2.91c.54-1.28,2-2.22,1.92-3.61,0-1.17-1.17-2.39-.5-3.35l.7,1.84.4-5.72a17,17,0,0,1,.21,5.33l2.1-1.67c.19,1.18-1.26,1.88-2,2.85a4.89,4.89,0,0,0-.54,1.1l-3.05,7.54,1.39-.34a37.42,37.42,0,0,0-4.39,8.73,26.66,26.66,0,0,0-1.31,9.71c.11,2.24.48,4.61-.53,6.6A3.9,3.9,0,0,1,97.9,149a8.66,8.66,0,0,0-4.4,1.66A8.15,8.15,0,0,0,91.87,153a97.63,97.63,0,0,0-6.44,14.44l3.17-2.57a7.56,7.56,0,0,1,1.49-1,3.82,3.82,0,0,0,2.54-4.31,1.38,1.38,0,0,0,1.87,0,1.19,1.19,0,0,1,.41-.26c.16,0,.37.06.37.22a7.43,7.43,0,0,1-1.16,2.19,18.32,18.32,0,0,0-1.63,1.67,6.5,6.5,0,0,1-.67,1,3.58,3.58,0,0,1-1.17.63,13.31,13.31,0,0,0-3,2,6.14,6.14,0,0,0-1.92,2.73c-.14.42-.36,4,.1,4.13-1.37-.29-1.29-2.59-1.56-3.69C83.88,168.66,83.41,166.16,82.36,164.94Z"/><path class="cls-64" d="M79.2,152a7.93,7.93,0,0,1,3.44.83c1.08.64,2.64,3.28.43,2.56A7.4,7.4,0,0,1,81,153.89C80.66,153.6,79.53,152.06,79.2,152Z"/><path class="cls-65" d="M100.62,110.21a2,2,0,0,0-.2-1.28c-.12-.21-.31-.41-.27-.65a.57.57,0,0,0,.81-.17,1.64,1.64,0,0,0,.18-.91,1,1,0,0,0,.53,0,1.28,1.28,0,0,1,.5-.73,12.64,12.64,0,0,0-.16,1.66,11,11,0,0,1-.4,1.39,5.78,5.78,0,0,1-1.17,2.22C100.11,111.55,100.56,110.6,100.62,110.21Z"/><path class="cls-66" d="M97.45,119.87a3.58,3.58,0,0,0-.4,1.09.49.49,0,0,0,0,.24.73.73,0,0,0,.16.23,2,2,0,0,0,1,.66,1.74,1.74,0,0,1,.39,0c.12,0,.23.13.35.18a1,1,0,0,0,.75-.11,1.9,1.9,0,0,0,.73-.45,2,2,0,0,0,.38-.84,1.65,1.65,0,0,0,.06-.93.89.89,0,0,0-.7-.61c-.48-.07-1.08,0-1.56-.06S97.76,119.3,97.45,119.87Z"/><path class="cls-67" d="M98,128.56a.33.33,0,0,1,.34-.21c.35.05.29.69.63.77a1.54,1.54,0,0,0,.43-.06.52.52,0,0,1,.45.58,1.57,1.57,0,0,1-.36.73.64.64,0,0,1,.59.8.83.83,0,0,1-.9.55.3.3,0,0,0-.21,0c-.11.07-.06.24,0,.37a.52.52,0,0,1-.83.48.26.26,0,0,0-.14-.09.55.55,0,0,0-.17,0,.51.51,0,0,1-.59-.38,1.25,1.25,0,0,1,.1-.76.6.6,0,0,0,.07-.37c-.09-.4-.88-.36-.87-.77a.46.46,0,0,1,.22-.34c.27-.21.84-.21,1-.41S97.87,128.9,98,128.56Z"/><path class="cls-68" d="M98.72,117.16a8.05,8.05,0,0,0,.19,1.62l.42-2.13.13,1.64a3.64,3.64,0,0,0,.6-1c0,.56-.09,2.29-1,2.16S98.72,117.68,98.72,117.16Z"/><path class="cls-69" d="M94.6,129a.93.93,0,0,1,1.24.82.76.76,0,0,0,0,.34.55.55,0,0,0,.28.24,1.3,1.3,0,0,1,.63,1.36.94.94,0,0,1-1.23.66,1.16,1.16,0,0,1,.08,1.32,1.57,1.57,0,0,1-1.5.59,1.53,1.53,0,0,0-.64,0l-.25.13a.88.88,0,0,1-1.06-.41,1.69,1.69,0,0,1-.12-1.21,1.5,1.5,0,0,0-.56,0c-.84,0-.27-1,.1-1.24.54-.38.63,0,.67-.81,0-.48-.17-1.13.43-1.38.35-.15.7.16,1.06.09S94.3,129.1,94.6,129Z"/><path class="cls-70" d="M94.92,130.83a1.37,1.37,0,0,1,.2,1.15,1.18,1.18,0,0,1-.3.56,1.34,1.34,0,0,1-1,.27,1.12,1.12,0,0,1-.94-.42,1.08,1.08,0,0,1-.06-.93,2.16,2.16,0,0,1,.31-.67A1.11,1.11,0,0,1,94.92,130.83Z"/><path class="cls-71" d="M96,134.72c.25-.32.19-.89.57-1a.55.55,0,0,1,.31,0,.78.78,0,0,1,.53.91.52.52,0,0,1,.39,0,.37.37,0,0,1,.1.42,1.21,1.21,0,0,1-.28.36.86.86,0,0,1,.23.81c-.09.27-.51.41-.69.18-.17.15-.09.48-.27.61a.47.47,0,0,1-.2.06c-.21,0-1.07-.26-1.14-.48-.16-.5.14-1.37-.47-1.77a.68.68,0,0,1,.73-.15"/><path class="cls-72" d="M105.07,138.31c0,.12.09.27.21.29a.33.33,0,0,0,.27-.11c.47-.43.75-1.07,1.31-1.36a1.84,1.84,0,0,0,.48-.26.87.87,0,0,0,.2-.31c.17-.43.15-.93.36-1.34a2.26,2.26,0,0,0,.19-.42,1.1,1.1,0,0,0,0-.47l-.14-.56a1.46,1.46,0,0,0-.29-.63c-.65-.7-1.12.19-1.35.67a2,2,0,0,1-1,1C103.94,135.62,104.69,137,105.07,138.31Z"/><path class="cls-73" d="M111.45,138l.07,1.16.33-.49"/><path class="cls-74" d="M92,144.28a1.37,1.37,0,0,1-1.72.18,2.88,2.88,0,0,0,.85-1.12,1.57,1.57,0,0,0,.27-1.19c-.12-.39-.51-.62-.84-.86s-.64-.64-.51-1l1.21.52c.1.05.24.09.32,0s.08-.21,0-.32a21.64,21.64,0,0,0-.56-2.1c.77,0,1,1.3,1.82,1.26a1,1,0,0,0,.73-.54,3.74,3.74,0,0,1,.51-.8.68.68,0,0,1,.43.56,1.87,1.87,0,0,1-.1.74,9,9,0,0,1-1,2.73A10.46,10.46,0,0,1,92,144.28Z"/><path class="cls-75" d="M105.39,134.58a.78.78,0,0,1-.54-.45,1.84,1.84,0,0,1-.16-.7,1.79,1.79,0,0,0,.77.56l-.22-1.5c.16.06.23.25.3.4s.23.31.39.26l0-.85a3.1,3.1,0,0,1,.44.94,1,1,0,0,1-.25,1,.73.73,0,0,1-.56.19"/><path class="cls-76" d="M94.31,144.62c.36-.11.77.33,1.08.12a.94.94,0,0,1,.19-.14c.18-.08.35.13.44.32a1.43,1.43,0,0,1,.23.93.4.4,0,0,0,0,.24c0,.08.12.11.17.17s0,.38-.1.52-.28.31-.27.5.06.18.06.26a.36.36,0,0,1-.41.34.49.49,0,0,1-.37-.44c0-.13-.06-.34-.18-.28a.14.14,0,0,0-.08.07l-.3.46c-.24.13-.49-.19-.51-.46s0-.58-.16-.78-.12-.1-.17-.16A4.89,4.89,0,0,1,94.31,144.62Z"/><path class="cls-70" d="M95.55,145.92c-.12-.37-.23-.6-.65-.6a.3.3,0,0,0-.16,0,.35.35,0,0,0-.13.2.92.92,0,0,0,0,.78.76.76,0,0,0,.39.38.45.45,0,0,0,.5-.14A.77.77,0,0,0,95.55,145.92Z"/><path class="cls-11" d="M85.82,155.76l-1.39.29a2,2,0,0,0-1,.41,1.84,1.84,0,0,0-.44.88l-.21.69a.79.79,0,0,0,0,.43.43.43,0,0,0,.36.32.45.45,0,0,0,.43-.23l0,.6s0,.1,0,.13a.21.21,0,0,0,.15.05,1.88,1.88,0,0,0,.92-.55c.28-.22.71-.38,1-.15s.2.38.3.57a1,1,0,0,0,1.37.38,2.53,2.53,0,0,1,.49-.31,1.56,1.56,0,0,1,.81.15c.26.08.61.06.73-.19a1.22,1.22,0,0,0,0-.43.37.37,0,0,1,.18-.36h.16a1.12,1.12,0,0,0,1-1.35c0-.17-.12-.32-.17-.49a3.29,3.29,0,0,1,0-1,1,1,0,0,0-.33-.89,1.26,1.26,0,0,0-1.1,0l-1.18.44c-.08,0-1.25.71-1.11.83A1.06,1.06,0,0,0,85.82,155.76Z"/><path class="cls-77" d="M92.47,155.83l.71.79a.64.64,0,0,0,.31.23.48.48,0,0,0,.38-.1c.43-.31.51-.9.78-1.36a.16.16,0,0,1,.09-.09c.11,0,.18.11.19.23.08.62.15,1.25.19,1.88a.29.29,0,0,0,.1.23.27.27,0,0,0,.18,0l1.93-.32a1.43,1.43,0,0,1-.47,1,3.61,3.61,0,0,1-.94.58,22.84,22.84,0,0,1-2.92,1,1.81,1.81,0,0,1-.86.11,2,2,0,0,1-.66-.34,2.56,2.56,0,0,1-1-1c.49,0,2.26.26,2.19-.49,0-.38-.31-.72-.37-1.1a2.09,2.09,0,0,1,0-.66C92.32,156.34,92.48,155.84,92.47,155.83Z"/><path class="cls-78" d="M86,152.28c.16,0,.23.18.26.33l.4,2.22a2.12,2.12,0,0,0,.2-1.41A2.66,2.66,0,0,1,87,152l.41,2.71a3.2,3.2,0,0,0,.42-1.73l0-.66a3.4,3.4,0,0,1,.3,2.23,1.13,1.13,0,0,1-.37.81c-.55.59-1.48.69-1.8-.2A6.32,6.32,0,0,1,86,152.28Z"/><path class="cls-79" d="M88.15,163.45a.44.44,0,0,0,0-.15c0-.09-.08-.14-.14-.2a.68.68,0,0,1,0-.94,2.92,2.92,0,0,1,.22-1.31,2.74,2.74,0,0,1,.86-.93c.29.51.89.74,1.3,1.16a.65.65,0,0,0,.55.28,1,1,0,0,1,.65.46c.1.16.15.35.24.52s.28.39.41.59a3.7,3.7,0,0,1,.45,1.58,3.24,3.24,0,0,1,0,1.12c-.05.23-.15.44-.21.66s-.12.74-.22,1.1c-.21.68-.77,1.26-.81,2,0,.34,0,.79-.28.92a1.41,1.41,0,0,0-.87-.62c-.16,0-.34,0-.43-.18s-.06-.31-.09-.47a.65.65,0,0,0-.5-.43,2,2,0,0,0-.69,0v-1a.32.32,0,0,0,0-.14c-.07-.12-.25-.1-.34-.19s0-.77-.07-1a4.86,4.86,0,0,0-.32-.74A2.56,2.56,0,0,1,88.15,163.45Z"/><path class="cls-80" d="M76.38,161.27a7.28,7.28,0,0,0-.72,1.73,2.23,2.23,0,0,0-.09.77,6.35,6.35,0,0,0,.94,2,1.38,1.38,0,0,1,.15.43c.07.6-.52,1.07-.72,1.64a2.11,2.11,0,0,0,.71,2.11,2,2,0,0,0,.71.48,2.44,2.44,0,0,0,1.23.05,15.1,15.1,0,0,0,1.63-.31,1.3,1.3,0,0,0,.51-.22,1.17,1.17,0,0,0,.34-.59,5.79,5.79,0,0,0,.25-2.34c0-.38-.08-.83.2-1.09a1,1,0,0,1,.85-.19,4.61,4.61,0,0,1,1.27.3,1.54,1.54,0,0,0,1.12.15c.37-.16.49-.61.57-1,.15-.78.27-1.57.36-2.36a3.22,3.22,0,0,0,0-1,2.93,2.93,0,0,0-1.29-1.66,2.62,2.62,0,0,0-2.35-.64,5.62,5.62,0,0,0-.79.46,1.11,1.11,0,0,1-.88.15A1.69,1.69,0,0,1,80,160a2.62,2.62,0,0,0-3.39.86C76.53,161,76.45,161.12,76.38,161.27Z"/><path class="cls-81" d="M75.94,160.81c-.15.32-.21.68-.38,1s-.25.36-.36.55a1.83,1.83,0,0,0-.24,1A5.51,5.51,0,0,1,75,164c0,.68-.55,1.33-.33,2a1.72,1.72,0,0,0,.23.42l.74,1a.37.37,0,0,0,.2.17.26.26,0,0,0,.19,0c.53-.22.81-.94,1.39-1-.36-.34-.72-.69-1.06-1.05a2.07,2.07,0,0,1-.44-.58,2.31,2.31,0,0,1-.12-1c0-.5,0-1,.08-1.5a.46.46,0,0,1,.07-.26c.07-.09.19-.11.29-.17.38-.21.31-.76.42-1.18a1.24,1.24,0,0,1,.65-.8,2.45,2.45,0,0,1,1.29-.12,8.43,8.43,0,0,1,2.24.4,1.45,1.45,0,0,0,.44.12.73.73,0,0,0,.63-.77,1.69,1.69,0,0,0-.48-1,5.58,5.58,0,0,1-.69-.85.85.85,0,0,0-.19-.3.72.72,0,0,0-.52-.11,5.36,5.36,0,0,0-1.68.4.89.89,0,0,0-.31.19,1.09,1.09,0,0,0-.19.49C77.57,159.58,76.37,159.83,75.94,160.81Z"/><path class="cls-82" d="M82,159.79a2.87,2.87,0,0,1,2,.23c.51.35.78,1,1.35,1.26a.37.37,0,0,1,.18.11.38.38,0,0,1,0,.19,5.51,5.51,0,0,1-.27,1.5,2,2,0,0,0-.16.83c0,.28.21.52.27.79a1,1,0,0,1-.12.66.64.64,0,0,1-.5.33,1.22,1.22,0,0,1-.32,0,1.62,1.62,0,0,0-.62,0s-.12,0-.14.09v.08a1.13,1.13,0,0,0,.94.85,1.79,1.79,0,0,0,1.27-.38,1.46,1.46,0,0,0,.66-1.41,2.75,2.75,0,0,0-.28-.57,1.91,1.91,0,0,1-.26-1.37c.06-.22.18-.42.23-.64a1.82,1.82,0,0,0-.34-1.24,4,4,0,0,1-.61-1.15,1.18,1.18,0,0,0-.07-.2.58.58,0,0,0-.19-.16,4.18,4.18,0,0,0-1.4-.49,1.9,1.9,0,0,0-1.08.11C82.42,159.27,82.08,159.79,82,159.79Z"/><path class="cls-83" d="M76.38,170.94a2.2,2.2,0,0,0,1.62.17,3.75,3.75,0,0,1,1.66-.1,1.35,1.35,0,0,0,.56.09,1.08,1.08,0,0,0,.3-.16l.94-.68a.79.79,0,0,0,.22-.19,1,1,0,0,0,.08-.29,2.93,2.93,0,0,0,0-1c-.07-.45-.34-.84-.39-1.29a8.69,8.69,0,0,0,0-1.35,1.58,1.58,0,0,0-.59,1.37,9,9,0,0,1,0,1.55,1.2,1.2,0,0,1-1,1.09,2.91,2.91,0,0,0-.59,0c-.14,0-.26.14-.4.19a2.28,2.28,0,0,1-.64,0,4.74,4.74,0,0,1-.75.06c-.47-.05-.71-.39-1-.72-.15-.18-.87-.83-.74-1.12A2.31,2.31,0,0,0,76.38,170.94Z"/><path class="cls-22" d="M63,13.07a2.37,2.37,0,0,0-.66.56A1.52,1.52,0,0,0,62,15.11c.78,1.92,4.86,2.36,6.52,2.76a5.65,5.65,0,0,1,1.26.42c.87.46,1.53,1.39,2.52,1.49-.34,0-1.47-2.26-1.72-2.6A13,13,0,0,0,69,15.43c-1.37-1.37-3.26-3.46-5.34-2.67A4.85,4.85,0,0,0,63,13.07Z"/><path class="cls-6" d="M47.86,20a12.15,12.15,0,0,1,4.65-1.84,34.55,34.55,0,0,0,4.21-.49c1.36-.39,2.69-1.46,2.73-2.88a11.62,11.62,0,0,1,0-1.18c.08-.75.91-1,1.35-1.56.07-.08.14-.2.08-.29a.24.24,0,0,0-.16-.07c-.95-.15-1.73.47-2.63.66s-1.77.15-2.67.34a19.2,19.2,0,0,0-6.23,2.27,19.75,19.75,0,0,0-6,6.08c-.8,1.18-1.52,2.4-2.21,3.64-.41.71-1.51,3.12.4,1.93a11.44,11.44,0,0,0,2.75-3.15A14.35,14.35,0,0,1,47.86,20Z"/><path class="cls-24" d="M65.93,45.25A2.75,2.75,0,0,0,66,42.67a.23.23,0,0,0-.18-.13c-.11,0-.15.14-.17.24a1.42,1.42,0,0,0,.08.89,1.17,1.17,0,0,1,.21.47,2,2,0,0,1,0,.24l-.27,1.16c.08.06.18,0,.22-.14Z"/><path class="cls-4" d="M49.13,53.6c-.81-.47-1.6-1-2.44-1.42-.46-.25-1.59-.83-1.56-1.52a1.66,1.66,0,0,0,.11.58c.18.61.09,1.28.21,1.91,1.13,6,3.66,13.45.23,19.2-1,1.64-2.26,3.08-3.35,4.65a2.69,2.69,0,0,0-.56,1.24c-.15,1.79,1.71,1.06,2.5.48a9.1,9.1,0,0,0,2.45-3,47.23,47.23,0,0,1,2.44-4.55,6.11,6.11,0,0,1,3.48-2.63c1.55-.32,3.26.08,4.84-.28,1.9-.42,4.09-2.39,5.6-3.6.45-.36.89-.73,1.32-1.1a2.58,2.58,0,0,0,.93-1.17.5.5,0,0,0,0-.34c-.13-.25-.51-.18-.78-.07a13.82,13.82,0,0,0-2.61,1.3c-.29.2-.55.42-.85.61a9.59,9.59,0,0,1-1.06.54,7.44,7.44,0,0,1-6,.46,3.85,3.85,0,0,1-2.35-1.36,3.8,3.8,0,0,1-.43-1.41c-.15-1-.29-2-.4-3a1,1,0,0,1,.15-.81c.26-.26.69-.15,1,0a14.12,14.12,0,0,0,3.18.39l2.09.09a7.79,7.79,0,0,0,3-.26,8,8,0,0,0,1.73-1A53.61,53.61,0,0,0,66.74,54a3.62,3.62,0,0,0,1.16-1.53c-2.34,1.81-4.82,3.75-7.86,4a17.07,17.07,0,0,1-4.4-.28,16.64,16.64,0,0,1-3.58-1.16A22.22,22.22,0,0,1,49.13,53.6Z"/><path class="cls-84" d="M48.65,56.15a.14.14,0,0,0,0-.06.29.29,0,0,0,0-.13c0-.31,0-.59-.39-.7a.32.32,0,0,0-.14,0c-.39,0-.33.6-.08.76a.88.88,0,0,0,.46.18h.06Z"/><path class="cls-73" d="M5.59,16.7H5.47"/><path class="cls-85" d="M92.53,101.74a17.19,17.19,0,0,1-3.22-15.11C90.18,83.42,92,80,90.46,77c-1.39-2.69-5.16-3.86-5.77-6.83a15.86,15.86,0,0,1-.1-2.49,17.3,17.3,0,0,0-.93-4c-3.37-11.56-.07-24.05-1.88-36a42.5,42.5,0,0,0-13-24.57C67.05,1.61,64.74.11,62.62,1c-1,.41-1.37,1.36-2.27.74C56-1.31,49.74,0,45.58,3.25s-6.71,8.16-9.14,12.88c-3.39,6.57-6.81,13.25-8.38,20.48-1.07,4.9-1.27,10-2.85,14.77A27.8,27.8,0,0,1,17,63.49c-1.47,1.27-3.07,2.4-4.44,3.77C9,70.85,7.17,75.82,5.46,80.61a22.52,22.52,0,0,0-1.23,4.31c-.15,1.06-.15,2.14-.39,3.18C3.13,91.27.37,93.79.11,97s2.1,6.12,2.84,9.29C2,100.81,1.5,94.73,5,90.43a68.11,68.11,0,0,1-.78,20.15c.44-1,.87-2,1.31-3a4.47,4.47,0,0,0,2.07,3.11c-.88-.54-.3-5.69-.21-6.63a27.43,27.43,0,0,1,1.57-6.8c1.4-3.73,3.31-7.25,5-10.84,1.59-3.3,1.56-6.61,3.88-9.67,1.54-2,3.37-3.93,4.36-6.29-.09.21.78,2.25.83,2.69a24.72,24.72,0,0,1,.05,3.22c-.06,2.22-.95,4.32-1.62,6.45a17.17,17.17,0,0,0-1,4.46,26.31,26.31,0,0,1,0,4c-.55,3.12-3.89,5.47-3.65,8.63.15,2,2.37,4.12,2,6.17a4.21,4.21,0,0,1-.4,1.13c-.75,1.49-2.11,2.63-1.75,4.73a4.18,4.18,0,0,0,2.7,3.2,2.28,2.28,0,0,1-.55-2.34c.13,1.51,1.9,2.34,2.39,3.78a13.39,13.39,0,0,1,.28,1.43,4,4,0,0,0,1.34,2.21,6.36,6.36,0,0,0,2.3-6.29,5.85,5.85,0,0,0,3.5,4.23,24.88,24.88,0,0,0-1.9-3.33A5,5,0,0,0,29,116a5.85,5.85,0,0,0,3.53.19,2.61,2.61,0,0,0,1.88-2.71,4.85,4.85,0,0,0,1.12,1.69,1.64,1.64,0,0,0,1.89.23,2.85,2.85,0,0,0-.33-2.8A9.07,9.07,0,0,1,35.68,110c-.47-2.23,1.68-4.78.36-6.65a16.84,16.84,0,0,1,3.66,3.38,5.66,5.66,0,0,1,1.07,4.72c-.47,1.62-1.88,2.82-2.42,4.42,2,.25,3.45-1.9,4.24-3.77A11.82,11.82,0,0,0,43.83,107a4.66,4.66,0,0,0-2.74-4.22c-.56-.2-1.24-.32-1.52-.84a1.77,1.77,0,0,1-.11-1c.07-1.13.56-2.63,1.68-2.49a1.88,1.88,0,0,1,1,.62A9.39,9.39,0,0,1,44.85,107a4.79,4.79,0,0,0,.92-3A17.81,17.81,0,0,0,44,94.25a13.27,13.27,0,0,1-1.17-2.61c-.94-3.68,2.48-8,.27-11.09-.56-.78-1.48-1.53-1.28-2.47a2.61,2.61,0,0,1,.89-1.25c3.13-3,4.5-7.5,4.62-11.85s-.89-8.63-1.88-12.86a22.14,22.14,0,0,0-1.07-3.59c-.85-2-2.1-3.83-2.62-6a24.18,24.18,0,0,1-.25-5.25c-.07-3.13-1-6.29-.41-9.36a15.3,15.3,0,0,1,1.85-4.66,33.32,33.32,0,0,1,4.44-6c1.43-1.51,4-2.23,6-2.66s4.43-.47,6.4-1.47a5.13,5.13,0,0,0,.84-.52c2-1.56,2.27-4.69,2.28-7,0,.64.2,1.31.19,2a6.88,6.88,0,0,0,.07,2.22,5.13,5.13,0,0,0,1.6,1.81c1.27,1.13,2.79,2.05,4,3.28a27.36,27.36,0,0,1,4.59,6,20.83,20.83,0,0,1,1,15.77,12.32,12.32,0,0,0-.57,1.75,10.59,10.59,0,0,0-.08,2.11c0,6.43-5.37,9.55-7.62,15-.59,1.42-.39,3.15-.78,4.67a27.23,27.23,0,0,1-1.84,4.79C61.87,68.12,60,71.21,59,74.66a11.5,11.5,0,0,0-.44,4.87c.37,2.4,3,3.88,2.53,6.29a26.65,26.65,0,0,1-7.55,14.1c-1.35,1.31-2.9,2.57-3.46,4.35s.54,4.22,2.41,4.15a6.85,6.85,0,0,1,6.09-7.3c.51,1.21-.2,2.56-.88,3.68l-5.09,8.29,4-4.73.09,2.11,1.84.14a3.75,3.75,0,0,0,2.22,6.75,11.58,11.58,0,0,1,7-10.69,11.27,11.27,0,0,1-3.5,8.72,4.9,4.9,0,0,0,5.38-3.56,13.1,13.1,0,0,1-.75,5.08,7,7,0,0,1,3.36,2.52c1.94-2.18.06-6.19,2-8.06s7,2.49,8.8,3.51A8.26,8.26,0,0,1,81.43,109a3.74,3.74,0,0,0,2.42,2.57,6.3,6.3,0,0,1-1.12-4.79l2.69,4.68a12.76,12.76,0,0,1-.52-8.07,5.33,5.33,0,0,0,5.62,3A16,16,0,0,1,86.61,102a5.45,5.45,0,0,1,0-5.62A5.46,5.46,0,0,0,92.53,101.74Z"/><path class="cls-86" d="M79,50.81c-.42-1.68-.9-3.21-1.21-4.91a3.15,3.15,0,0,0,.05,2.18c.48,2.29-.23,4.6-.46,6.86a18.93,18.93,0,0,1-2,7A21.7,21.7,0,0,0,74.35,64c2.18-.89,3.3-3.27,4.16-5.47a13,13,0,0,0,1.07-4.21A13.37,13.37,0,0,0,79,50.81Z"/><path class="cls-87" d="M74.65,54.5a22.45,22.45,0,0,1-.76,3.14,9.67,9.67,0,0,1-.6,1.63c-.68,1.3-2,2.27-2.34,3.69a6.22,6.22,0,0,0,2.14-1.1,6.19,6.19,0,0,0,1.5-3.78c.29-1.9.94-4.34.53-6.24A7.6,7.6,0,0,0,74.65,54.5Z"/><path class="cls-88" d="M70.82,73.36a13.79,13.79,0,0,1-2.92,2,13.13,13.13,0,0,0-2.26,1.27,7.36,7.36,0,0,0-2.26,4.12,33.11,33.11,0,0,1-1.15,4.64,1.68,1.68,0,0,1-.61.88A38,38,0,0,1,67,79.63,16,16,0,0,0,70,76.73c.52-.8.82-1.72,1.29-2.55.62-1.11,1.67-2.28,1.48-3.64A6.64,6.64,0,0,1,70.82,73.36Z"/><path class="cls-89" d="M60.55,101.77a11.93,11.93,0,0,0,0,1.89c.06,3.28-1.87,6.25-2.54,9.46a32.35,32.35,0,0,1,2.72-4.93,17.74,17.74,0,0,0,1.75-2.58,6,6,0,0,0,.27-4.51C62.19,99.4,60.73,100.43,60.55,101.77Z"/><path class="cls-90" d="M66.77,85a13.41,13.41,0,0,1-2.32,6.54,1.42,1.42,0,0,0,.58-.42,9.56,9.56,0,0,0,2.85-5.87c.05-.8.09-3.64-.73-4A13,13,0,0,0,66.77,85Z"/><path class="cls-91" d="M72.6,94.54c.23,2.66,2.42,4.85,2.58,7.52a5.15,5.15,0,0,1-1,3.31c-.65.89-1.56,1.55-2.27,2.38a13.48,13.48,0,0,0-1.9,3.37l4-4.76a14.76,14.76,0,0,0,2-2.89,4.83,4.83,0,0,0,.42-3.43,11.82,11.82,0,0,0-1.09-2.16,9.07,9.07,0,0,1-.7-6.58,13.05,13.05,0,0,1,2.53-5.53A5.57,5.57,0,0,0,75.54,87a5.75,5.75,0,0,0-.55.89C73.89,90,72.38,92.07,72.6,94.54Z"/><path class="cls-92" d="M68.12,92.66l0,0c-.74,1.63.09,4.06.16,5.76a11.51,11.51,0,0,1-2.36,7.42,70.81,70.81,0,0,0,4.74-7.23,8.07,8.07,0,0,0,1.2-2.7A7.39,7.39,0,0,0,71.63,93a24.53,24.53,0,0,1-.11-4.54C70.45,89.68,68.8,91.2,68.12,92.66Z"/><path class="cls-93" d="M77.39,76.53a1.81,1.81,0,0,0,1.22-.77c.68,1.6.34,3.43.21,5.17a12.2,12.2,0,0,0,.46,4.7c.62,1.85,1.86,3.54,1.89,5.48,0,1-.33,2.13,0,3.1l.44-2.78c.42-2.65.83-5.46-.17-8-.25-.61-.57-1.2-.81-1.82a12.84,12.84,0,0,1-.59-3.26,31.31,31.31,0,0,1,.07-9.12c0-.17,0-.28-.15-.31-.08,1.13-1,2.47-1.34,3.55C78.19,73.84,77.76,75.18,77.39,76.53Z"/><path class="cls-90" d="M41.39,10.12a20.9,20.9,0,0,0-6.33,10C34.35,23,34.43,26,34,28.86a49.41,49.41,0,0,1-2,7.54c3.11-5.36,2.76-12.16,5.67-17.63C41.6,11.49,50,8.93,54.83,2.69,49.94,2.76,44.77,7,41.39,10.12Z"/><path class="cls-94" d="M27,54.91a22.35,22.35,0,0,1,.44,2.66c.09,1.93-.76,3.77-1,5.69a11.45,11.45,0,0,0,1.45,6.46,33,33,0,0,0,3.89,5.46,25.26,25.26,0,0,1-2.75-17.71c.58-2.66,1.59-5.32,1.18-8-.13-.81-.39-1.6-.49-2.42a6.75,6.75,0,0,1,.63-3.68A14.68,14.68,0,0,0,27,54.91Z"/><path class="cls-95" d="M34.87,65c2.27-2.88,3.13-6.62,3.51-10.27a54.74,54.74,0,0,0,.13-10.4c-.22,1.76-1.82,3.19-1.8,5,0,3,.23,6.32-.58,9.27-.31,1.11-.68,2.19-.93,3.31C35.07,62.5,35.18,64.62,34.87,65Z"/><path class="cls-96" d="M9.78,76.24a8.93,8.93,0,0,1,.1,1.63A7.93,7.93,0,0,1,8.2,81.58c1.56-.6,2.28-2.43,2.4-4.1s-.21-3.37.1-5c.46-2.51,2.11-3.51,3.83-5a4.65,4.65,0,0,0-3.36,1.26C9.19,70.56,9.47,73.79,9.78,76.24Z"/><path class="cls-97" d="M22.06,93.05a4.23,4.23,0,0,0-.45,1.16,1.14,1.14,0,0,0,.4,1.11,3.07,3.07,0,0,0,.68-1.68,10.27,10.27,0,0,1,.86-2.46,11.78,11.78,0,0,0,.75-1.61c.47-1.43-.08-2.39-.63-3.65-.36-.85-.21-1.73-.52-2.53C22.29,84,22,85.74,22,86.71,21.87,89.1,23.26,90.59,22.06,93.05Z"/><path class="cls-98" d="M29.17,86.53A5,5,0,0,0,28,84.34c-.29-.3-.84-.51-1.07-.15a.82.82,0,0,0,0,.6,20.83,20.83,0,0,0,1.42,4.52,5.72,5.72,0,0,1,.4,1.47c0,.37,0,.74,0,1.1a4.9,4.9,0,0,0,1.46,3.3,16.32,16.32,0,0,0-.68-6.76,7.92,7.92,0,0,1-.29-1C29.24,87.14,29.22,86.83,29.17,86.53Z"/><path class="cls-99" d="M34.84,80.93a15.24,15.24,0,0,0-1.14,3.5c-.19,2.26,1.41,4.24,2.92,5.94a22.83,22.83,0,0,1-1.13-6,13.25,13.25,0,0,1,0-4.17c.33-1.49,1.18-2.84,1.37-4.36.06-.52,0-3-.79-2.66-.53.24-.52,2.5-.55,3A17.88,17.88,0,0,1,34.84,80.93Z"/><path class="cls-100" d="M38.69,104.21a8.18,8.18,0,0,1,.8.25,2.76,2.76,0,0,1,.9.77,21.62,21.62,0,0,1,2.06,2.86,3.89,3.89,0,0,0-.3-2.53,11.64,11.64,0,0,0-1.4-2.17,7.53,7.53,0,0,0-1.69-1.78,22.75,22.75,0,0,0-3.3-2.13C35.21,101.13,37.24,103.67,38.69,104.21Z"/><path class="cls-73" d="M23.45,97.64c.42.83,1.13,1.46,1.61,2.26a4.53,4.53,0,0,1,.38,3.72c-.19.54-.48,1-.69,1.58a5.88,5.88,0,0,0,1.65,6.5,5.61,5.61,0,0,1-1.12-3.24,7.92,7.92,0,0,1,0-3c.26-.94.86-1.76,1.11-2.7a6.26,6.26,0,0,0-.68-4.09c-.47-1-1.13-2.67-2.09-3.3C23,95.85,23.1,97,23.45,97.64Z"/><path class="cls-101" d="M20.46,109.93a6.06,6.06,0,0,0,2.61,3l-.67-2.37a6.61,6.61,0,0,1-.31-1.7,7.34,7.34,0,0,1,.21-1.47c.47-2.17,1.27-5,0-7-.3,1.08,0,2.34-.26,3.47C21.59,105.93,19.9,107.77,20.46,109.93Z"/></g></g></svg>