<svg width="256" height="189" viewBox="0 0 256 189" fill="none" xmlns="http://www.w3.org/2000/svg">
<rect x="1" y="36" width="20" height="20" fill="#31393C"/>
<rect x="41" y="36" width="20" height="20" fill="#33A1FD"/>
<rect x="61" y="36" width="20" height="20" fill="#FDCA40"/>
<rect x="81" y="36" width="20" height="20" fill="#F79824"/>
<rect x="21" y="36" width="20" height="20" fill="#2176FF"/>
<path d="M7.923 26.224C8.65567 26.224 9.337 26.1167 9.967 25.902C10.6017 25.6873 11.1593 25.398 11.64 25.034L11.136 24.145C10.7253 24.4763 10.2493 24.7307 9.708 24.908C9.16667 25.0853 8.59267 25.174 7.986 25.174C7.25333 25.174 6.58133 25.048 5.97 24.796C5.36333 24.544 4.836 24.194 4.388 23.746C3.94 23.2933 3.59233 22.7683 3.345 22.171C3.10233 21.569 2.981 20.9227 2.981 20.232C2.981 19.5367 3.10233 18.8903 3.345 18.293C3.59233 17.6957 3.94 17.173 4.388 16.725C4.836 16.2723 5.36333 15.92 5.97 15.668C6.58133 15.416 7.25333 15.29 7.986 15.29C8.59267 15.29 9.16667 15.3787 9.708 15.556C10.2493 15.7333 10.7253 15.9877 11.136 16.319L11.64 15.43C11.1547 15.0613 10.5947 14.772 9.96 14.562C9.32533 14.3473 8.64633 14.24 7.923 14.24C7.055 14.24 6.25 14.3917 5.508 14.695C4.77067 14.9983 4.12433 15.423 3.569 15.969C3.01833 16.5103 2.589 17.145 2.281 17.873C1.973 18.601 1.819 19.3873 1.819 20.232C1.819 21.0767 1.973 21.863 2.281 22.591C2.589 23.319 3.01833 23.956 3.569 24.502C4.11967 25.0433 4.766 25.4657 5.508 25.769C6.25 26.0723 7.055 26.224 7.923 26.224ZM17.18 26.224C17.9266 26.224 18.5986 26.063 19.196 25.741C19.798 25.419 20.274 24.971 20.624 24.397C20.974 23.823 21.149 23.1627 21.149 22.416C21.149 21.6647 20.974 21.0043 20.624 20.435C20.274 19.861 19.798 19.413 19.196 19.091C18.5986 18.769 17.9266 18.608 17.18 18.608C16.4333 18.608 15.759 18.769 15.157 19.091C14.5596 19.413 14.086 19.861 13.736 20.435C13.386 21.0043 13.211 21.6647 13.211 22.416C13.211 23.1627 13.386 23.823 13.736 24.397C14.086 24.971 14.5596 25.419 15.157 25.741C15.759 26.063 16.4333 26.224 17.18 26.224ZM17.18 25.314C16.62 25.314 16.1206 25.1903 15.682 24.943C15.2433 24.6957 14.898 24.355 14.646 23.921C14.394 23.4823 14.268 22.9807 14.268 22.416C14.268 21.8513 14.394 21.352 14.646 20.918C14.898 20.4793 15.2433 20.1363 15.682 19.889C16.1206 19.6417 16.62 19.518 17.18 19.518C17.74 19.518 18.2393 19.6417 18.678 19.889C19.1166 20.1363 19.462 20.4793 19.714 20.918C19.966 21.352 20.092 21.8513 20.092 22.416C20.092 22.9807 19.966 23.4823 19.714 23.921C19.462 24.355 19.1166 24.6957 18.678 24.943C18.2393 25.1903 17.74 25.314 17.18 25.314ZM23.587 26H24.609V13.96H23.587V26ZM31.0432 26.224C31.7899 26.224 32.4619 26.063 33.0592 25.741C33.6612 25.419 34.1372 24.971 34.4872 24.397C34.8372 23.823 35.0122 23.1627 35.0122 22.416C35.0122 21.6647 34.8372 21.0043 34.4872 20.435C34.1372 19.861 33.6612 19.413 33.0592 19.091C32.4619 18.769 31.7899 18.608 31.0432 18.608C30.2966 18.608 29.6222 18.769 29.0202 19.091C28.4229 19.413 27.9492 19.861 27.5992 20.435C27.2492 21.0043 27.0742 21.6647 27.0742 22.416C27.0742 23.1627 27.2492 23.823 27.5992 24.397C27.9492 24.971 28.4229 25.419 29.0202 25.741C29.6222 26.063 30.2966 26.224 31.0432 26.224ZM31.0432 25.314C30.4832 25.314 29.9839 25.1903 29.5452 24.943C29.1066 24.6957 28.7612 24.355 28.5092 23.921C28.2572 23.4823 28.1312 22.9807 28.1312 22.416C28.1312 21.8513 28.2572 21.352 28.5092 20.918C28.7612 20.4793 29.1066 20.1363 29.5452 19.889C29.9839 19.6417 30.4832 19.518 31.0432 19.518C31.6032 19.518 32.1026 19.6417 32.5412 19.889C32.9799 20.1363 33.3252 20.4793 33.5772 20.918C33.8292 21.352 33.9552 21.8513 33.9552 22.416C33.9552 22.9807 33.8292 23.4823 33.5772 23.921C33.3252 24.355 32.9799 24.6957 32.5412 24.943C32.1026 25.1903 31.6032 25.314 31.0432 25.314ZM37.4503 26H38.4723V21.268C38.4723 20.9647 38.5633 20.68 38.7453 20.414C38.932 20.1433 39.1723 19.924 39.4663 19.756C39.765 19.588 40.0776 19.504 40.4043 19.504C40.7636 19.504 41.095 19.5763 41.3983 19.721L41.8183 18.86C41.4683 18.692 41.067 18.608 40.6143 18.608C39.6483 18.608 38.9343 19.035 38.4723 19.889V18.832H37.4503V26ZM45.4647 26.224C46.244 26.224 46.8787 26.014 47.3687 25.594C47.8633 25.174 48.1107 24.6047 48.1107 23.886C48.1107 23.466 48.0243 23.1347 47.8517 22.892C47.679 22.6447 47.4363 22.4417 47.1237 22.283C46.811 22.1197 46.447 21.961 46.0317 21.807C45.7423 21.695 45.4717 21.583 45.2197 21.471C44.9723 21.359 44.7717 21.226 44.6177 21.072C44.4637 20.9133 44.3867 20.7127 44.3867 20.47C44.3867 20.1387 44.508 19.8703 44.7507 19.665C44.998 19.4597 45.3177 19.357 45.7097 19.357C46.349 19.357 46.8833 19.6393 47.3127 20.204L47.7817 19.609C47.5017 19.2917 47.1843 19.0467 46.8297 18.874C46.4797 18.7013 46.104 18.615 45.7027 18.615C45.264 18.615 44.872 18.699 44.5267 18.867C44.1813 19.0303 43.9107 19.2567 43.7147 19.546C43.5187 19.8307 43.4207 20.1573 43.4207 20.526C43.4207 20.89 43.5117 21.191 43.6937 21.429C43.8803 21.6623 44.116 21.856 44.4007 22.01C44.6853 22.164 44.9793 22.3017 45.2827 22.423C45.67 22.5723 45.9967 22.7053 46.2627 22.822C46.5287 22.9387 46.7293 23.0787 46.8647 23.242C47.0047 23.4053 47.0747 23.6317 47.0747 23.921C47.0747 24.3877 46.916 24.7563 46.5987 25.027C46.2813 25.2977 45.901 25.433 45.4577 25.433C45.019 25.433 44.62 25.307 44.2607 25.055C43.9013 24.7983 43.6097 24.4413 43.3857 23.984L42.8397 24.572C43.0917 25.0993 43.444 25.5077 43.8967 25.797C44.3493 26.0817 44.872 26.224 45.4647 26.224Z" fill="black"/>
<path d="M124.883 26H125.947V20.68H130.406V19.742H125.947V15.388H130.728V14.45H124.883V26ZM133.718 17.397C133.905 17.397 134.063 17.3317 134.194 17.201C134.325 17.0703 134.39 16.9117 134.39 16.725C134.39 16.5383 134.325 16.382 134.194 16.256C134.063 16.1253 133.905 16.06 133.718 16.06C133.531 16.06 133.373 16.1253 133.242 16.256C133.116 16.382 133.053 16.5383 133.053 16.725C133.053 16.9117 133.116 17.0703 133.242 17.201C133.373 17.3317 133.531 17.397 133.718 17.397ZM133.207 26H134.229V18.832H133.207V26ZM137.247 26H138.269V21.331C138.269 20.995 138.351 20.6847 138.514 20.4C138.682 20.1107 138.923 19.8797 139.235 19.707C139.548 19.5297 139.924 19.441 140.362 19.441C140.988 19.441 141.473 19.637 141.818 20.029C142.168 20.421 142.343 20.9857 142.343 21.723V26H143.365V21.527C143.365 20.603 143.125 19.8867 142.644 19.378C142.168 18.8647 141.515 18.608 140.684 18.608C140.092 18.608 139.588 18.7247 139.172 18.958C138.762 19.1913 138.461 19.476 138.269 19.812V18.832H137.247V26ZM149.302 26.224C149.937 26.224 150.513 26.07 151.031 25.762C151.549 25.454 151.962 25.0293 152.27 24.488V26H153.292V18.832H152.27V20.323C152 19.7863 151.598 19.3663 151.066 19.063C150.539 18.7597 149.951 18.608 149.302 18.608C148.621 18.608 148.01 18.7737 147.468 19.105C146.932 19.4317 146.507 19.882 146.194 20.456C145.886 21.03 145.732 21.681 145.732 22.409C145.732 23.1463 145.889 23.802 146.201 24.376C146.519 24.95 146.946 25.4027 147.482 25.734C148.019 26.0607 148.626 26.224 149.302 26.224ZM149.554 25.335C149.022 25.335 148.546 25.209 148.126 24.957C147.711 24.705 147.384 24.3597 147.146 23.921C146.908 23.4823 146.789 22.9807 146.789 22.416C146.789 21.8467 146.908 21.3427 147.146 20.904C147.384 20.4653 147.711 20.1223 148.126 19.875C148.542 19.623 149.018 19.497 149.554 19.497C150.091 19.497 150.567 19.623 150.982 19.875C151.398 20.1223 151.722 20.4653 151.955 20.904C152.193 21.3427 152.312 21.8467 152.312 22.416C152.312 22.9807 152.193 23.4847 151.955 23.928C151.717 24.3667 151.391 24.712 150.975 24.964C150.565 25.2113 150.091 25.335 149.554 25.335ZM156.306 26H157.328V13.96H156.306V26ZM164.313 26H170.214V25.062H165.377V14.45H164.313V26ZM175.916 26.224C176.663 26.224 177.335 26.063 177.932 25.741C178.534 25.419 179.01 24.971 179.36 24.397C179.71 23.823 179.885 23.1627 179.885 22.416C179.885 21.6647 179.71 21.0043 179.36 20.435C179.01 19.861 178.534 19.413 177.932 19.091C177.335 18.769 176.663 18.608 175.916 18.608C175.17 18.608 174.495 18.769 173.893 19.091C173.296 19.413 172.822 19.861 172.472 20.435C172.122 21.0043 171.947 21.6647 171.947 22.416C171.947 23.1627 172.122 23.823 172.472 24.397C172.822 24.971 173.296 25.419 173.893 25.741C174.495 26.063 175.17 26.224 175.916 26.224ZM175.916 25.314C175.356 25.314 174.857 25.1903 174.418 24.943C173.98 24.6957 173.634 24.355 173.382 23.921C173.13 23.4823 173.004 22.9807 173.004 22.416C173.004 21.8513 173.13 21.352 173.382 20.918C173.634 20.4793 173.98 20.1363 174.418 19.889C174.857 19.6417 175.356 19.518 175.916 19.518C176.476 19.518 176.976 19.6417 177.414 19.889C177.853 20.1363 178.198 20.4793 178.45 20.918C178.702 21.352 178.828 21.8513 178.828 22.416C178.828 22.9807 178.702 23.4823 178.45 23.921C178.198 24.355 177.853 24.6957 177.414 24.943C176.976 25.1903 176.476 25.314 175.916 25.314ZM185.515 29.85C186.714 29.85 187.661 29.5373 188.357 28.912C189.052 28.2867 189.4 27.3813 189.4 26.196V18.832H188.378V20.323C188.088 19.7863 187.685 19.3663 187.167 19.063C186.649 18.7597 186.07 18.608 185.431 18.608C184.745 18.608 184.131 18.7737 183.59 19.105C183.053 19.4317 182.628 19.882 182.316 20.456C182.003 21.03 181.847 21.6833 181.847 22.416C181.847 23.1533 182.003 23.809 182.316 24.383C182.633 24.957 183.06 25.4073 183.597 25.734C184.138 26.0607 184.742 26.224 185.41 26.224C186.049 26.224 186.628 26.07 187.146 25.762C187.668 25.454 188.079 25.0293 188.378 24.488V26.238C188.378 26.812 188.252 27.3043 188 27.715C187.752 28.1257 187.412 28.4383 186.978 28.653C186.548 28.8723 186.061 28.982 185.515 28.982C184.866 28.982 184.287 28.835 183.779 28.541C183.27 28.2517 182.906 27.8597 182.687 27.365L181.826 27.764C182.446 29.1547 183.676 29.85 185.515 29.85ZM185.655 25.335C185.123 25.335 184.649 25.209 184.234 24.957C183.818 24.705 183.492 24.3597 183.254 23.921C183.016 23.4823 182.897 22.983 182.897 22.423C182.897 21.8537 183.016 21.3497 183.254 20.911C183.492 20.4677 183.818 20.1223 184.234 19.875C184.654 19.623 185.13 19.497 185.662 19.497C186.198 19.497 186.674 19.623 187.09 19.875C187.505 20.1223 187.832 20.4677 188.07 20.911C188.308 21.3497 188.427 21.8537 188.427 22.423C188.427 22.9877 188.308 23.4893 188.07 23.928C187.832 24.3667 187.505 24.712 187.09 24.964C186.674 25.2113 186.196 25.335 185.655 25.335ZM195.768 26.224C196.515 26.224 197.187 26.063 197.784 25.741C198.386 25.419 198.862 24.971 199.212 24.397C199.562 23.823 199.737 23.1627 199.737 22.416C199.737 21.6647 199.562 21.0043 199.212 20.435C198.862 19.861 198.386 19.413 197.784 19.091C197.187 18.769 196.515 18.608 195.768 18.608C195.021 18.608 194.347 18.769 193.745 19.091C193.148 19.413 192.674 19.861 192.324 20.435C191.974 21.0043 191.799 21.6647 191.799 22.416C191.799 23.1627 191.974 23.823 192.324 24.397C192.674 24.971 193.148 25.419 193.745 25.741C194.347 26.063 195.021 26.224 195.768 26.224ZM195.768 25.314C195.208 25.314 194.709 25.1903 194.27 24.943C193.831 24.6957 193.486 24.355 193.234 23.921C192.982 23.4823 192.856 22.9807 192.856 22.416C192.856 21.8513 192.982 21.352 193.234 20.918C193.486 20.4793 193.831 20.1363 194.27 19.889C194.709 19.6417 195.208 19.518 195.768 19.518C196.328 19.518 196.827 19.6417 197.266 19.889C197.705 20.1363 198.05 20.4793 198.302 20.918C198.554 21.352 198.68 21.8513 198.68 22.416C198.68 22.9807 198.554 23.4823 198.302 23.921C198.05 24.355 197.705 24.6957 197.266 24.943C196.827 25.1903 196.328 25.314 195.768 25.314ZM206.176 26H208.78C209.601 26 210.364 25.8553 211.069 25.566C211.778 25.272 212.397 24.8637 212.924 24.341C213.456 23.8137 213.869 23.2 214.163 22.5C214.457 21.8 214.604 21.044 214.604 20.232C214.604 19.42 214.455 18.664 214.156 17.964C213.862 17.2593 213.449 16.6457 212.917 16.123C212.39 15.5957 211.774 15.185 211.069 14.891C210.364 14.597 209.601 14.45 208.78 14.45H206.176V26ZM207.24 25.048V15.402H208.682C209.359 15.402 209.989 15.5257 210.572 15.773C211.155 16.0157 211.664 16.3563 212.098 16.795C212.537 17.2337 212.877 17.7447 213.12 18.328C213.363 18.9113 213.484 19.5437 213.484 20.225C213.484 20.9063 213.363 21.541 213.12 22.129C212.877 22.7123 212.537 23.2233 212.098 23.662C211.664 24.096 211.155 24.4367 210.572 24.684C209.989 24.9267 209.359 25.048 208.682 25.048H207.24ZM220.629 26.224C221.343 26.224 221.991 26.07 222.575 25.762C223.163 25.454 223.627 25.0223 223.968 24.467L223.212 24.061C222.614 24.9383 221.767 25.377 220.671 25.377C220.101 25.377 219.595 25.2557 219.152 25.013C218.708 24.7657 218.361 24.4273 218.109 23.998C217.861 23.564 217.738 23.0693 217.738 22.514H224.192C224.201 22.4627 224.206 22.4183 224.206 22.381C224.21 22.3437 224.213 22.2993 224.213 22.248C224.194 21.534 224.021 20.904 223.695 20.358C223.373 19.8073 222.934 19.378 222.379 19.07C221.828 18.762 221.198 18.608 220.489 18.608C219.971 18.608 219.483 18.706 219.026 18.902C218.573 19.098 218.174 19.371 217.829 19.721C217.483 20.071 217.213 20.4793 217.017 20.946C216.821 21.408 216.723 21.9073 216.723 22.444C216.723 23.158 216.891 23.802 217.227 24.376C217.567 24.9453 218.032 25.3957 218.62 25.727C219.208 26.0583 219.877 26.224 220.629 26.224ZM217.794 21.744C217.854 21.2913 218.008 20.8947 218.256 20.554C218.508 20.2087 218.827 19.9403 219.215 19.749C219.602 19.553 220.031 19.455 220.503 19.455C220.965 19.455 221.387 19.553 221.77 19.749C222.152 19.945 222.47 20.2157 222.722 20.561C222.974 20.9063 223.13 21.3007 223.191 21.744H217.794ZM228.428 26.224C229.207 26.224 229.842 26.014 230.332 25.594C230.826 25.174 231.074 24.6047 231.074 23.886C231.074 23.466 230.987 23.1347 230.815 22.892C230.642 22.6447 230.399 22.4417 230.087 22.283C229.774 22.1197 229.41 21.961 228.995 21.807C228.705 21.695 228.435 21.583 228.183 21.471C227.935 21.359 227.735 21.226 227.581 21.072C227.427 20.9133 227.35 20.7127 227.35 20.47C227.35 20.1387 227.471 19.8703 227.714 19.665C227.961 19.4597 228.281 19.357 228.673 19.357C229.312 19.357 229.846 19.6393 230.276 20.204L230.745 19.609C230.465 19.2917 230.147 19.0467 229.793 18.874C229.443 18.7013 229.067 18.615 228.666 18.615C228.227 18.615 227.835 18.699 227.49 18.867C227.144 19.0303 226.874 19.2567 226.678 19.546C226.482 19.8307 226.384 20.1573 226.384 20.526C226.384 20.89 226.475 21.191 226.657 21.429C226.843 21.6623 227.079 21.856 227.364 22.01C227.648 22.164 227.942 22.3017 228.246 22.423C228.633 22.5723 228.96 22.7053 229.226 22.822C229.492 22.9387 229.692 23.0787 229.828 23.242C229.968 23.4053 230.038 23.6317 230.038 23.921C230.038 24.3877 229.879 24.7563 229.562 25.027C229.244 25.2977 228.864 25.433 228.421 25.433C227.982 25.433 227.583 25.307 227.224 25.055C226.864 24.7983 226.573 24.4413 226.349 23.984L225.803 24.572C226.055 25.0993 226.407 25.5077 226.86 25.797C227.312 26.0817 227.835 26.224 228.428 26.224ZM234.001 17.397C234.188 17.397 234.347 17.3317 234.477 17.201C234.608 17.0703 234.673 16.9117 234.673 16.725C234.673 16.5383 234.608 16.382 234.477 16.256C234.347 16.1253 234.188 16.06 234.001 16.06C233.815 16.06 233.656 16.1253 233.525 16.256C233.399 16.382 233.336 16.5383 233.336 16.725C233.336 16.9117 233.399 17.0703 233.525 17.201C233.656 17.3317 233.815 17.397 234.001 17.397ZM233.49 26H234.512V18.832H233.49V26ZM240.694 29.85C241.894 29.85 242.841 29.5373 243.536 28.912C244.232 28.2867 244.579 27.3813 244.579 26.196V18.832H243.557V20.323C243.268 19.7863 242.864 19.3663 242.346 19.063C241.828 18.7597 241.25 18.608 240.61 18.608C239.924 18.608 239.311 18.7737 238.769 19.105C238.233 19.4317 237.808 19.882 237.495 20.456C237.183 21.03 237.026 21.6833 237.026 22.416C237.026 23.1533 237.183 23.809 237.495 24.383C237.813 24.957 238.24 25.4073 238.776 25.734C239.318 26.0607 239.922 26.224 240.589 26.224C241.229 26.224 241.807 26.07 242.325 25.762C242.848 25.454 243.259 25.0293 243.557 24.488V26.238C243.557 26.812 243.431 27.3043 243.179 27.715C242.932 28.1257 242.591 28.4383 242.157 28.653C241.728 28.8723 241.24 28.982 240.694 28.982C240.046 28.982 239.467 28.835 238.958 28.541C238.45 28.2517 238.086 27.8597 237.866 27.365L237.005 27.764C237.626 29.1547 238.856 29.85 240.694 29.85ZM240.834 25.335C240.302 25.335 239.829 25.209 239.413 24.957C238.998 24.705 238.671 24.3597 238.433 23.921C238.195 23.4823 238.076 22.983 238.076 22.423C238.076 21.8537 238.195 21.3497 238.433 20.911C238.671 20.4677 238.998 20.1223 239.413 19.875C239.833 19.623 240.309 19.497 240.841 19.497C241.378 19.497 241.854 19.623 242.269 19.875C242.685 20.1223 243.011 20.4677 243.249 20.911C243.487 21.3497 243.606 21.8537 243.606 22.423C243.606 22.9877 243.487 23.4893 243.249 23.928C243.011 24.3667 242.685 24.712 242.269 24.964C241.854 25.2113 241.376 25.335 240.834 25.335ZM247.593 26H248.615V21.331C248.615 20.995 248.697 20.6847 248.86 20.4C249.028 20.1107 249.268 19.8797 249.581 19.707C249.894 19.5297 250.269 19.441 250.708 19.441C251.333 19.441 251.819 19.637 252.164 20.029C252.514 20.421 252.689 20.9857 252.689 21.723V26H253.711V21.527C253.711 20.603 253.471 19.8867 252.99 19.378C252.514 18.8647 251.861 18.608 251.03 18.608C250.437 18.608 249.933 18.7247 249.518 18.958C249.107 19.1913 248.806 19.476 248.615 19.812V18.832H247.593V26Z" fill="black"/>
<path d="M4.305 99H5.369V88.416H8.904V87.45H0.784V88.416H4.305V99ZM10.959 102.64H12.114L17.035 91.832H15.88L13.304 97.775L10.469 91.832H9.31405L12.723 98.825L10.959 102.64ZM19.005 102.64H20.027V97.488C20.3303 98.0293 20.741 98.454 21.259 98.762C21.7817 99.07 22.358 99.224 22.988 99.224C23.674 99.224 24.2853 99.0583 24.822 98.727C25.3633 98.3957 25.788 97.943 26.096 97.369C26.4087 96.795 26.565 96.144 26.565 95.416C26.565 94.6833 26.4087 94.0323 26.096 93.463C25.7833 92.889 25.3563 92.4363 24.815 92.105C24.2783 91.7737 23.6647 91.608 22.974 91.608C22.3393 91.608 21.7607 91.7597 21.238 92.063C20.72 92.3617 20.3163 92.7793 20.027 93.316V91.832H19.005V102.64ZM22.75 98.335C22.2133 98.335 21.7373 98.2113 21.322 97.964C20.9067 97.712 20.58 97.3667 20.342 96.928C20.104 96.4847 19.985 95.9807 19.985 95.416C19.985 94.8467 20.104 94.3427 20.342 93.904C20.58 93.4653 20.9067 93.1223 21.322 92.875C21.7373 92.623 22.2133 92.497 22.75 92.497C23.2867 92.497 23.7603 92.623 24.171 92.875C24.5863 93.1223 24.913 93.4677 25.151 93.911C25.389 94.3497 25.508 94.8537 25.508 95.423C25.508 95.9877 25.389 96.4893 25.151 96.928C24.913 97.3667 24.5863 97.712 24.171 97.964C23.7603 98.2113 23.2867 98.335 22.75 98.335ZM32.4905 99.224C33.2372 99.224 33.9092 99.063 34.5065 98.741C35.1085 98.419 35.5845 97.971 35.9345 97.397C36.2845 96.823 36.4595 96.1627 36.4595 95.416C36.4595 94.6647 36.2845 94.0043 35.9345 93.435C35.5845 92.861 35.1085 92.413 34.5065 92.091C33.9092 91.769 33.2372 91.608 32.4905 91.608C31.7438 91.608 31.0695 91.769 30.4675 92.091C29.8702 92.413 29.3965 92.861 29.0465 93.435C28.6965 94.0043 28.5215 94.6647 28.5215 95.416C28.5215 96.1627 28.6965 96.823 29.0465 97.397C29.3965 97.971 29.8702 98.419 30.4675 98.741C31.0695 99.063 31.7438 99.224 32.4905 99.224ZM32.4905 98.314C31.9305 98.314 31.4312 98.1903 30.9925 97.943C30.5538 97.6957 30.2085 97.355 29.9565 96.921C29.7045 96.4823 29.5785 95.9807 29.5785 95.416C29.5785 94.8513 29.7045 94.352 29.9565 93.918C30.2085 93.4793 30.5538 93.1363 30.9925 92.889C31.4312 92.6417 31.9305 92.518 32.4905 92.518C33.0505 92.518 33.5498 92.6417 33.9885 92.889C34.4272 93.1363 34.7725 93.4793 35.0245 93.918C35.2765 94.352 35.4025 94.8513 35.4025 95.416C35.4025 95.9807 35.2765 96.4823 35.0245 96.921C34.7725 97.355 34.4272 97.6957 33.9885 97.943C33.5498 98.1903 33.0505 98.314 32.4905 98.314ZM42.0889 102.85C43.2883 102.85 44.2356 102.537 44.9309 101.912C45.6263 101.287 45.9739 100.381 45.9739 99.196V91.832H44.9519V93.323C44.6626 92.7863 44.2589 92.3663 43.7409 92.063C43.2229 91.7597 42.6443 91.608 42.0049 91.608C41.3189 91.608 40.7053 91.7737 40.1639 92.105C39.6273 92.4317 39.2026 92.882 38.8899 93.456C38.5773 94.03 38.4209 94.6833 38.4209 95.416C38.4209 96.1533 38.5773 96.809 38.8899 97.383C39.2073 97.957 39.6343 98.4073 40.1709 98.734C40.7123 99.0607 41.3166 99.224 41.9839 99.224C42.6233 99.224 43.2019 99.07 43.7199 98.762C44.2426 98.454 44.6533 98.0293 44.9519 97.488V99.238C44.9519 99.812 44.8259 100.304 44.5739 100.715C44.3266 101.126 43.9859 101.438 43.5519 101.653C43.1226 101.872 42.6349 101.982 42.0889 101.982C41.4403 101.982 40.8616 101.835 40.3529 101.541C39.8443 101.252 39.4803 100.86 39.2609 100.365L38.3999 100.764C39.0206 102.155 40.2503 102.85 42.0889 102.85ZM42.2289 98.335C41.6969 98.335 41.2233 98.209 40.8079 97.957C40.3926 97.705 40.0659 97.3597 39.8279 96.921C39.5899 96.4823 39.4709 95.983 39.4709 95.423C39.4709 94.8537 39.5899 94.3497 39.8279 93.911C40.0659 93.4677 40.3926 93.1223 40.8079 92.875C41.2279 92.623 41.7039 92.497 42.2359 92.497C42.7726 92.497 43.2486 92.623 43.6639 92.875C44.0793 93.1223 44.4059 93.4677 44.6439 93.911C44.8819 94.3497 45.0009 94.8537 45.0009 95.423C45.0009 95.9877 44.8819 96.4893 44.6439 96.928C44.4059 97.3667 44.0793 97.712 43.6639 97.964C43.2486 98.2113 42.7703 98.335 42.2289 98.335ZM48.9874 99H50.0094V94.268C50.0094 93.9647 50.1004 93.68 50.2824 93.414C50.4691 93.1433 50.7094 92.924 51.0034 92.756C51.3021 92.588 51.6148 92.504 51.9414 92.504C52.3008 92.504 52.6321 92.5763 52.9354 92.721L53.3554 91.86C53.0054 91.692 52.6041 91.608 52.1514 91.608C51.1854 91.608 50.4714 92.035 50.0094 92.889V91.832H48.9874V99ZM58.1988 99.224C58.8334 99.224 59.4098 99.07 59.9278 98.762C60.4458 98.454 60.8588 98.0293 61.1668 97.488V99H62.1888V91.832H61.1668V93.323C60.8961 92.7863 60.4948 92.3663 59.9628 92.063C59.4354 91.7597 58.8474 91.608 58.1988 91.608C57.5174 91.608 56.9061 91.7737 56.3648 92.105C55.8281 92.4317 55.4034 92.882 55.0908 93.456C54.7828 94.03 54.6288 94.681 54.6288 95.409C54.6288 96.1463 54.7851 96.802 55.0978 97.376C55.4151 97.95 55.8421 98.4027 56.3788 98.734C56.9154 99.0607 57.5221 99.224 58.1988 99.224ZM58.4508 98.335C57.9188 98.335 57.4428 98.209 57.0228 97.957C56.6074 97.705 56.2808 97.3597 56.0428 96.921C55.8048 96.4823 55.6858 95.9807 55.6858 95.416C55.6858 94.8467 55.8048 94.3427 56.0428 93.904C56.2808 93.4653 56.6074 93.1223 57.0228 92.875C57.4381 92.623 57.9141 92.497 58.4508 92.497C58.9874 92.497 59.4634 92.623 59.8788 92.875C60.2941 93.1223 60.6184 93.4653 60.8518 93.904C61.0898 94.3427 61.2088 94.8467 61.2088 95.416C61.2088 95.9807 61.0898 96.4847 60.8518 96.928C60.6138 97.3667 60.2871 97.712 59.8718 97.964C59.4611 98.2113 58.9874 98.335 58.4508 98.335ZM65.2023 102.64H66.2243V97.488C66.5276 98.0293 66.9383 98.454 67.4563 98.762C67.9789 99.07 68.5553 99.224 69.1853 99.224C69.8713 99.224 70.4826 99.0583 71.0193 98.727C71.5606 98.3957 71.9853 97.943 72.2933 97.369C72.6059 96.795 72.7623 96.144 72.7623 95.416C72.7623 94.6833 72.6059 94.0323 72.2933 93.463C71.9806 92.889 71.5536 92.4363 71.0123 92.105C70.4756 91.7737 69.8619 91.608 69.1713 91.608C68.5366 91.608 67.9579 91.7597 67.4353 92.063C66.9173 92.3617 66.5136 92.7793 66.2243 93.316V91.832H65.2023V102.64ZM68.9473 98.335C68.4106 98.335 67.9346 98.2113 67.5193 97.964C67.1039 97.712 66.7773 97.3667 66.5393 96.928C66.3013 96.4847 66.1823 95.9807 66.1823 95.416C66.1823 94.8467 66.3013 94.3427 66.5393 93.904C66.7773 93.4653 67.1039 93.1223 67.5193 92.875C67.9346 92.623 68.4106 92.497 68.9473 92.497C69.4839 92.497 69.9576 92.623 70.3683 92.875C70.7836 93.1223 71.1103 93.4677 71.3483 93.911C71.5863 94.3497 71.7053 94.8537 71.7053 95.423C71.7053 95.9877 71.5863 96.4893 71.3483 96.928C71.1103 97.3667 70.7836 97.712 70.3683 97.964C69.9576 98.2113 69.4839 98.335 68.9473 98.335ZM75.2648 99H76.2868V94.331C76.2868 93.995 76.3684 93.6847 76.5318 93.4C76.6998 93.1107 76.9401 92.8773 77.2528 92.7C77.5654 92.5227 77.9411 92.434 78.3798 92.434C79.0051 92.434 79.4904 92.6323 79.8358 93.029C80.1858 93.421 80.3608 93.9857 80.3608 94.723V99H81.3828V94.527C81.3828 93.603 81.1424 92.8867 80.6618 92.378C80.1858 91.8647 79.5324 91.608 78.7018 91.608C78.1091 91.608 77.6051 91.7247 77.1898 91.958C76.7791 92.1913 76.4781 92.476 76.2868 92.812V86.953H75.2648V99ZM84.8419 102.64H85.9969L90.9179 91.832H89.7629L87.1869 97.775L84.3519 91.832H83.1969L86.6059 98.825L84.8419 102.64Z" fill="black"/>
<path d="M97.719 142.224C100.388 142.224 101.723 140.77 101.723 137.863V130.45H100.652V137.632C100.652 139.993 99.6743 141.174 97.719 141.174C95.759 141.174 94.779 139.993 94.779 137.632V130.45H93.715V137.863C93.715 140.77 95.0497 142.224 97.719 142.224ZM106.797 142.224C107.576 142.224 108.211 142.014 108.701 141.594C109.195 141.174 109.443 140.605 109.443 139.886C109.443 139.466 109.356 139.135 109.184 138.892C109.011 138.645 108.768 138.442 108.456 138.283C108.143 138.12 107.779 137.961 107.364 137.807C107.074 137.695 106.804 137.583 106.552 137.471C106.304 137.359 106.104 137.226 105.95 137.072C105.796 136.913 105.719 136.713 105.719 136.47C105.719 136.139 105.84 135.87 106.083 135.665C106.33 135.46 106.65 135.357 107.042 135.357C107.681 135.357 108.215 135.639 108.645 136.204L109.114 135.609C108.834 135.292 108.516 135.047 108.162 134.874C107.812 134.701 107.436 134.615 107.035 134.615C106.596 134.615 106.204 134.699 105.859 134.867C105.513 135.03 105.243 135.257 105.047 135.546C104.851 135.831 104.753 136.157 104.753 136.526C104.753 136.89 104.844 137.191 105.026 137.429C105.212 137.662 105.448 137.856 105.733 138.01C106.017 138.164 106.311 138.302 106.615 138.423C107.002 138.572 107.329 138.705 107.595 138.822C107.861 138.939 108.061 139.079 108.197 139.242C108.337 139.405 108.407 139.632 108.407 139.921C108.407 140.388 108.248 140.756 107.931 141.027C107.613 141.298 107.233 141.433 106.79 141.433C106.351 141.433 105.952 141.307 105.593 141.055C105.233 140.798 104.942 140.441 104.718 139.984L104.172 140.572C104.424 141.099 104.776 141.508 105.229 141.797C105.681 142.082 106.204 142.224 106.797 142.224ZM115.226 142.224C115.94 142.224 116.589 142.07 117.172 141.762C117.76 141.454 118.225 141.022 118.565 140.467L117.809 140.061C117.212 140.938 116.365 141.377 115.268 141.377C114.699 141.377 114.193 141.256 113.749 141.013C113.306 140.766 112.958 140.427 112.706 139.998C112.459 139.564 112.335 139.069 112.335 138.514H118.789C118.799 138.463 118.803 138.418 118.803 138.381C118.808 138.344 118.81 138.299 118.81 138.248C118.792 137.534 118.619 136.904 118.292 136.358C117.97 135.807 117.532 135.378 116.976 135.07C116.426 134.762 115.796 134.608 115.086 134.608C114.568 134.608 114.081 134.706 113.623 134.902C113.171 135.098 112.772 135.371 112.426 135.721C112.081 136.071 111.81 136.479 111.614 136.946C111.418 137.408 111.32 137.907 111.32 138.444C111.32 139.158 111.488 139.802 111.824 140.376C112.165 140.945 112.629 141.396 113.217 141.727C113.805 142.058 114.475 142.224 115.226 142.224ZM112.391 137.744C112.452 137.291 112.606 136.895 112.853 136.554C113.105 136.209 113.425 135.94 113.812 135.749C114.2 135.553 114.629 135.455 115.1 135.455C115.562 135.455 115.985 135.553 116.367 135.749C116.75 135.945 117.067 136.216 117.319 136.561C117.571 136.906 117.728 137.301 117.788 137.744H112.391ZM124.277 142.224C124.912 142.224 125.488 142.07 126.006 141.762C126.529 141.454 126.942 141.029 127.245 140.488V142H128.267V129.953H127.245V136.323C126.951 135.786 126.545 135.366 126.027 135.063C125.509 134.76 124.93 134.608 124.291 134.608C123.605 134.608 122.991 134.774 122.45 135.105C121.913 135.432 121.489 135.882 121.176 136.456C120.863 137.03 120.707 137.683 120.707 138.416C120.707 139.153 120.863 139.809 121.176 140.383C121.493 140.957 121.92 141.407 122.457 141.734C122.998 142.061 123.605 142.224 124.277 142.224ZM124.522 141.335C123.985 141.335 123.509 141.209 123.094 140.957C122.679 140.705 122.352 140.36 122.114 139.921C121.881 139.482 121.764 138.983 121.764 138.423C121.764 137.854 121.883 137.35 122.121 136.911C122.359 136.468 122.686 136.122 123.101 135.875C123.516 135.623 123.992 135.497 124.529 135.497C125.066 135.497 125.539 135.623 125.95 135.875C126.365 136.122 126.692 136.468 126.93 136.911C127.168 137.35 127.287 137.854 127.287 138.423C127.287 138.988 127.168 139.489 126.93 139.928C126.692 140.367 126.365 140.712 125.95 140.964C125.535 141.211 125.059 141.335 124.522 141.335ZM135.023 142H136.045V135.602H137.872V134.832H136.045V132.235C136.045 131.745 136.136 131.358 136.318 131.073C136.5 130.788 136.789 130.646 137.186 130.646C137.508 130.646 137.779 130.73 137.998 130.898L138.355 130.17C138.005 129.89 137.557 129.75 137.011 129.75C136.367 129.75 135.875 129.967 135.534 130.401C135.193 130.835 135.023 131.456 135.023 132.263V134.832H134.302V135.602H135.023V142ZM143.371 142.224C144.118 142.224 144.79 142.063 145.387 141.741C145.989 141.419 146.465 140.971 146.815 140.397C147.165 139.823 147.34 139.163 147.34 138.416C147.34 137.665 147.165 137.004 146.815 136.435C146.465 135.861 145.989 135.413 145.387 135.091C144.79 134.769 144.118 134.608 143.371 134.608C142.625 134.608 141.95 134.769 141.348 135.091C140.751 135.413 140.277 135.861 139.927 136.435C139.577 137.004 139.402 137.665 139.402 138.416C139.402 139.163 139.577 139.823 139.927 140.397C140.277 140.971 140.751 141.419 141.348 141.741C141.95 142.063 142.625 142.224 143.371 142.224ZM143.371 141.314C142.811 141.314 142.312 141.19 141.873 140.943C141.435 140.696 141.089 140.355 140.837 139.921C140.585 139.482 140.459 138.981 140.459 138.416C140.459 137.851 140.585 137.352 140.837 136.918C141.089 136.479 141.435 136.136 141.873 135.889C142.312 135.642 142.811 135.518 143.371 135.518C143.931 135.518 144.431 135.642 144.869 135.889C145.308 136.136 145.653 136.479 145.905 136.918C146.157 137.352 146.283 137.851 146.283 138.416C146.283 138.981 146.157 139.482 145.905 139.921C145.653 140.355 145.308 140.696 144.869 140.943C144.431 141.19 143.931 141.314 143.371 141.314ZM149.778 142H150.8V137.268C150.8 136.965 150.891 136.68 151.073 136.414C151.26 136.143 151.5 135.924 151.794 135.756C152.093 135.588 152.406 135.504 152.732 135.504C153.092 135.504 153.423 135.576 153.726 135.721L154.146 134.86C153.796 134.692 153.395 134.608 152.942 134.608C151.976 134.608 151.262 135.035 150.8 135.889V134.832H149.778V142ZM159.636 142H160.658V137.331C160.658 136.995 160.74 136.685 160.903 136.4C161.071 136.111 161.311 135.877 161.624 135.7C161.937 135.523 162.312 135.434 162.751 135.434C163.376 135.434 163.862 135.632 164.207 136.029C164.557 136.421 164.732 136.986 164.732 137.723V142H165.754V137.527C165.754 136.603 165.514 135.887 165.033 135.378C164.557 134.865 163.904 134.608 163.073 134.608C162.48 134.608 161.976 134.725 161.561 134.958C161.15 135.191 160.849 135.476 160.658 135.812V129.953H159.636V142ZM171.992 142.224C172.706 142.224 173.355 142.07 173.938 141.762C174.526 141.454 174.99 141.022 175.331 140.467L174.575 140.061C173.978 140.938 173.131 141.377 172.034 141.377C171.465 141.377 170.958 141.256 170.515 141.013C170.072 140.766 169.724 140.427 169.472 139.998C169.225 139.564 169.101 139.069 169.101 138.514H175.555C175.564 138.463 175.569 138.418 175.569 138.381C175.574 138.344 175.576 138.299 175.576 138.248C175.557 137.534 175.385 136.904 175.058 136.358C174.736 135.807 174.297 135.378 173.742 135.07C173.191 134.762 172.561 134.608 171.852 134.608C171.334 134.608 170.846 134.706 170.389 134.902C169.936 135.098 169.537 135.371 169.192 135.721C168.847 136.071 168.576 136.479 168.38 136.946C168.184 137.408 168.086 137.907 168.086 138.444C168.086 139.158 168.254 139.802 168.59 140.376C168.931 140.945 169.395 141.396 169.983 141.727C170.571 142.058 171.241 142.224 171.992 142.224ZM169.157 137.744C169.218 137.291 169.372 136.895 169.619 136.554C169.871 136.209 170.191 135.94 170.578 135.749C170.965 135.553 171.395 135.455 171.866 135.455C172.328 135.455 172.75 135.553 173.133 135.749C173.516 135.945 173.833 136.216 174.085 136.561C174.337 136.906 174.493 137.301 174.554 137.744H169.157ZM180.974 142.224C181.609 142.224 182.185 142.07 182.703 141.762C183.221 141.454 183.634 141.029 183.942 140.488V142H184.964V134.832H183.942V136.323C183.671 135.786 183.27 135.366 182.738 135.063C182.211 134.76 181.623 134.608 180.974 134.608C180.293 134.608 179.681 134.774 179.14 135.105C178.603 135.432 178.179 135.882 177.866 136.456C177.558 137.03 177.404 137.681 177.404 138.409C177.404 139.146 177.56 139.802 177.873 140.376C178.19 140.95 178.617 141.403 179.154 141.734C179.691 142.061 180.297 142.224 180.974 142.224ZM181.226 141.335C180.694 141.335 180.218 141.209 179.798 140.957C179.383 140.705 179.056 140.36 178.818 139.921C178.58 139.482 178.461 138.981 178.461 138.416C178.461 137.847 178.58 137.343 178.818 136.904C179.056 136.465 179.383 136.122 179.798 135.875C180.213 135.623 180.689 135.497 181.226 135.497C181.763 135.497 182.239 135.623 182.654 135.875C183.069 136.122 183.394 136.465 183.627 136.904C183.865 137.343 183.984 137.847 183.984 138.416C183.984 138.981 183.865 139.485 183.627 139.928C183.389 140.367 183.062 140.712 182.647 140.964C182.236 141.211 181.763 141.335 181.226 141.335ZM191.037 142.224C191.671 142.224 192.248 142.07 192.766 141.762C193.288 141.454 193.701 141.029 194.005 140.488V142H195.027V129.953H194.005V136.323C193.711 135.786 193.305 135.366 192.787 135.063C192.269 134.76 191.69 134.608 191.051 134.608C190.365 134.608 189.751 134.774 189.21 135.105C188.673 135.432 188.248 135.882 187.936 136.456C187.623 137.03 187.467 137.683 187.467 138.416C187.467 139.153 187.623 139.809 187.936 140.383C188.253 140.957 188.68 141.407 189.217 141.734C189.758 142.061 190.365 142.224 191.037 142.224ZM191.282 141.335C190.745 141.335 190.269 141.209 189.854 140.957C189.438 140.705 189.112 140.36 188.874 139.921C188.64 139.482 188.524 138.983 188.524 138.423C188.524 137.854 188.643 137.35 188.881 136.911C189.119 136.468 189.445 136.122 189.861 135.875C190.276 135.623 190.752 135.497 191.289 135.497C191.825 135.497 192.299 135.623 192.71 135.875C193.125 136.122 193.452 136.468 193.69 136.911C193.928 137.35 194.047 137.854 194.047 138.423C194.047 138.988 193.928 139.489 193.69 139.928C193.452 140.367 193.125 140.712 192.71 140.964C192.294 141.211 191.818 141.335 191.282 141.335ZM201.4 142.224C202.114 142.224 202.763 142.07 203.346 141.762C203.934 141.454 204.398 141.022 204.739 140.467L203.983 140.061C203.386 140.938 202.539 141.377 201.442 141.377C200.873 141.377 200.366 141.256 199.923 141.013C199.48 140.766 199.132 140.427 198.88 139.998C198.633 139.564 198.509 139.069 198.509 138.514H204.963C204.972 138.463 204.977 138.418 204.977 138.381C204.982 138.344 204.984 138.299 204.984 138.248C204.965 137.534 204.793 136.904 204.466 136.358C204.144 135.807 203.705 135.378 203.15 135.07C202.599 134.762 201.969 134.608 201.26 134.608C200.742 134.608 200.254 134.706 199.797 134.902C199.344 135.098 198.945 135.371 198.6 135.721C198.255 136.071 197.984 136.479 197.788 136.946C197.592 137.408 197.494 137.907 197.494 138.444C197.494 139.158 197.662 139.802 197.998 140.376C198.339 140.945 198.803 141.396 199.391 141.727C199.979 142.058 200.649 142.224 201.4 142.224ZM198.565 137.744C198.626 137.291 198.78 136.895 199.027 136.554C199.279 136.209 199.599 135.94 199.986 135.749C200.373 135.553 200.803 135.455 201.274 135.455C201.736 135.455 202.158 135.553 202.541 135.749C202.924 135.945 203.241 136.216 203.493 136.561C203.745 136.906 203.901 137.301 203.962 137.744H198.565ZM207.364 142H208.386V137.268C208.386 136.965 208.477 136.68 208.659 136.414C208.846 136.143 209.086 135.924 209.38 135.756C209.679 135.588 209.992 135.504 210.318 135.504C210.678 135.504 211.009 135.576 211.312 135.721L211.732 134.86C211.382 134.692 210.981 134.608 210.528 134.608C209.562 134.608 208.848 135.035 208.386 135.889V134.832H207.364V142ZM215.379 142.224C216.158 142.224 216.793 142.014 217.283 141.594C217.777 141.174 218.025 140.605 218.025 139.886C218.025 139.466 217.938 139.135 217.766 138.892C217.593 138.645 217.35 138.442 217.038 138.283C216.725 138.12 216.361 137.961 215.946 137.807C215.656 137.695 215.386 137.583 215.134 137.471C214.886 137.359 214.686 137.226 214.532 137.072C214.378 136.913 214.301 136.713 214.301 136.47C214.301 136.139 214.422 135.87 214.665 135.665C214.912 135.46 215.232 135.357 215.624 135.357C216.263 135.357 216.797 135.639 217.227 136.204L217.696 135.609C217.416 135.292 217.098 135.047 216.744 134.874C216.394 134.701 216.018 134.615 215.617 134.615C215.178 134.615 214.786 134.699 214.441 134.867C214.095 135.03 213.825 135.257 213.629 135.546C213.433 135.831 213.335 136.157 213.335 136.526C213.335 136.89 213.426 137.191 213.608 137.429C213.794 137.662 214.03 137.856 214.315 138.01C214.599 138.164 214.893 138.302 215.197 138.423C215.584 138.572 215.911 138.705 216.177 138.822C216.443 138.939 216.643 139.079 216.779 139.242C216.919 139.405 216.989 139.632 216.989 139.921C216.989 140.388 216.83 140.756 216.513 141.027C216.195 141.298 215.815 141.433 215.372 141.433C214.933 141.433 214.534 141.307 214.175 141.055C213.815 140.798 213.524 140.441 213.3 139.984L212.754 140.572C213.006 141.099 213.358 141.508 213.811 141.797C214.263 142.082 214.786 142.224 215.379 142.224Z" fill="black"/>
<path d="M110.719 182.224C113.388 182.224 114.723 180.77 114.723 177.863V170.45H113.652V177.632C113.652 179.993 112.674 181.174 110.719 181.174C108.759 181.174 107.779 179.993 107.779 177.632V170.45H106.715V177.863C106.715 180.77 108.05 182.224 110.719 182.224ZM119.797 182.224C120.576 182.224 121.211 182.014 121.701 181.594C122.195 181.174 122.443 180.605 122.443 179.886C122.443 179.466 122.356 179.135 122.184 178.892C122.011 178.645 121.768 178.442 121.456 178.283C121.143 178.12 120.779 177.961 120.364 177.807C120.074 177.695 119.804 177.583 119.552 177.471C119.304 177.359 119.104 177.226 118.95 177.072C118.796 176.913 118.719 176.713 118.719 176.47C118.719 176.139 118.84 175.87 119.083 175.665C119.33 175.46 119.65 175.357 120.042 175.357C120.681 175.357 121.215 175.639 121.645 176.204L122.114 175.609C121.834 175.292 121.516 175.047 121.162 174.874C120.812 174.701 120.436 174.615 120.035 174.615C119.596 174.615 119.204 174.699 118.859 174.867C118.513 175.03 118.243 175.257 118.047 175.546C117.851 175.831 117.753 176.157 117.753 176.526C117.753 176.89 117.844 177.191 118.026 177.429C118.212 177.662 118.448 177.856 118.733 178.01C119.017 178.164 119.311 178.302 119.615 178.423C120.002 178.572 120.329 178.705 120.595 178.822C120.861 178.939 121.061 179.079 121.197 179.242C121.337 179.405 121.407 179.632 121.407 179.921C121.407 180.388 121.248 180.756 120.931 181.027C120.613 181.298 120.233 181.433 119.79 181.433C119.351 181.433 118.952 181.307 118.593 181.055C118.233 180.798 117.942 180.441 117.718 179.984L117.172 180.572C117.424 181.099 117.776 181.508 118.229 181.797C118.681 182.082 119.204 182.224 119.797 182.224ZM128.226 182.224C128.94 182.224 129.589 182.07 130.172 181.762C130.76 181.454 131.225 181.022 131.565 180.467L130.809 180.061C130.212 180.938 129.365 181.377 128.268 181.377C127.699 181.377 127.193 181.256 126.749 181.013C126.306 180.766 125.958 180.427 125.706 179.998C125.459 179.564 125.335 179.069 125.335 178.514H131.789C131.799 178.463 131.803 178.418 131.803 178.381C131.808 178.344 131.81 178.299 131.81 178.248C131.792 177.534 131.619 176.904 131.292 176.358C130.97 175.807 130.532 175.378 129.976 175.07C129.426 174.762 128.796 174.608 128.086 174.608C127.568 174.608 127.081 174.706 126.623 174.902C126.171 175.098 125.772 175.371 125.426 175.721C125.081 176.071 124.81 176.479 124.614 176.946C124.418 177.408 124.32 177.907 124.32 178.444C124.32 179.158 124.488 179.802 124.824 180.376C125.165 180.945 125.629 181.396 126.217 181.727C126.805 182.058 127.475 182.224 128.226 182.224ZM125.391 177.744C125.452 177.291 125.606 176.895 125.853 176.554C126.105 176.209 126.425 175.94 126.812 175.749C127.2 175.553 127.629 175.455 128.1 175.455C128.562 175.455 128.985 175.553 129.367 175.749C129.75 175.945 130.067 176.216 130.319 176.561C130.571 176.906 130.728 177.301 130.788 177.744H125.391ZM137.277 182.224C137.912 182.224 138.488 182.07 139.006 181.762C139.529 181.454 139.942 181.029 140.245 180.488V182H141.267V169.953H140.245V176.323C139.951 175.786 139.545 175.366 139.027 175.063C138.509 174.76 137.93 174.608 137.291 174.608C136.605 174.608 135.991 174.774 135.45 175.105C134.913 175.432 134.489 175.882 134.176 176.456C133.863 177.03 133.707 177.683 133.707 178.416C133.707 179.153 133.863 179.809 134.176 180.383C134.493 180.957 134.92 181.407 135.457 181.734C135.998 182.061 136.605 182.224 137.277 182.224ZM137.522 181.335C136.985 181.335 136.509 181.209 136.094 180.957C135.679 180.705 135.352 180.36 135.114 179.921C134.881 179.482 134.764 178.983 134.764 178.423C134.764 177.854 134.883 177.35 135.121 176.911C135.359 176.468 135.686 176.122 136.101 175.875C136.516 175.623 136.992 175.497 137.529 175.497C138.066 175.497 138.539 175.623 138.95 175.875C139.365 176.122 139.692 176.468 139.93 176.911C140.168 177.35 140.287 177.854 140.287 178.423C140.287 178.988 140.168 179.489 139.93 179.928C139.692 180.367 139.365 180.712 138.95 180.964C138.535 181.211 138.059 181.335 137.522 181.335ZM148.023 182H149.045V175.602H150.872V174.832H149.045V172.235C149.045 171.745 149.136 171.358 149.318 171.073C149.5 170.788 149.789 170.646 150.186 170.646C150.508 170.646 150.779 170.73 150.998 170.898L151.355 170.17C151.005 169.89 150.557 169.75 150.011 169.75C149.367 169.75 148.875 169.967 148.534 170.401C148.193 170.835 148.023 171.456 148.023 172.263V174.832H147.302V175.602H148.023V182ZM156.371 182.224C157.118 182.224 157.79 182.063 158.387 181.741C158.989 181.419 159.465 180.971 159.815 180.397C160.165 179.823 160.34 179.163 160.34 178.416C160.34 177.665 160.165 177.004 159.815 176.435C159.465 175.861 158.989 175.413 158.387 175.091C157.79 174.769 157.118 174.608 156.371 174.608C155.625 174.608 154.95 174.769 154.348 175.091C153.751 175.413 153.277 175.861 152.927 176.435C152.577 177.004 152.402 177.665 152.402 178.416C152.402 179.163 152.577 179.823 152.927 180.397C153.277 180.971 153.751 181.419 154.348 181.741C154.95 182.063 155.625 182.224 156.371 182.224ZM156.371 181.314C155.811 181.314 155.312 181.19 154.873 180.943C154.435 180.696 154.089 180.355 153.837 179.921C153.585 179.482 153.459 178.981 153.459 178.416C153.459 177.851 153.585 177.352 153.837 176.918C154.089 176.479 154.435 176.136 154.873 175.889C155.312 175.642 155.811 175.518 156.371 175.518C156.931 175.518 157.431 175.642 157.869 175.889C158.308 176.136 158.653 176.479 158.905 176.918C159.157 177.352 159.283 177.851 159.283 178.416C159.283 178.981 159.157 179.482 158.905 179.921C158.653 180.355 158.308 180.696 157.869 180.943C157.431 181.19 156.931 181.314 156.371 181.314ZM162.778 182H163.8V177.268C163.8 176.965 163.891 176.68 164.073 176.414C164.26 176.143 164.5 175.924 164.794 175.756C165.093 175.588 165.406 175.504 165.732 175.504C166.092 175.504 166.423 175.576 166.726 175.721L167.146 174.86C166.796 174.692 166.395 174.608 165.942 174.608C164.976 174.608 164.262 175.035 163.8 175.889V174.832H162.778V182ZM176.633 182.224C177.305 182.224 177.909 182.061 178.446 181.734C178.983 181.407 179.407 180.957 179.72 180.383C180.037 179.809 180.196 179.153 180.196 178.416C180.196 177.683 180.04 177.03 179.727 176.456C179.414 175.882 178.987 175.432 178.446 175.105C177.909 174.774 177.298 174.608 176.612 174.608C175.973 174.608 175.394 174.76 174.876 175.063C174.358 175.366 173.952 175.786 173.658 176.323V169.96H172.636V182H173.658V180.488C173.961 181.029 174.374 181.454 174.897 181.762C175.42 182.07 175.998 182.224 176.633 182.224ZM176.381 181.335C175.844 181.335 175.368 181.211 174.953 180.964C174.538 180.712 174.211 180.367 173.973 179.928C173.735 179.489 173.616 178.988 173.616 178.423C173.616 177.854 173.735 177.35 173.973 176.911C174.211 176.468 174.538 176.122 174.953 175.875C175.368 175.623 175.844 175.497 176.381 175.497C176.918 175.497 177.391 175.623 177.802 175.875C178.217 176.122 178.544 176.468 178.782 176.911C179.02 177.35 179.139 177.854 179.139 178.423C179.139 178.983 179.02 179.482 178.782 179.921C178.549 180.36 178.224 180.705 177.809 180.957C177.394 181.209 176.918 181.335 176.381 181.335ZM186.121 182.224C186.868 182.224 187.54 182.063 188.137 181.741C188.739 181.419 189.215 180.971 189.565 180.397C189.915 179.823 190.09 179.163 190.09 178.416C190.09 177.665 189.915 177.004 189.565 176.435C189.215 175.861 188.739 175.413 188.137 175.091C187.54 174.769 186.868 174.608 186.121 174.608C185.375 174.608 184.7 174.769 184.098 175.091C183.501 175.413 183.027 175.861 182.677 176.435C182.327 177.004 182.152 177.665 182.152 178.416C182.152 179.163 182.327 179.823 182.677 180.397C183.027 180.971 183.501 181.419 184.098 181.741C184.7 182.063 185.375 182.224 186.121 182.224ZM186.121 181.314C185.561 181.314 185.062 181.19 184.623 180.943C184.185 180.696 183.839 180.355 183.587 179.921C183.335 179.482 183.209 178.981 183.209 178.416C183.209 177.851 183.335 177.352 183.587 176.918C183.839 176.479 184.185 176.136 184.623 175.889C185.062 175.642 185.561 175.518 186.121 175.518C186.681 175.518 187.181 175.642 187.619 175.889C188.058 176.136 188.403 176.479 188.655 176.918C188.907 177.352 189.033 177.851 189.033 178.416C189.033 178.981 188.907 179.482 188.655 179.921C188.403 180.355 188.058 180.696 187.619 180.943C187.181 181.19 186.681 181.314 186.121 181.314ZM195.615 182.224C196.249 182.224 196.826 182.07 197.344 181.762C197.866 181.454 198.279 181.029 198.583 180.488V182H199.605V169.953H198.583V176.323C198.289 175.786 197.883 175.366 197.365 175.063C196.847 174.76 196.268 174.608 195.629 174.608C194.943 174.608 194.329 174.774 193.788 175.105C193.251 175.432 192.826 175.882 192.514 176.456C192.201 177.03 192.045 177.683 192.045 178.416C192.045 179.153 192.201 179.809 192.514 180.383C192.831 180.957 193.258 181.407 193.795 181.734C194.336 182.061 194.943 182.224 195.615 182.224ZM195.86 181.335C195.323 181.335 194.847 181.209 194.432 180.957C194.016 180.705 193.69 180.36 193.452 179.921C193.218 179.482 193.102 178.983 193.102 178.423C193.102 177.854 193.221 177.35 193.459 176.911C193.697 176.468 194.023 176.122 194.439 175.875C194.854 175.623 195.33 175.497 195.867 175.497C196.403 175.497 196.877 175.623 197.288 175.875C197.703 176.122 198.03 176.468 198.268 176.911C198.506 177.35 198.625 177.854 198.625 178.423C198.625 178.988 198.506 179.489 198.268 179.928C198.03 180.367 197.703 180.712 197.288 180.964C196.872 181.211 196.396 181.335 195.86 181.335ZM203.117 185.64H204.272L209.193 174.832H208.038L205.462 180.775L202.627 174.832H201.472L204.881 181.825L203.117 185.64ZM216.544 182.224C217.001 182.224 217.403 182.117 217.748 181.902L217.489 181.09C217.284 181.244 217.041 181.321 216.761 181.321C216.168 181.321 215.872 180.913 215.872 180.096V175.602H217.657V174.832H215.872V172.151H214.85V174.832H214.122V175.602H214.85V180.152C214.85 180.81 214.997 181.321 215.291 181.685C215.59 182.044 216.007 182.224 216.544 182.224ZM223.342 182.224C224.056 182.224 224.704 182.07 225.288 181.762C225.876 181.454 226.34 181.022 226.681 180.467L225.925 180.061C225.327 180.938 224.48 181.377 223.384 181.377C222.814 181.377 222.308 181.256 221.865 181.013C221.421 180.766 221.074 180.427 220.822 179.998C220.574 179.564 220.451 179.069 220.451 178.514H226.905C226.914 178.463 226.919 178.418 226.919 178.381C226.923 178.344 226.926 178.299 226.926 178.248C226.907 177.534 226.734 176.904 226.408 176.358C226.086 175.807 225.647 175.378 225.092 175.07C224.541 174.762 223.911 174.608 223.202 174.608C222.684 174.608 222.196 174.706 221.739 174.902C221.286 175.098 220.887 175.371 220.542 175.721C220.196 176.071 219.926 176.479 219.73 176.946C219.534 177.408 219.436 177.907 219.436 178.444C219.436 179.158 219.604 179.802 219.94 180.376C220.28 180.945 220.745 181.396 221.333 181.727C221.921 182.058 222.59 182.224 223.342 182.224ZM220.507 177.744C220.567 177.291 220.721 176.895 220.969 176.554C221.221 176.209 221.54 175.94 221.928 175.749C222.315 175.553 222.744 175.455 223.216 175.455C223.678 175.455 224.1 175.553 224.483 175.749C224.865 175.945 225.183 176.216 225.435 176.561C225.687 176.906 225.843 177.301 225.904 177.744H220.507ZM228.262 182H229.473L231.951 178.955L234.422 182H235.633L232.609 178.304L235.227 174.832H234.058L231.951 177.597L229.844 174.832H228.668L231.293 178.304L228.262 182ZM239.362 182.224C239.82 182.224 240.221 182.117 240.566 181.902L240.307 181.09C240.102 181.244 239.859 181.321 239.579 181.321C238.987 181.321 238.69 180.913 238.69 180.096V175.602H240.475V174.832H238.69V172.151H237.668V174.832H236.94V175.602H237.668V180.152C237.668 180.81 237.815 181.321 238.109 181.685C238.408 182.044 238.826 182.224 239.362 182.224Z" fill="black"/>
<path d="M1.89 142V122.68H5.16V131.56L13.38 122.68H17.16L10.05 130.48L17.46 142H13.98L8.01 132.55L5.16 135.61V142H1.89ZM18.7223 142L26.1023 122.68H29.7623L37.0823 142H33.7223L31.8023 137.02H24.0323L22.1123 142H18.7223ZM24.5423 134.5H31.2623L27.9023 125.65L24.5423 134.5ZM40.2982 142V122.68H43.1782L53.2582 136.9V122.68H56.4982V142H53.6182L43.5682 127.81V142H40.2982ZM60.308 142V122.68H63.578V142H60.308ZM72.3785 142V125.23H66.1985V122.68H81.7985V125.23H75.6485V142H72.3785Z" fill="black"/>
<path d="M10.2979 173.372H5.28809V182H2.46094V160.672H9.52148C11.9238 160.672 13.7695 161.219 15.0586 162.312C16.3574 163.406 17.0068 164.998 17.0068 167.088C17.0068 168.416 16.6455 169.573 15.9229 170.56C15.21 171.546 14.2139 172.283 12.9346 172.771L17.9443 181.824V182H14.9268L10.2979 173.372ZM5.28809 171.072H9.60938C11.0059 171.072 12.1143 170.711 12.9346 169.988C13.7646 169.266 14.1797 168.299 14.1797 167.088C14.1797 165.77 13.7842 164.759 12.9932 164.056C12.2119 163.353 11.0791 162.996 9.59473 162.986H5.28809V171.072ZM19.8193 173.929C19.8193 172.376 20.1221 170.979 20.7275 169.739C21.3428 168.499 22.1924 167.542 23.2764 166.868C24.3701 166.194 25.6152 165.857 27.0117 165.857C29.1699 165.857 30.9131 166.604 32.2412 168.099C33.5791 169.593 34.248 171.58 34.248 174.061V174.251C34.248 175.794 33.9502 177.181 33.3545 178.411C32.7686 179.632 31.9238 180.584 30.8203 181.268C29.7266 181.951 28.4668 182.293 27.041 182.293C24.8926 182.293 23.1494 181.546 21.8115 180.052C20.4834 178.558 19.8193 176.58 19.8193 174.119V173.929ZM22.5439 174.251C22.5439 176.009 22.9492 177.42 23.7598 178.484C24.5801 179.549 25.6738 180.081 27.041 180.081C28.418 180.081 29.5117 179.544 30.3223 178.47C31.1328 177.386 31.5381 175.872 31.5381 173.929C31.5381 172.19 31.123 170.784 30.293 169.71C29.4727 168.626 28.3789 168.084 27.0117 168.084C25.6738 168.084 24.5947 168.616 23.7744 169.681C22.9541 170.745 22.5439 172.269 22.5439 174.251ZM51.0645 174.251C51.0645 176.673 50.5078 178.621 49.3945 180.096C48.2812 181.561 46.7871 182.293 44.9121 182.293C42.9102 182.293 41.3623 181.585 40.2686 180.169L40.1367 182H37.6465V159.5H40.3564V167.894C41.4502 166.536 42.959 165.857 44.8828 165.857C46.8066 165.857 48.3154 166.585 49.4092 168.04C50.5127 169.495 51.0645 171.487 51.0645 174.017V174.251ZM48.3545 173.943C48.3545 172.098 47.998 170.672 47.2852 169.666C46.5723 168.66 45.5469 168.157 44.209 168.157C42.4219 168.157 41.1377 168.987 40.3564 170.647V177.503C41.1865 179.163 42.4805 179.993 44.2383 179.993C45.5371 179.993 46.5479 179.49 47.2705 178.484C47.9932 177.479 48.3545 175.965 48.3545 173.943ZM53.7744 173.929C53.7744 172.376 54.0771 170.979 54.6826 169.739C55.2979 168.499 56.1475 167.542 57.2314 166.868C58.3252 166.194 59.5703 165.857 60.9668 165.857C63.125 165.857 64.8682 166.604 66.1963 168.099C67.5342 169.593 68.2031 171.58 68.2031 174.061V174.251C68.2031 175.794 67.9053 177.181 67.3096 178.411C66.7236 179.632 65.8789 180.584 64.7754 181.268C63.6816 181.951 62.4219 182.293 60.9961 182.293C58.8477 182.293 57.1045 181.546 55.7666 180.052C54.4385 178.558 53.7744 176.58 53.7744 174.119V173.929ZM56.499 174.251C56.499 176.009 56.9043 177.42 57.7148 178.484C58.5352 179.549 59.6289 180.081 60.9961 180.081C62.373 180.081 63.4668 179.544 64.2773 178.47C65.0879 177.386 65.4932 175.872 65.4932 173.929C65.4932 172.19 65.0781 170.784 64.248 169.71C63.4277 168.626 62.334 168.084 60.9668 168.084C59.6289 168.084 58.5498 168.616 57.7295 169.681C56.9092 170.745 56.499 172.269 56.499 174.251ZM75.2783 162.312V166.15H78.2373V168.245H75.2783V178.074C75.2783 178.709 75.4102 179.188 75.6738 179.51C75.9375 179.822 76.3867 179.979 77.0215 179.979C77.334 179.979 77.7637 179.92 78.3105 179.803V182C77.5977 182.195 76.9043 182.293 76.2305 182.293C75.0195 182.293 74.1064 181.927 73.4912 181.194C72.876 180.462 72.5684 179.422 72.5684 178.074V168.245H69.6826V166.15H72.5684V162.312H75.2783ZM80.4053 173.929C80.4053 172.376 80.708 170.979 81.3135 169.739C81.9287 168.499 82.7783 167.542 83.8623 166.868C84.9561 166.194 86.2012 165.857 87.5977 165.857C89.7559 165.857 91.499 166.604 92.8271 168.099C94.165 169.593 94.834 171.58 94.834 174.061V174.251C94.834 175.794 94.5361 177.181 93.9404 178.411C93.3545 179.632 92.5098 180.584 91.4062 181.268C90.3125 181.951 89.0527 182.293 87.627 182.293C85.4785 182.293 83.7354 181.546 82.3975 180.052C81.0693 178.558 80.4053 176.58 80.4053 174.119V173.929ZM83.1299 174.251C83.1299 176.009 83.5352 177.42 84.3457 178.484C85.166 179.549 86.2598 180.081 87.627 180.081C89.0039 180.081 90.0977 179.544 90.9082 178.47C91.7188 177.386 92.124 175.872 92.124 173.929C92.124 172.19 91.709 170.784 90.8789 169.71C90.0586 168.626 88.9648 168.084 87.5977 168.084C86.2598 168.084 85.1807 168.616 84.3604 169.681C83.54 170.745 83.1299 172.269 83.1299 174.251Z" fill="black"/>
<path d="M205.825 37.3846C209.953 41.4529 207.574 61.3558 198.769 70.2907C189.965 79.2256 170.803 81.1841 166.675 77.1158C162.546 73.0474 164.223 53.8582 173.027 44.9234C181.831 35.9885 201.696 33.3162 205.825 37.3846Z" fill="#010203"/>
<path d="M205.825 37.3846C209.953 41.4529 207.574 61.3558 198.769 70.2907C189.965 79.2256 170.803 81.1841 166.675 77.1158C162.546 73.0474 164.223 53.8582 173.027 44.9234C181.831 35.9885 201.696 33.3162 205.825 37.3846Z" fill="url(#paint0_linear)"/>
<path d="M173.716 56.8555L188.53 71.4537" stroke="#FDCA40"/>
<path d="M178.613 50.4277L193.184 64.7866" stroke="#FDCA40"/>
<path d="M185.696 46.1538L195.896 56.205" stroke="#FDCA40"/>
<rect width="2.67366" height="9.54093" transform="matrix(0.701451 -0.711867 0.712708 0.702322 175.935 60.9185)" fill="white"/>
<rect width="2.67366" height="8.17794" transform="matrix(0.701451 -0.711867 0.712708 0.702322 179.132 52.8154)" fill="white"/>
<rect width="2.67366" height="5.45196" transform="matrix(0.701451 -0.711867 0.712708 0.702322 188.158 50.4561)" fill="white"/>
<ellipse rx="1.33683" ry="1.36299" transform="matrix(0.701451 -0.711867 0.712708 0.702322 173.472 56.6165)" fill="#FDCA40"/>
<ellipse rx="1.33683" ry="1.36299" transform="matrix(0.701451 -0.711867 0.712708 0.702322 189.015 71.9329)" fill="#FDCA40"/>
<ellipse rx="1.33683" ry="1.36299" transform="matrix(0.701451 -0.711867 0.712708 0.702322 178.127 49.949)" fill="#FDCA40"/>
<ellipse rx="1.33683" ry="1.36299" transform="matrix(0.701451 -0.711867 0.712708 0.702322 193.67 65.2654)" fill="#FDCA40"/>
<ellipse rx="1.33683" ry="1.36299" transform="matrix(0.701451 -0.711867 0.712708 0.702322 196.382 56.6843)" fill="#FDCA40"/>
<ellipse rx="1.33683" ry="1.36299" transform="matrix(0.701451 -0.711867 0.712708 0.702322 185.211 45.676)" fill="#FDCA40"/>
<defs>
<linearGradient id="paint0_linear" x1="173.379" y1="44.5665" x2="199.122" y2="69.9331" gradientUnits="userSpaceOnUse">
<stop/>
<stop offset="1" stop-color="#263238"/>
</linearGradient>
</defs>
</svg>
